<?xml version="1.0" encoding="UTF-8"?>
<svg xmlns="http://www.w3.org/2000/svg" xmlns:xlink="http://www.w3.org/1999/xlink" width="px" height="11px" viewBox="0 0 12 11" version="1.1">
<g id="surface1">
<path style=" stroke:none;fill-rule:nonzero;fill:rgb(0%,0%,0%);fill-opacity:1;" d="M 1.332031 0.6875 C 0.597656 0.6875 0 1.304688 0 2.0625 L 0 8.9375 C 0 9.695312 0.597656 10.3125 1.332031 10.3125 L 10.667969 10.3125 C 11.402344 10.3125 12 9.695312 12 8.9375 L 12 2.0625 C 12 1.304688 11.402344 0.6875 10.667969 0.6875 Z M 3 6.1875 L 4.332031 6.1875 C 5.253906 6.1875 6 6.957031 6 7.90625 C 6 8.09375 5.851562 8.25 5.667969 8.25 L 1.667969 8.25 C 1.484375 8.25 1.332031 8.09375 1.332031 7.90625 C 1.332031 6.957031 2.078125 6.1875 3 6.1875 Z M 2.332031 4.125 C 2.332031 3.367188 2.929688 2.75 3.667969 2.75 C 4.402344 2.75 5 3.367188 5 4.125 C 5 4.882812 4.402344 5.5 3.667969 5.5 C 2.929688 5.5 2.332031 4.882812 2.332031 4.125 Z M 7.667969 3.4375 L 10.332031 3.4375 C 10.515625 3.4375 10.667969 3.59375 10.667969 3.78125 C 10.667969 3.96875 10.515625 4.125 10.332031 4.125 L 7.667969 4.125 C 7.484375 4.125 7.332031 3.96875 7.332031 3.78125 C 7.332031 3.59375 7.484375 3.4375 7.667969 3.4375 Z M 7.667969 4.8125 L 10.332031 4.8125 C 10.515625 4.8125 10.667969 4.96875 10.667969 5.15625 C 10.667969 5.34375 10.515625 5.5 10.332031 5.5 L 7.667969 5.5 C 7.484375 5.5 7.332031 5.34375 7.332031 5.15625 C 7.332031 4.96875 7.484375 4.8125 7.667969 4.8125 Z M 7.667969 6.1875 L 10.332031 6.1875 C 10.515625 6.1875 10.667969 6.34375 10.667969 6.53125 C 10.667969 6.71875 10.515625 6.875 10.332031 6.875 L 7.667969 6.875 C 7.484375 6.875 7.332031 6.71875 7.332031 6.53125 C 7.332031 6.34375 7.484375 6.1875 7.667969 6.1875 Z M 7.667969 6.1875 "/>
</g>
</svg>
