<?xml version="1.0" encoding="UTF-8"?>
<svg xmlns="http://www.w3.org/2000/svg" xmlns:xlink="http://www.w3.org/1999/xlink" width="px" height="11px" viewBox="0 0 10 11" version="1.1">
<g id="surface1">
<path style=" stroke:none;fill-rule:nonzero;fill:rgb(0%,0%,0%);fill-opacity:1;" d="M 8.929688 0.6875 L 1.070312 0.6875 C 0.480469 0.6875 0 1.148438 0 1.71875 L 0 9.28125 C 0 9.851562 0.480469 10.3125 1.070312 10.3125 L 8.929688 10.3125 C 9.519531 10.3125 10 9.851562 10 9.28125 L 10 1.71875 C 10 1.148438 9.519531 0.6875 8.929688 0.6875 Z M 2.835938 8.261719 C 2.710938 8.46875 2.4375 8.535156 2.226562 8.417969 C 2.011719 8.300781 1.941406 8.035156 2.0625 7.832031 L 2.382812 7.300781 C 2.742188 7.195312 3.035156 7.277344 3.265625 7.546875 Z M 5.933594 7.101562 L 1.875 7.101562 C 1.628906 7.101562 1.429688 6.910156 1.429688 6.671875 C 1.429688 6.4375 1.628906 6.242188 1.875 6.242188 L 3.011719 6.242188 L 4.472656 3.8125 L 4.015625 3.050781 C 3.894531 2.84375 3.964844 2.582031 4.179688 2.464844 C 4.394531 2.347656 4.664062 2.417969 4.789062 2.621094 L 4.988281 2.953125 L 5.183594 2.621094 C 5.308594 2.414062 5.582031 2.347656 5.792969 2.464844 C 6.007812 2.582031 6.082031 2.847656 5.957031 3.050781 L 4.042969 6.242188 L 5.429688 6.242188 C 5.878906 6.242188 6.132812 6.753906 5.933594 7.101562 Z M 8.125 7.101562 L 7.476562 7.101562 L 7.914062 7.832031 C 8.039062 8.039062 7.964844 8.300781 7.753906 8.417969 C 7.539062 8.535156 7.265625 8.464844 7.144531 8.261719 C 6.410156 7.039062 5.859375 6.117188 5.492188 5.507812 C 5.117188 4.886719 5.382812 4.261719 5.648438 4.050781 C 5.941406 4.539062 6.378906 5.269531 6.964844 6.242188 L 8.125 6.242188 C 8.371094 6.242188 8.570312 6.4375 8.570312 6.671875 C 8.570312 6.910156 8.371094 7.101562 8.125 7.101562 Z M 8.125 7.101562 "/>
</g>
</svg>
