<?xml version="1.0" encoding="UTF-8"?>
<svg xmlns="http://www.w3.org/2000/svg" xmlns:xlink="http://www.w3.org/1999/xlink" width="px" height="11px" viewBox="0 0 8 10" version="1.1">
<g id="surface1">
<path style=" stroke:none;fill-rule:nonzero;fill:rgb(0%,0%,0%);fill-opacity:1;" d="M 6.640625 5.25 C 6.636719 4.53125 6.980469 3.988281 7.679688 3.589844 C 7.289062 3.066406 6.699219 2.777344 5.917969 2.71875 C 5.175781 2.664062 4.367188 3.125 4.074219 3.125 C 3.761719 3.125 3.042969 2.738281 2.480469 2.738281 C 1.320312 2.757812 0.0820312 3.609375 0.0820312 5.34375 C 0.0820312 5.851562 0.183594 6.382812 0.382812 6.929688 C 0.648438 7.644531 1.613281 9.402344 2.617188 9.375 C 3.140625 9.359375 3.511719 9.023438 4.195312 9.023438 C 4.859375 9.023438 5.203125 9.375 5.789062 9.375 C 6.800781 9.359375 7.671875 7.761719 7.925781 7.042969 C 6.566406 6.445312 6.640625 5.285156 6.640625 5.246094 Z M 5.460938 2.039062 C 6.027344 1.40625 5.976562 0.832031 5.960938 0.625 C 5.457031 0.652344 4.878906 0.945312 4.546875 1.304688 C 4.179688 1.695312 3.964844 2.171875 4.011719 2.710938 C 4.554688 2.75 5.050781 2.488281 5.460938 2.042969 Z M 5.460938 2.039062 "/>
</g>
</svg>
