<?xml version="1.0" encoding="UTF-8"?>
<svg xmlns="http://www.w3.org/2000/svg" xmlns:xlink="http://www.w3.org/1999/xlink" width="px" height="11px" viewBox="0 0 11 11" version="1.1">
<g id="surface1">
<path style=" stroke:none;fill-rule:nonzero;fill:rgb(0%,0%,0%);fill-opacity:1;" d="M 6.875 0 C 6.496094 0 6.1875 0.308594 6.1875 0.6875 C 6.1875 1.066406 6.496094 1.375 6.875 1.375 L 8.652344 1.375 L 4.328125 5.703125 C 4.058594 5.96875 4.058594 6.40625 4.328125 6.675781 C 4.59375 6.945312 5.03125 6.945312 5.300781 6.675781 L 9.625 2.347656 L 9.625 4.125 C 9.625 4.503906 9.933594 4.8125 10.3125 4.8125 C 10.691406 4.8125 11 4.503906 11 4.125 L 11 0.6875 C 11 0.308594 10.691406 0 10.3125 0 Z M 1.71875 0.6875 C 0.769531 0.6875 0 1.457031 0 2.40625 L 0 9.28125 C 0 10.230469 0.769531 11 1.71875 11 L 8.59375 11 C 9.542969 11 10.3125 10.230469 10.3125 9.28125 L 10.3125 6.875 C 10.3125 6.496094 10.003906 6.1875 9.625 6.1875 C 9.246094 6.1875 8.9375 6.496094 8.9375 6.875 L 8.9375 9.28125 C 8.9375 9.46875 8.78125 9.625 8.59375 9.625 L 1.71875 9.625 C 1.53125 9.625 1.375 9.46875 1.375 9.28125 L 1.375 2.40625 C 1.375 2.21875 1.53125 2.0625 1.71875 2.0625 L 4.125 2.0625 C 4.503906 2.0625 4.8125 1.753906 4.8125 1.375 C 4.8125 0.996094 4.503906 0.6875 4.125 0.6875 Z M 1.71875 0.6875 "/>
</g>
</svg>
