<?xml version="1.0" encoding="UTF-8"?>
<svg xmlns="http://www.w3.org/2000/svg" xmlns:xlink="http://www.w3.org/1999/xlink" width="px" height="11px" viewBox="0 0 11 11" version="1.1">
<g id="surface1">
<path style=" stroke:none;fill-rule:nonzero;fill:rgb(0%,0%,0%);fill-opacity:1;" d="M 3.4375 2.0625 C 3.4375 0.921875 4.359375 0 5.5 0 C 6.640625 0 7.5625 0.921875 7.5625 2.0625 C 7.5625 3.203125 6.640625 4.125 5.5 4.125 C 4.359375 4.125 3.4375 3.203125 3.4375 2.0625 Z M 5.15625 5.328125 L 5.15625 11 L 4.117188 10.480469 C 3.667969 10.257812 3.183594 10.113281 2.679688 10.066406 L 0.617188 9.859375 C 0.269531 9.824219 0 9.527344 0 9.171875 L 0 4.8125 C 0 4.433594 0.308594 4.125 0.6875 4.125 L 1.339844 4.125 C 2.703125 4.125 4.035156 4.546875 5.15625 5.328125 Z M 5.84375 11 L 5.84375 5.328125 C 6.964844 4.546875 8.296875 4.125 9.660156 4.125 L 10.3125 4.125 C 10.691406 4.125 11 4.433594 11 4.8125 L 11 9.171875 C 11 9.527344 10.730469 9.824219 10.382812 9.855469 L 8.320312 10.0625 C 7.820312 10.113281 7.332031 10.253906 6.882812 10.476562 Z M 5.84375 11 "/>
</g>
</svg>
