<?xml version="1.0" encoding="UTF-8"?>
<svg xmlns="http://www.w3.org/2000/svg" xmlns:xlink="http://www.w3.org/1999/xlink" width="px" height="11px" viewBox="0 0 10 11" version="1.1">
<g id="surface1">
<path style=" stroke:none;fill-rule:nonzero;fill:rgb(0%,0%,0%);fill-opacity:1;" d="M 2.144531 0 C 0.960938 0 0 0.921875 0 2.0625 L 0 8.9375 C 0 10.078125 0.960938 11 2.144531 11 L 9.285156 11 C 9.679688 11 10 10.691406 10 10.3125 C 10 9.933594 9.679688 9.625 9.285156 9.625 L 9.285156 8.25 C 9.679688 8.25 10 7.941406 10 7.5625 L 10 0.6875 C 10 0.308594 9.679688 0 9.285156 0 Z M 2.144531 8.25 L 7.855469 8.25 L 7.855469 9.625 L 2.144531 9.625 C 1.746094 9.625 1.429688 9.316406 1.429688 8.9375 C 1.429688 8.558594 1.746094 8.25 2.144531 8.25 Z M 2.855469 3.09375 C 2.855469 2.90625 3.019531 2.75 3.214844 2.75 L 7.5 2.75 C 7.695312 2.75 7.855469 2.90625 7.855469 3.09375 C 7.855469 3.28125 7.695312 3.4375 7.5 3.4375 L 3.214844 3.4375 C 3.019531 3.4375 2.855469 3.28125 2.855469 3.09375 Z M 3.214844 4.125 L 7.5 4.125 C 7.695312 4.125 7.855469 4.28125 7.855469 4.46875 C 7.855469 4.65625 7.695312 4.8125 7.5 4.8125 L 3.214844 4.8125 C 3.019531 4.8125 2.855469 4.65625 2.855469 4.46875 C 2.855469 4.28125 3.019531 4.125 3.214844 4.125 Z M 3.214844 4.125 "/>
</g>
</svg>
