<?xml version="1.0" encoding="UTF-8"?>
<svg xmlns="http://www.w3.org/2000/svg" xmlns:xlink="http://www.w3.org/1999/xlink" width="px" height="11px" viewBox="0 0 13 11" version="1.1">
<g id="surface1">
<path style=" stroke:none;fill-rule:nonzero;fill:rgb(0%,0%,0%);fill-opacity:1;" d="M 1.195312 0.90625 C 1.257812 0.773438 1.390625 0.699219 1.527344 0.71875 L 6.5 1.375 L 11.472656 0.71875 C 11.609375 0.699219 11.742188 0.777344 11.804688 0.90625 L 12.652344 2.695312 C 12.832031 3.082031 12.636719 3.546875 12.25 3.664062 L 8.929688 4.667969 C 8.648438 4.753906 8.34375 4.628906 8.195312 4.359375 L 6.5 1.375 L 4.804688 4.359375 C 4.65625 4.628906 4.351562 4.753906 4.070312 4.667969 L 0.753906 3.664062 C 0.363281 3.546875 0.167969 3.082031 0.351562 2.695312 Z M 6.523438 2.75 L 7.636719 4.714844 C 7.941406 5.246094 8.542969 5.5 9.109375 5.328125 L 11.699219 4.546875 L 11.699219 8.132812 C 11.699219 8.605469 11.394531 9.019531 10.960938 9.136719 L 6.816406 10.230469 C 6.609375 10.285156 6.390625 10.285156 6.183594 10.230469 L 2.039062 9.136719 C 1.605469 9.015625 1.300781 8.605469 1.300781 8.132812 L 1.300781 4.542969 L 3.890625 5.328125 C 4.457031 5.5 5.0625 5.246094 5.363281 4.714844 L 6.476562 2.75 Z M 6.523438 2.75 "/>
</g>
</svg>
