<?xml version="1.0" encoding="UTF-8"?>
<svg xmlns="http://www.w3.org/2000/svg" xmlns:xlink="http://www.w3.org/1999/xlink" width="px" height="11px" viewBox="0 0 10 11" version="1.1">
<g id="surface1">
<path style=" stroke:none;fill-rule:nonzero;fill:rgb(0%,0%,0%);fill-opacity:1;" d="M 2.144531 0.6875 L 2.144531 1.375 L 1.070312 1.375 C 0.480469 1.375 0 1.835938 0 2.40625 L 0 3.4375 L 10 3.4375 L 10 2.40625 C 10 1.835938 9.519531 1.375 8.929688 1.375 L 7.855469 1.375 L 7.855469 0.6875 C 7.855469 0.308594 7.539062 0 7.144531 0 C 6.746094 0 6.429688 0.308594 6.429688 0.6875 L 6.429688 1.375 L 3.570312 1.375 L 3.570312 0.6875 C 3.570312 0.308594 3.253906 0 2.855469 0 C 2.460938 0 2.144531 0.308594 2.144531 0.6875 Z M 10 4.125 L 0 4.125 L 0 9.96875 C 0 10.539062 0.480469 11 1.070312 11 L 8.929688 11 C 9.519531 11 10 10.539062 10 9.96875 Z M 10 4.125 "/>
</g>
</svg>
