<?xml version="1.0" encoding="UTF-8"?>
<svg xmlns="http://www.w3.org/2000/svg" xmlns:xlink="http://www.w3.org/1999/xlink" width="px" height="11px" viewBox="0 0 11 11" version="1.1">
<g id="surface1">
<path style=" stroke:none;fill-rule:nonzero;fill:rgb(0%,0%,0%);fill-opacity:1;" d="M 3.203125 1.390625 L 2.980469 2.0625 L 1.375 2.0625 C 0.617188 2.0625 0 2.679688 0 3.4375 L 0 8.9375 C 0 9.695312 0.617188 10.3125 1.375 10.3125 L 9.625 10.3125 C 10.382812 10.3125 11 9.695312 11 8.9375 L 11 3.4375 C 11 2.679688 10.382812 2.0625 9.625 2.0625 L 8.019531 2.0625 L 7.796875 1.390625 C 7.65625 0.972656 7.265625 0.6875 6.820312 0.6875 L 4.179688 0.6875 C 3.734375 0.6875 3.34375 0.972656 3.203125 1.390625 Z M 5.5 4.125 C 6.640625 4.125 7.5625 5.046875 7.5625 6.1875 C 7.5625 7.328125 6.640625 8.25 5.5 8.25 C 4.359375 8.25 3.4375 7.328125 3.4375 6.1875 C 3.4375 5.046875 4.359375 4.125 5.5 4.125 Z M 5.5 4.125 "/>
</g>
</svg>
