<?xml version="1.0" encoding="UTF-8"?>
<svg xmlns="http://www.w3.org/2000/svg" xmlns:xlink="http://www.w3.org/1999/xlink" width="px" height="11px" viewBox="0 0 11 11" version="1.1">
<g id="surface1">
<path style=" stroke:none;fill-rule:nonzero;fill:rgb(0%,0%,0%);fill-opacity:1;" d="M 8.246094 7.554688 C 8.300781 7.503906 10.507812 5.570312 10.507812 5.570312 L 10.128906 5.410156 C 9.914062 5.304688 9.972656 5.164062 10.023438 5.035156 C 10.074219 4.871094 10.453125 3.589844 10.453125 3.589844 C 10.453125 3.589844 9.429688 3.804688 9.214844 3.859375 C 9.054688 3.910156 9 3.804688 8.945312 3.699219 C 8.890625 3.589844 8.625 3 8.625 3 C 8.625 3 7.492188 4.289062 7.441406 4.339844 C 7.226562 4.5 7.007812 4.339844 7.0625 4.125 C 7.0625 3.910156 7.65625 1.339844 7.65625 1.339844 C 7.65625 1.339844 7.007812 1.714844 6.792969 1.820312 C 6.632812 1.929688 6.523438 1.929688 6.414062 1.714844 C 6.304688 1.554688 5.496094 0 5.496094 0 C 5.496094 0 4.691406 1.554688 4.585938 1.714844 C 4.476562 1.929688 4.371094 1.929688 4.207031 1.820312 C 3.992188 1.714844 3.34375 1.339844 3.34375 1.339844 C 3.34375 1.339844 3.9375 3.910156 3.9375 4.125 C 3.992188 4.339844 3.777344 4.5 3.558594 4.339844 C 3.507812 4.285156 2.375 3 2.375 3 C 2.375 3 2.109375 3.585938 2.054688 3.695312 C 2 3.804688 1.945312 3.90625 1.785156 3.855469 C 1.570312 3.804688 0.546875 3.585938 0.546875 3.585938 C 0.546875 3.585938 0.921875 4.871094 0.976562 5.035156 C 1.027344 5.164062 1.085938 5.300781 0.871094 5.40625 L 0.492188 5.570312 C 0.492188 5.570312 2.699219 7.503906 2.753906 7.554688 C 2.863281 7.664062 2.96875 7.71875 2.863281 8.039062 C 2.753906 8.363281 2.648438 8.792969 2.648438 8.792969 C 2.648438 8.792969 4.691406 8.363281 4.910156 8.308594 C 5.097656 8.289062 5.300781 8.363281 5.300781 8.578125 C 5.300781 8.792969 5.179688 11 5.179688 11 L 5.820312 11 C 5.820312 11 5.699219 8.792969 5.699219 8.578125 C 5.699219 8.359375 5.902344 8.289062 6.09375 8.308594 C 6.308594 8.363281 8.351562 8.792969 8.351562 8.792969 C 8.351562 8.792969 8.246094 8.363281 8.136719 8.039062 C 8.03125 7.71875 8.136719 7.664062 8.246094 7.554688 Z M 8.246094 7.554688 "/>
</g>
</svg>
