<?xml version="1.0" encoding="UTF-8"?>
<svg xmlns="http://www.w3.org/2000/svg" xmlns:xlink="http://www.w3.org/1999/xlink" width="px" height="11px" viewBox="0 0 11 11" version="1.1">
<g id="surface1">
<path style=" stroke:none;fill-rule:nonzero;fill:rgb(0%,0%,0%);fill-opacity:1;" d="M 5.5 0 C 5.613281 0 5.722656 0.0585938 5.785156 0.152344 C 6.125 0.65625 6.574219 1.519531 6.84375 2.496094 C 6.996094 3.0625 7.097656 3.679688 7.066406 4.300781 C 7.3125 4.109375 7.574219 3.941406 7.835938 3.792969 C 8.714844 3.292969 9.648438 3 10.246094 2.878906 C 10.359375 2.859375 10.476562 2.890625 10.554688 2.972656 C 10.632812 3.054688 10.671875 3.171875 10.648438 3.285156 C 10.53125 3.878906 10.234375 4.808594 9.730469 5.683594 C 9.535156 6.027344 9.304688 6.367188 9.035156 6.679688 C 9.632812 6.820312 10.160156 7.050781 10.480469 7.226562 C 10.589844 7.289062 10.65625 7.402344 10.65625 7.527344 C 10.65625 7.652344 10.585938 7.769531 10.480469 7.828125 C 10.152344 8.007812 9.601562 8.246094 8.980469 8.390625 C 8.546875 8.488281 8.058594 8.542969 7.578125 8.488281 L 7.757812 9.199219 C 7.789062 9.332031 7.746094 9.464844 7.640625 9.550781 C 7.535156 9.636719 7.390625 9.652344 7.269531 9.59375 L 6.015625 8.964844 L 6.015625 10.484375 C 6.015625 10.769531 5.785156 11 5.5 11 C 5.214844 11 4.984375 10.769531 4.984375 10.484375 L 4.984375 8.964844 L 3.726562 9.589844 C 3.605469 9.648438 3.464844 9.632812 3.359375 9.546875 C 3.253906 9.460938 3.207031 9.328125 3.238281 9.195312 L 3.417969 8.484375 C 2.941406 8.539062 2.453125 8.484375 2.015625 8.386719 C 1.398438 8.242188 0.84375 8.007812 0.519531 7.824219 C 0.410156 7.765625 0.339844 7.648438 0.339844 7.523438 C 0.339844 7.398438 0.410156 7.28125 0.519531 7.222656 C 0.835938 7.046875 1.363281 6.820312 1.960938 6.675781 C 1.695312 6.367188 1.464844 6.027344 1.265625 5.683594 C 0.765625 4.808594 0.46875 3.878906 0.351562 3.285156 C 0.328125 3.171875 0.363281 3.054688 0.445312 2.972656 C 0.527344 2.890625 0.640625 2.859375 0.753906 2.878906 C 1.351562 2.996094 2.285156 3.292969 3.164062 3.792969 C 3.425781 3.941406 3.6875 4.109375 3.933594 4.300781 C 3.902344 3.683594 4 3.0625 4.15625 2.496094 C 4.425781 1.519531 4.875 0.65625 5.214844 0.152344 C 5.277344 0.0585938 5.386719 0 5.5 0 Z M 5.5 0 "/>
</g>
</svg>
