<?xml version="1.0" encoding="UTF-8"?>
<svg xmlns="http://www.w3.org/2000/svg" xmlns:xlink="http://www.w3.org/1999/xlink" width="px" height="11px" viewBox="0 0 11 11" version="1.1">
<g id="surface1">
<path style=" stroke:none;fill-rule:nonzero;fill:rgb(0%,0%,0%);fill-opacity:1;" d="M 5.5 0 C 6.164062 0 6.703125 0.539062 6.703125 1.203125 C 6.703125 1.867188 6.164062 2.40625 5.5 2.40625 C 4.835938 2.40625 4.296875 1.867188 4.296875 1.203125 C 4.296875 0.539062 4.835938 0 5.5 0 Z M 2.882812 3.089844 C 2.953125 2.808594 3.203125 2.578125 3.53125 2.578125 C 3.792969 2.578125 4.015625 2.734375 4.125 2.945312 C 4.382812 3.441406 4.902344 3.78125 5.5 3.78125 C 6.097656 3.78125 6.617188 3.441406 6.875 2.945312 C 6.984375 2.734375 7.207031 2.578125 7.46875 2.578125 C 7.796875 2.578125 8.050781 2.808594 8.117188 3.089844 C 8.269531 3.6875 8.8125 4.128906 9.453125 4.128906 C 9.683594 4.128906 9.90625 4.070312 10.09375 3.96875 C 10.273438 3.875 10.5 3.871094 10.6875 3.988281 C 10.964844 4.160156 11.054688 4.523438 10.882812 4.804688 L 8.585938 8.59375 L 2.414062 8.59375 L 0.117188 4.804688 C -0.0546875 4.523438 0.0351562 4.160156 0.3125 3.988281 C 0.5 3.875 0.726562 3.875 0.90625 3.96875 C 1.097656 4.070312 1.316406 4.128906 1.546875 4.128906 C 2.1875 4.128906 2.730469 3.6875 2.882812 3.089844 Z M 5.5 4.8125 Z M 2.40625 9.28125 L 8.59375 9.28125 L 9.484375 10.171875 C 9.574219 10.261719 9.625 10.386719 9.625 10.515625 C 9.625 10.78125 9.40625 11 9.140625 11 L 1.859375 11 C 1.59375 11 1.375 10.78125 1.375 10.515625 C 1.375 10.386719 1.425781 10.261719 1.515625 10.171875 Z M 2.40625 9.28125 "/>
</g>
</svg>
