<?xml version="1.0" encoding="UTF-8"?>
<svg xmlns="http://www.w3.org/2000/svg" xmlns:xlink="http://www.w3.org/1999/xlink" width="px" height="11px" viewBox="0 0 10 11" version="1.1">
<g id="surface1">
<path style=" stroke:none;fill-rule:nonzero;fill:rgb(0%,0%,0%);fill-opacity:1;" d="M 2.144531 1.03125 L 1.847656 1.316406 C 1.578125 1.574219 1.429688 1.921875 1.429688 2.289062 L 1.429688 5.132812 C 1.429688 5.363281 1.546875 5.578125 1.746094 5.703125 L 1.980469 5.855469 C 2.300781 6.0625 2.710938 6.085938 3.054688 5.917969 L 3.128906 5.882812 C 3.183594 5.855469 3.238281 5.824219 3.289062 5.789062 L 4.394531 4.992188 C 4.539062 4.886719 4.742188 4.886719 4.890625 4.992188 C 5.117188 5.160156 5.113281 5.488281 4.875 5.644531 L 2.019531 7.519531 C 1.648438 7.761719 1.429688 8.164062 1.429688 8.59375 L 8.570312 8.59375 L 9.214844 5.179688 C 9.261719 4.933594 9.285156 4.6875 9.285156 4.441406 L 9.285156 4.125 C 9.285156 1.847656 7.367188 0 5 0 L 1.871094 0 C 1.628906 0 1.429688 0.191406 1.429688 0.425781 C 1.429688 0.585938 1.523438 0.734375 1.671875 0.804688 Z M 2.679688 2.492188 C 2.679688 2.253906 2.878906 2.0625 3.125 2.0625 C 3.371094 2.0625 3.570312 2.253906 3.570312 2.492188 C 3.570312 2.730469 3.371094 2.921875 3.125 2.921875 C 2.878906 2.921875 2.679688 2.730469 2.679688 2.492188 Z M 0.503906 10.171875 C 0.410156 10.261719 0.355469 10.386719 0.355469 10.515625 C 0.355469 10.78125 0.582031 11 0.863281 11 L 9.136719 11 C 9.414062 11 9.640625 10.78125 9.640625 10.515625 C 9.640625 10.386719 9.585938 10.261719 9.492188 10.171875 L 8.570312 9.28125 L 1.429688 9.28125 Z M 0.503906 10.171875 "/>
</g>
</svg>
