<?xml version="1.0" encoding="UTF-8"?>
<svg xmlns="http://www.w3.org/2000/svg" xmlns:xlink="http://www.w3.org/1999/xlink" width="px" height="11px" viewBox="0 0 12 11" version="1.1">
<g id="surface1">
<path style=" stroke:none;fill-rule:nonzero;fill:rgb(0%,0%,0%);fill-opacity:1;" d="M 10.023438 0 C 8.6875 0 7.574219 1 7.367188 2.3125 C 8.105469 2.691406 8.621094 3.457031 8.664062 4.355469 C 9.144531 4.589844 9.539062 4.992188 9.769531 5.488281 C 9.851562 5.496094 9.9375 5.5 10.023438 5.5 C 10.753906 5.5 11.414062 5.203125 11.898438 4.722656 C 12.003906 4.617188 12.03125 4.457031 11.964844 4.324219 C 11.898438 4.1875 11.753906 4.113281 11.609375 4.136719 C 11.507812 4.15625 11.402344 4.164062 11.292969 4.164062 C 10.273438 4.164062 9.453125 3.320312 9.453125 2.289062 C 9.453125 1.585938 9.828125 0.976562 10.386719 0.652344 C 10.515625 0.582031 10.582031 0.425781 10.550781 0.28125 C 10.519531 0.132812 10.398438 0.0234375 10.253906 0.0078125 C 10.175781 0.00390625 10.101562 -0.00390625 10.023438 -0.00390625 Z M 7.664062 8.246094 C 8.585938 8.246094 9.332031 7.480469 9.332031 6.527344 C 9.332031 5.683594 8.738281 4.980469 7.960938 4.839844 C 7.984375 4.71875 8 4.59375 8 4.46875 C 8 3.519531 7.253906 2.75 6.332031 2.75 C 5.980469 2.75 5.648438 2.863281 5.378906 3.058594 C 5.027344 2.460938 4.390625 2.0625 3.667969 2.0625 C 2.5625 2.0625 1.667969 2.984375 1.667969 4.125 L 1.667969 4.152344 C 0.722656 4.316406 0 5.164062 0 6.183594 C 0 7.324219 0.894531 8.246094 2 8.246094 Z M 1.777344 9.027344 C 1.550781 8.867188 1.238281 8.929688 1.085938 9.167969 L 0.417969 10.199219 C 0.265625 10.4375 0.328125 10.757812 0.558594 10.917969 C 0.789062 11.074219 1.097656 11.011719 1.253906 10.773438 L 1.917969 9.742188 C 2.074219 9.503906 2.011719 9.183594 1.777344 9.027344 Z M 3.777344 9.027344 C 3.550781 8.867188 3.238281 8.929688 3.085938 9.167969 L 2.417969 10.199219 C 2.265625 10.4375 2.328125 10.757812 2.558594 10.917969 C 2.789062 11.074219 3.097656 11.011719 3.253906 10.773438 L 3.917969 9.742188 C 4.074219 9.503906 4.011719 9.183594 3.777344 9.027344 Z M 5.777344 9.027344 C 5.550781 8.867188 5.238281 8.929688 5.085938 9.167969 L 4.417969 10.199219 C 4.265625 10.4375 4.328125 10.757812 4.558594 10.917969 C 4.789062 11.074219 5.097656 11.011719 5.253906 10.773438 L 5.917969 9.742188 C 6.074219 9.503906 6.011719 9.183594 5.777344 9.027344 Z M 7.777344 9.027344 C 7.550781 8.867188 7.238281 8.929688 7.085938 9.167969 L 6.417969 10.199219 C 6.265625 10.4375 6.328125 10.757812 6.558594 10.917969 C 6.789062 11.074219 7.097656 11.011719 7.253906 10.773438 L 7.917969 9.742188 C 8.074219 9.503906 8.011719 9.183594 7.777344 9.027344 Z M 7.777344 9.027344 "/>
</g>
</svg>
