<?xml version="1.0" encoding="UTF-8"?>
<svg xmlns="http://www.w3.org/2000/svg" xmlns:xlink="http://www.w3.org/1999/xlink" width="px" height="11px" viewBox="0 0 13 11" version="1.1">
<g id="surface1">
<path style=" stroke:none;fill-rule:nonzero;fill:rgb(0%,0%,0%);fill-opacity:1;" d="M 10.070312 0 C 10.183594 0 10.292969 0.00390625 10.402344 0.015625 C 10.542969 0.0273438 10.660156 0.136719 10.691406 0.285156 C 10.722656 0.429688 10.660156 0.582031 10.535156 0.65625 C 9.632812 1.195312 9.023438 2.222656 9.023438 3.402344 C 9.023438 5.140625 10.355469 6.550781 11.996094 6.550781 C 12.167969 6.550781 12.339844 6.535156 12.503906 6.503906 C 12.644531 6.480469 12.785156 6.550781 12.851562 6.6875 C 12.914062 6.824219 12.886719 6.984375 12.785156 7.089844 C 12.085938 7.8125 11.128906 8.257812 10.074219 8.257812 C 9.882812 8.257812 9.699219 8.242188 9.515625 8.21875 C 9.289062 7.730469 8.910156 7.339844 8.449219 7.105469 C 8.394531 5.851562 7.425781 4.84375 6.230469 4.816406 C 6.195312 4.589844 6.175781 4.363281 6.175781 4.132812 C 6.175781 1.851562 7.917969 0 10.070312 0 Z M 9.097656 9.277344 C 9.097656 10.230469 8.371094 10.996094 7.472656 10.996094 L 1.949219 10.996094 C 0.875 10.996094 0 10.074219 0 8.933594 C 0 7.914062 0.703125 7.066406 1.625 6.902344 L 1.625 6.875 C 1.625 5.734375 2.5 4.8125 3.574219 4.8125 C 4.285156 4.8125 4.902344 5.210938 5.246094 5.808594 C 5.507812 5.613281 5.828125 5.5 6.175781 5.5 C 7.074219 5.5 7.800781 6.269531 7.800781 7.21875 C 7.800781 7.34375 7.789062 7.46875 7.761719 7.589844 C 8.519531 7.730469 9.097656 8.433594 9.097656 9.277344 Z M 9.097656 9.277344 "/>
</g>
</svg>
