<?xml version="1.0" encoding="UTF-8"?>
<svg xmlns="http://www.w3.org/2000/svg" xmlns:xlink="http://www.w3.org/1999/xlink" width="px" height="11px" viewBox="0 0 10 11" version="1.1">
<g id="surface1">
<path style=" stroke:none;fill-rule:nonzero;fill:rgb(0%,0%,0%);fill-opacity:1;" d="M 1.785156 2.234375 C 2.082031 2.234375 2.320312 2.003906 2.320312 1.71875 C 2.320312 1.433594 2.082031 1.203125 1.785156 1.203125 C 1.488281 1.203125 1.25 1.433594 1.25 1.71875 C 1.25 2.003906 1.488281 2.234375 1.785156 2.234375 Z M 3.570312 1.71875 C 3.570312 2.421875 3.132812 3.03125 2.5 3.292969 L 2.5 5.179688 C 2.917969 4.945312 3.410156 4.8125 3.929688 4.8125 L 6.070312 4.8125 C 6.859375 4.8125 7.5 4.195312 7.5 3.4375 L 7.5 3.292969 C 6.867188 3.03125 6.429688 2.421875 6.429688 1.71875 C 6.429688 0.769531 7.226562 0 8.214844 0 C 9.199219 0 10 0.769531 10 1.71875 C 10 2.421875 9.558594 3.03125 8.929688 3.292969 L 8.929688 3.4375 C 8.929688 4.957031 7.648438 6.1875 6.070312 6.1875 L 3.929688 6.1875 C 3.140625 6.1875 2.5 6.804688 2.5 7.5625 L 2.5 7.707031 C 3.132812 7.96875 3.570312 8.578125 3.570312 9.28125 C 3.570312 10.230469 2.773438 11 1.785156 11 C 0.800781 11 0 10.230469 0 9.28125 C 0 8.578125 0.441406 7.96875 1.070312 7.707031 L 1.070312 3.292969 C 0.441406 3.03125 0 2.421875 0 1.71875 C 0 0.769531 0.800781 0 1.785156 0 C 2.773438 0 3.570312 0.769531 3.570312 1.71875 Z M 8.75 1.71875 C 8.75 1.433594 8.511719 1.203125 8.214844 1.203125 C 7.917969 1.203125 7.679688 1.433594 7.679688 1.71875 C 7.679688 2.003906 7.917969 2.234375 8.214844 2.234375 C 8.511719 2.234375 8.75 2.003906 8.75 1.71875 Z M 1.785156 9.796875 C 2.082031 9.796875 2.320312 9.566406 2.320312 9.28125 C 2.320312 8.996094 2.082031 8.765625 1.785156 8.765625 C 1.488281 8.765625 1.25 8.996094 1.25 9.28125 C 1.25 9.566406 1.488281 9.796875 1.785156 9.796875 Z M 1.785156 9.796875 "/>
</g>
</svg>
