<?xml version="1.0" encoding="UTF-8"?>
<svg xmlns="http://www.w3.org/2000/svg" xmlns:xlink="http://www.w3.org/1999/xlink" width="px" height="11px" viewBox="0 0 13 11" version="1.1">
<g id="surface1">
<path style=" stroke:none;fill-rule:nonzero;fill:rgb(0%,0%,0%);fill-opacity:1;" d="M 7.980469 0.0273438 C 7.632812 -0.078125 7.273438 0.132812 7.175781 0.5 L 4.574219 10.125 C 4.476562 10.488281 4.675781 10.867188 5.019531 10.972656 C 5.367188 11.078125 5.726562 10.867188 5.824219 10.5 L 8.425781 0.875 C 8.523438 0.511719 8.324219 0.132812 7.980469 0.0273438 Z M 9.617188 2.605469 C 9.363281 2.875 9.363281 3.3125 9.617188 3.578125 L 11.429688 5.5 L 9.613281 7.421875 C 9.359375 7.6875 9.359375 8.125 9.613281 8.394531 C 9.867188 8.664062 10.28125 8.664062 10.535156 8.394531 L 12.808594 5.988281 C 13.0625 5.71875 13.0625 5.28125 12.808594 5.015625 L 10.535156 2.609375 C 10.28125 2.339844 9.867188 2.339844 9.613281 2.609375 Z M 3.386719 2.605469 C 3.132812 2.335938 2.71875 2.335938 2.464844 2.605469 L 0.191406 5.011719 C -0.0625 5.28125 -0.0625 5.71875 0.191406 5.984375 L 2.464844 8.390625 C 2.71875 8.660156 3.132812 8.660156 3.386719 8.390625 C 3.640625 8.125 3.640625 7.6875 3.386719 7.417969 L 1.570312 5.5 L 3.386719 3.578125 C 3.640625 3.3125 3.640625 2.875 3.386719 2.605469 Z M 3.386719 2.605469 "/>
</g>
</svg>
