<?xml version="1.0" encoding="UTF-8"?>
<svg xmlns="http://www.w3.org/2000/svg" xmlns:xlink="http://www.w3.org/1999/xlink" width="px" height="11px" viewBox="0 0 12 11" version="1.1">
<g id="surface1">
<path style=" stroke:none;fill-rule:nonzero;fill:rgb(0%,0%,0%);fill-opacity:1;" d="M 1.332031 0.6875 C 0.597656 0.6875 0 1.304688 0 2.0625 L 0 2.75 L 12 2.75 L 12 2.0625 C 12 1.304688 11.402344 0.6875 10.667969 0.6875 Z M 12 4.8125 L 0 4.8125 L 0 8.9375 C 0 9.695312 0.597656 10.3125 1.332031 10.3125 L 10.667969 10.3125 C 11.402344 10.3125 12 9.695312 12 8.9375 Z M 2.332031 7.5625 L 3.667969 7.5625 C 3.851562 7.5625 4 7.71875 4 7.90625 C 4 8.09375 3.851562 8.25 3.667969 8.25 L 2.332031 8.25 C 2.148438 8.25 2 8.09375 2 7.90625 C 2 7.71875 2.148438 7.5625 2.332031 7.5625 Z M 4.667969 7.90625 C 4.667969 7.71875 4.816406 7.5625 5 7.5625 L 7.667969 7.5625 C 7.851562 7.5625 8 7.71875 8 7.90625 C 8 8.09375 7.851562 8.25 7.667969 8.25 L 5 8.25 C 4.816406 8.25 4.667969 8.09375 4.667969 7.90625 Z M 4.667969 7.90625 "/>
</g>
</svg>
