<?xml version="1.0" encoding="UTF-8"?>
<svg xmlns="http://www.w3.org/2000/svg" xmlns:xlink="http://www.w3.org/1999/xlink" width="px" height="11px" viewBox="0 0 10 11" version="1.1">
<g id="surface1">
<path style=" stroke:none;fill-rule:nonzero;fill:rgb(0%,0%,0%);fill-opacity:1;" d="M 10 1.71875 L 10 2.75 C 10 3.699219 7.761719 4.46875 5 4.46875 C 2.238281 4.46875 0 3.699219 0 2.75 L 0 1.71875 C 0 0.769531 2.238281 0 5 0 C 7.761719 0 10 0.769531 10 1.71875 Z M 8.777344 4.613281 C 9.242188 4.453125 9.667969 4.25 10 4 L 10 6.1875 C 10 7.136719 7.761719 7.90625 5 7.90625 C 2.238281 7.90625 0 7.136719 0 6.1875 L 0 4 C 0.332031 4.25 0.757812 4.453125 1.222656 4.613281 C 2.226562 4.957031 3.558594 5.15625 5 5.15625 C 6.441406 5.15625 7.773438 4.957031 8.777344 4.613281 Z M 0 7.4375 C 0.332031 7.6875 0.757812 7.890625 1.222656 8.050781 C 2.226562 8.394531 3.558594 8.59375 5 8.59375 C 6.441406 8.59375 7.773438 8.394531 8.777344 8.050781 C 9.242188 7.890625 9.667969 7.6875 10 7.4375 L 10 9.28125 C 10 10.230469 7.761719 11 5 11 C 2.238281 11 0 10.230469 0 9.28125 Z M 0 7.4375 "/>
</g>
</svg>
