<?xml version="1.0" encoding="UTF-8"?>
<svg xmlns="http://www.w3.org/2000/svg" xmlns:xlink="http://www.w3.org/1999/xlink" width="px" height="11px" viewBox="0 0 10 11" version="1.1">
<g id="surface1">
<path style=" stroke:none;fill-rule:nonzero;fill:rgb(0%,0%,0%);fill-opacity:1;" d="M 8.488281 5.277344 C 8.554688 5.113281 8.609375 4.976562 8.601562 4.753906 L 8.507812 4.945312 C 8.605469 4.664062 8.597656 4.363281 8.585938 4.078125 C 8.582031 3.949219 8.582031 3.824219 8.585938 3.703125 L 8.546875 3.691406 C 8.511719 2.722656 7.640625 1.691406 6.867188 1.34375 C 6.195312 1.046875 5.167969 0.996094 4.695312 1.21875 C 4.722656 1.195312 4.789062 1.175781 4.847656 1.160156 L 4.851562 1.15625 C 4.925781 1.136719 4.988281 1.121094 4.941406 1.09375 C 4.511719 1.136719 4.386719 1.214844 4.246094 1.296875 C 4.144531 1.359375 4.035156 1.425781 3.792969 1.484375 C 3.714844 1.558594 3.832031 1.527344 3.921875 1.503906 C 4.011719 1.480469 4.082031 1.464844 3.917969 1.554688 C 3.839844 1.578125 3.773438 1.582031 3.707031 1.589844 L 3.703125 1.589844 C 3.519531 1.605469 3.351562 1.625 3.019531 1.953125 C 3.035156 1.984375 3.09375 1.949219 3.136719 1.925781 C 3.191406 1.894531 3.214844 1.882812 3.101562 2.019531 C 2.675781 1.96875 1.753906 2.957031 1.558594 3.289062 L 1.660156 3.304688 C 1.589844 3.476562 1.507812 3.621094 1.4375 3.75 C 1.339844 3.925781 1.261719 4.070312 1.242188 4.207031 C 1.238281 4.320312 1.222656 4.445312 1.207031 4.582031 C 1.203125 4.601562 1.199219 4.625 1.199219 4.644531 L 1.195312 4.65625 C 1.128906 5.246094 1.046875 5.964844 1.285156 6.226562 L 1.253906 6.503906 C 1.269531 6.53125 1.277344 6.554688 1.289062 6.582031 C 1.292969 6.589844 1.300781 6.597656 1.300781 6.605469 C 1.324219 6.648438 1.347656 6.695312 1.375 6.738281 L 1.308594 6.742188 C 1.464844 7.214844 1.550781 7.226562 1.644531 7.234375 C 1.742188 7.242188 1.851562 7.253906 2.0625 7.753906 C 2.003906 7.734375 1.941406 7.714844 1.851562 7.597656 C 1.839844 7.6875 1.980469 7.949219 2.144531 8.152344 L 2.074219 8.230469 C 2.121094 8.308594 2.183594 8.363281 2.246094 8.417969 C 2.269531 8.4375 2.292969 8.460938 2.316406 8.480469 C 2.050781 8.34375 2.386719 8.777344 2.582031 9.023438 C 2.597656 9.046875 2.613281 9.066406 2.628906 9.085938 C 2.660156 9.125 2.683594 9.160156 2.695312 9.175781 L 2.746094 9.082031 C 2.742188 9.214844 2.84375 9.382812 3.039062 9.613281 L 3.203125 9.609375 C 3.269531 9.738281 3.515625 9.964844 3.664062 9.976562 L 3.566406 10.101562 C 3.746094 10.15625 3.796875 10.195312 3.851562 10.234375 C 3.910156 10.28125 3.972656 10.328125 4.210938 10.410156 L 4.117188 10.25 C 4.195312 10.316406 4.253906 10.378906 4.3125 10.4375 L 4.316406 10.4375 C 4.429688 10.558594 4.535156 10.667969 4.753906 10.769531 C 4.992188 10.847656 5.125 10.867188 5.261719 10.894531 C 5.269531 10.894531 5.273438 10.894531 5.28125 10.894531 C 5.402344 10.910156 5.53125 10.933594 5.746094 10.992188 C 5.722656 10.988281 5.695312 10.988281 5.671875 10.988281 C 5.621094 10.988281 5.566406 10.988281 5.515625 10.988281 C 5.195312 10.984375 4.863281 10.980469 4.5625 10.875 C 2.40625 10.324219 0.433594 7.890625 0.582031 5.382812 C 0.566406 5.171875 0.574219 4.933594 0.582031 4.722656 C 0.589844 4.433594 0.597656 4.191406 0.542969 4.117188 L 0.566406 4.050781 C 0.683594 3.675781 0.828125 3.230469 1.097656 2.699219 L 1.097656 2.695312 C 1.105469 2.703125 1.171875 2.765625 1.292969 2.570312 C 1.308594 2.53125 1.328125 2.488281 1.347656 2.449219 C 1.355469 2.425781 1.367188 2.402344 1.378906 2.378906 C 1.433594 2.25 1.492188 2.117188 1.566406 1.996094 L 1.621094 1.984375 C 1.660156 1.765625 2.003906 1.472656 2.289062 1.226562 L 2.3125 1.207031 C 2.441406 1.097656 2.550781 0.996094 2.617188 0.925781 L 2.632812 1.019531 C 3.011719 0.675781 3.628906 0.425781 4.097656 0.238281 L 4.105469 0.230469 C 4.214844 0.1875 4.316406 0.148438 4.402344 0.109375 C 4.328125 0.191406 4.453125 0.167969 4.628906 0.132812 C 4.734375 0.109375 4.859375 0.0859375 4.96875 0.078125 L 4.882812 0.125 C 4.820312 0.15625 4.761719 0.183594 4.703125 0.222656 C 4.882812 0.179688 4.964844 0.195312 5.054688 0.207031 L 5.058594 0.207031 C 5.136719 0.21875 5.222656 0.230469 5.386719 0.210938 C 5.261719 0.226562 5.113281 0.273438 5.136719 0.292969 C 5.3125 0.3125 5.421875 0.289062 5.519531 0.269531 L 5.523438 0.269531 C 5.648438 0.246094 5.753906 0.226562 5.957031 0.289062 L 5.933594 0.1875 C 6.097656 0.242188 6.214844 0.28125 6.324219 0.3125 L 6.335938 0.3125 C 6.558594 0.378906 6.726562 0.425781 7.097656 0.617188 C 7.167969 0.621094 7.214844 0.605469 7.261719 0.589844 L 7.265625 0.589844 C 7.347656 0.566406 7.421875 0.546875 7.605469 0.617188 C 7.613281 0.628906 7.617188 0.636719 7.621094 0.648438 C 7.621094 0.652344 7.625 0.65625 7.628906 0.660156 L 7.628906 0.664062 C 7.648438 0.71875 7.667969 0.761719 7.953125 0.925781 C 7.992188 0.910156 7.894531 0.824219 7.808594 0.746094 C 7.804688 0.742188 7.800781 0.738281 7.796875 0.738281 C 8.515625 1.109375 9.300781 1.898438 9.539062 2.746094 C 9.402344 2.507812 9.421875 2.628906 9.441406 2.757812 C 9.457031 2.84375 9.46875 2.929688 9.4375 2.917969 C 9.539062 3.175781 9.617188 3.445312 9.667969 3.722656 L 9.652344 3.660156 L 9.648438 3.652344 C 9.574219 3.398438 9.433594 2.914062 9.207031 2.59375 C 9.195312 2.6875 9.144531 2.675781 9.089844 2.667969 L 9.085938 2.667969 C 9.011719 2.65625 8.949219 2.644531 9.042969 2.9375 C 9.101562 3.019531 9.113281 2.992188 9.121094 2.960938 C 9.132812 2.929688 9.144531 2.90625 9.226562 3.074219 C 9.230469 3.164062 9.25 3.25 9.273438 3.347656 L 9.277344 3.359375 C 9.277344 3.367188 9.277344 3.371094 9.28125 3.378906 L 9.285156 3.390625 C 9.296875 3.445312 9.3125 3.507812 9.324219 3.570312 C 9.300781 3.566406 9.273438 3.523438 9.246094 3.480469 C 9.214844 3.429688 9.183594 3.378906 9.164062 3.410156 C 9.21875 3.660156 9.308594 3.785156 9.34375 3.804688 C 9.335938 3.816406 9.332031 3.820312 9.320312 3.820312 C 9.300781 3.820312 9.277344 3.820312 9.277344 3.933594 C 9.292969 4.226562 9.351562 4.203125 9.394531 4.183594 C 9.410156 4.175781 9.421875 4.171875 9.433594 4.175781 C 9.417969 4.226562 9.398438 4.285156 9.371094 4.34375 C 9.308594 4.496094 9.238281 4.675781 9.296875 4.90625 C 9.277344 4.839844 9.253906 4.777344 9.226562 4.714844 L 9.226562 4.703125 C 9.222656 4.695312 9.214844 4.683594 9.210938 4.671875 C 9.207031 4.65625 9.199219 4.636719 9.191406 4.625 C 9.179688 4.71875 9.183594 4.789062 9.191406 4.851562 C 9.191406 4.855469 9.191406 4.863281 9.191406 4.867188 C 9.199219 4.980469 9.207031 5.082031 9.121094 5.292969 C 9.21875 4.988281 9.207031 4.714844 9.117188 4.847656 C 9.140625 5.082031 9.035156 5.285156 8.941406 5.46875 L 8.9375 5.472656 C 8.855469 5.625 8.785156 5.761719 8.804688 5.886719 L 8.691406 5.734375 C 8.523438 5.96875 8.535156 6.019531 8.542969 6.066406 L 8.542969 6.070312 C 8.554688 6.109375 8.566406 6.152344 8.46875 6.300781 C 8.507812 6.238281 8.496094 6.222656 8.492188 6.210938 C 8.480469 6.195312 8.476562 6.179688 8.527344 6.101562 C 8.492188 6.105469 8.40625 6.183594 8.304688 6.285156 C 8.214844 6.367188 8.113281 6.464844 8.019531 6.539062 C 7.179688 7.183594 6.179688 7.269531 5.214844 6.921875 C 5.21875 6.898438 5.210938 6.875 5.144531 6.832031 C 4.324219 6.226562 3.839844 5.710938 4.007812 4.523438 C 4.054688 4.488281 4.089844 4.398438 4.128906 4.289062 L 4.132812 4.28125 L 4.132812 4.273438 C 4.199219 4.09375 4.277344 3.871094 4.453125 3.761719 C 4.628906 3.390625 5.152344 3.046875 5.710938 3.039062 C 6.285156 3.007812 6.765625 3.332031 7.007812 3.636719 C 6.566406 3.242188 5.847656 3.121094 5.230469 3.414062 C 4.601562 3.6875 4.226562 4.355469 4.28125 5.019531 C 4.289062 5.011719 4.292969 5.003906 4.300781 5 C 4.300781 5 4.304688 5 4.304688 5 L 4.304688 4.996094 C 4.320312 4.988281 4.332031 4.976562 4.335938 4.925781 C 4.316406 6.21875 5.785156 7.167969 6.839844 6.6875 L 6.851562 6.714844 C 7.136719 6.640625 7.207031 6.578125 7.304688 6.484375 L 7.308594 6.484375 C 7.355469 6.4375 7.414062 6.386719 7.507812 6.328125 C 7.5 6.34375 7.476562 6.363281 7.453125 6.386719 C 7.402344 6.429688 7.351562 6.480469 7.417969 6.484375 C 7.527344 6.457031 7.832031 6.195312 8.054688 6.003906 C 8.066406 5.992188 8.082031 5.984375 8.089844 5.972656 C 8.125 5.945312 8.152344 5.917969 8.179688 5.894531 L 8.1875 5.890625 C 8.230469 5.796875 8.222656 5.769531 8.214844 5.738281 L 8.214844 5.734375 C 8.207031 5.703125 8.199219 5.664062 8.269531 5.53125 L 8.433594 5.449219 C 8.449219 5.40625 8.464844 5.363281 8.480469 5.320312 C 8.488281 5.308594 8.492188 5.296875 8.496094 5.28125 Z M 7.796875 0.738281 L 7.792969 0.734375 Z M 5.53125 7.179688 C 5.398438 7.113281 5.226562 6.988281 5.199219 6.933594 L 5.191406 6.941406 C 5.183594 6.953125 5.179688 6.96875 5.1875 6.988281 C 4.914062 6.863281 4.664062 6.679688 4.460938 6.453125 C 4.570312 6.605469 4.683594 6.753906 4.839844 6.871094 C 4.683594 6.820312 4.503906 6.617188 4.355469 6.457031 L 4.355469 6.453125 C 4.257812 6.347656 4.179688 6.257812 4.136719 6.25 C 4.582031 7.011719 5.933594 7.589844 6.644531 7.300781 C 6.316406 7.3125 5.898438 7.308594 5.53125 7.179688 Z M 7.300781 4.605469 L 7.300781 4.601562 C 7.289062 4.570312 7.273438 4.535156 7.261719 4.527344 C 7.292969 4.40625 7.382812 4.300781 7.359375 4.628906 C 7.335938 4.710938 7.320312 4.660156 7.300781 4.605469 Z M 7.207031 5.082031 C 7.179688 5.253906 7.097656 5.417969 6.980469 5.566406 C 6.988281 5.523438 6.957031 5.515625 6.925781 5.507812 C 6.859375 5.488281 6.792969 5.472656 7.050781 5.160156 C 7.039062 5.203125 7.003906 5.257812 6.964844 5.316406 L 6.960938 5.324219 C 6.878906 5.453125 6.808594 5.5625 7.050781 5.417969 L 7.070312 5.378906 C 7.128906 5.28125 7.183594 5.191406 7.207031 5.082031 Z M 5.964844 5.8125 C 6.125 5.824219 6.28125 5.824219 6.433594 5.789062 C 6.378906 5.839844 6.320312 5.890625 6.25 5.941406 C 6.003906 5.90625 5.777344 5.8125 5.964844 5.8125 Z M 3.898438 6.0625 C 3.980469 6.214844 4.042969 6.308594 4.101562 6.398438 L 4.101562 6.402344 C 4.152344 6.480469 4.199219 6.554688 4.253906 6.652344 C 4.140625 6.5625 4.058594 6.449219 3.976562 6.332031 L 3.96875 6.320312 C 3.9375 6.277344 3.90625 6.230469 3.871094 6.1875 Z M 4.066406 5.855469 C 4.101562 5.925781 4.136719 5.992188 4.195312 6.050781 L 4.253906 6.214844 L 4.222656 6.171875 C 4.152344 6.054688 4.082031 5.941406 4.042969 5.8125 L 4.0625 5.847656 Z M 9.398438 4.960938 C 9.347656 5.335938 9.226562 5.703125 9.042969 6.042969 C 9.210938 5.722656 9.320312 5.378906 9.371094 5.027344 Z M 0.792969 2.375 C 0.804688 2.394531 0.824219 2.386719 0.847656 2.382812 C 0.886719 2.371094 0.925781 2.363281 0.84375 2.546875 C 0.832031 2.550781 0.820312 2.5625 0.808594 2.566406 C 0.777344 2.585938 0.746094 2.609375 0.722656 2.632812 C 0.765625 2.550781 0.800781 2.472656 0.792969 2.375 Z M 0.566406 3.273438 C 0.550781 3.351562 0.53125 3.441406 0.488281 3.570312 C 0.492188 3.53125 0.488281 3.496094 0.484375 3.464844 C 0.476562 3.390625 0.46875 3.328125 0.582031 3.1875 C 0.574219 3.214844 0.570312 3.242188 0.566406 3.269531 Z M 0.566406 3.273438 "/>
</g>
</svg>
