<?xml version="1.0" encoding="UTF-8"?>
<svg xmlns="http://www.w3.org/2000/svg" xmlns:xlink="http://www.w3.org/1999/xlink" width="px" height="11px" viewBox="0 0 12 11" version="1.1">
<g id="surface1">
<path style=" stroke:none;fill-rule:nonzero;fill:rgb(0%,0%,0%);fill-opacity:1;" d="M 1.332031 0 C 0.597656 0 0 0.617188 0 1.375 L 0 7.5625 C 0 8.320312 0.597656 8.9375 1.332031 8.9375 L 5 8.9375 L 4.777344 9.625 L 3.332031 9.625 C 2.964844 9.625 2.667969 9.933594 2.667969 10.3125 C 2.667969 10.691406 2.964844 11 3.332031 11 L 8.667969 11 C 9.035156 11 9.332031 10.691406 9.332031 10.3125 C 9.332031 9.933594 9.035156 9.625 8.667969 9.625 L 7.222656 9.625 L 7 8.9375 L 10.667969 8.9375 C 11.402344 8.9375 12 8.320312 12 7.5625 L 12 1.375 C 12 0.617188 11.402344 0 10.667969 0 Z M 10.667969 1.375 L 10.667969 7.5625 L 1.332031 7.5625 L 1.332031 1.375 Z M 10.667969 1.375 "/>
</g>
</svg>
