<?xml version="1.0" encoding="UTF-8"?>
<svg xmlns="http://www.w3.org/2000/svg" xmlns:xlink="http://www.w3.org/1999/xlink" width="px" height="11px" viewBox="0 0 11 11" version="1.1">
<g id="surface1">
<path style=" stroke:none;fill-rule:nonzero;fill:rgb(0%,0%,0%);fill-opacity:1;" d="M 3.453125 2.074219 C 3.753906 2.4375 4.121094 2.738281 4.519531 2.980469 C 5.074219 3.320312 5.671875 3.535156 6.1875 3.660156 L 6.1875 2.980469 C 5.710938 2.332031 5.371094 1.535156 5.339844 0.601562 C 5.332031 0.359375 5.179688 0.140625 4.945312 0.078125 C 4.78125 0.0351562 4.605469 0.0742188 4.496094 0.203125 C 4.207031 0.53125 3.792969 1.160156 3.453125 2.074219 Z M 6.875 3.09375 L 6.875 4.46875 C 5.570312 4.359375 2.898438 3.527344 2.164062 1.089844 C 2.09375 0.859375 1.886719 0.6875 1.644531 0.6875 C 1.476562 0.6875 1.316406 0.769531 1.242188 0.921875 C 1.003906 1.414062 0.6875 2.410156 0.6875 3.78125 C 0.6875 6.292969 2.410156 7.660156 3.230469 8.136719 L 0.253906 8.949219 C 0.144531 8.980469 0.0546875 9.0625 0.0195312 9.167969 C -0.015625 9.277344 0.00390625 9.398438 0.0703125 9.488281 C 0.464844 10.015625 1.660156 11 3.4375 11 C 3.515625 11 3.59375 10.972656 3.652344 10.925781 L 5.277344 9.625 L 6.875 9.625 C 8.773438 9.625 10.3125 8.085938 10.3125 6.1875 L 10.3125 2.75 L 10.953125 1.785156 C 10.984375 1.742188 11 1.691406 11 1.640625 C 11 1.492188 10.882812 1.375 10.734375 1.375 L 8.59375 1.375 C 7.644531 1.375 6.875 2.144531 6.875 3.09375 Z M 8.59375 2.75 C 8.785156 2.75 8.9375 2.902344 8.9375 3.09375 C 8.9375 3.285156 8.785156 3.4375 8.59375 3.4375 C 8.402344 3.4375 8.25 3.285156 8.25 3.09375 C 8.25 2.902344 8.402344 2.75 8.59375 2.75 Z M 8.59375 2.75 "/>
</g>
</svg>
