<?xml version="1.0" encoding="UTF-8"?>
<svg xmlns="http://www.w3.org/2000/svg" xmlns:xlink="http://www.w3.org/1999/xlink" width="px" height="11px" viewBox="0 0 11 11" version="1.1">
<g id="surface1">
<path style=" stroke:none;fill-rule:nonzero;fill:rgb(0%,0%,0%);fill-opacity:1;" d="M 6.1875 0.6875 C 6.1875 0.308594 5.878906 0 5.5 0 C 5.121094 0 4.8125 0.308594 4.8125 0.6875 L 4.8125 5.902344 L 3.234375 4.324219 C 2.96875 4.054688 2.53125 4.054688 2.261719 4.324219 C 1.992188 4.59375 1.992188 5.03125 2.261719 5.296875 L 5.011719 8.046875 C 5.28125 8.316406 5.71875 8.316406 5.984375 8.046875 L 8.734375 5.296875 C 9.003906 5.03125 9.003906 4.59375 8.734375 4.324219 C 8.46875 4.054688 8.03125 4.054688 7.761719 4.324219 L 6.1875 5.902344 Z M 1.375 7.5625 C 0.617188 7.5625 0 8.179688 0 8.9375 L 0 9.625 C 0 10.382812 0.617188 11 1.375 11 L 9.625 11 C 10.382812 11 11 10.382812 11 9.625 L 11 8.9375 C 11 8.179688 10.382812 7.5625 9.625 7.5625 L 7.445312 7.5625 L 6.472656 8.535156 C 5.933594 9.074219 5.0625 9.074219 4.527344 8.535156 L 3.554688 7.5625 Z M 9.28125 8.765625 C 9.566406 8.765625 9.796875 8.996094 9.796875 9.28125 C 9.796875 9.566406 9.566406 9.796875 9.28125 9.796875 C 8.996094 9.796875 8.765625 9.566406 8.765625 9.28125 C 8.765625 8.996094 8.996094 8.765625 9.28125 8.765625 Z M 9.28125 8.765625 "/>
</g>
</svg>
