<?xml version="1.0" encoding="UTF-8"?>
<svg xmlns="http://www.w3.org/2000/svg" xmlns:xlink="http://www.w3.org/1999/xlink" width="px" height="11px" viewBox="0 0 10 10" version="1.1">
<g id="surface1">
<path style=" stroke:none;fill-rule:nonzero;fill:rgb(0%,0%,0%);fill-opacity:1;" d="M 6.523438 0.929688 C 6.550781 0.671875 6.96875 0.65625 7.289062 0.757812 C 7.304688 0.761719 7.832031 0.945312 7.683594 1.054688 C 7.101562 0.910156 6.507812 1.410156 6.523438 0.929688 Z M 2.335938 1.0625 C 2.976562 0.90625 3.628906 1.453125 3.609375 0.921875 C 3.582031 0.644531 3.121094 0.625 2.773438 0.734375 C 2.753906 0.742188 2.175781 0.941406 2.335938 1.0625 Z M 6.652344 3.125 C 6.472656 3.125 6.320312 3.265625 6.320312 3.4375 C 6.320312 3.609375 6.472656 3.75 6.652344 3.75 C 6.835938 3.75 6.988281 3.609375 6.988281 3.4375 C 6.988281 3.265625 6.835938 3.125 6.652344 3.125 Z M 3.328125 3.125 C 3.144531 3.125 2.992188 3.265625 2.992188 3.4375 C 2.992188 3.609375 3.144531 3.75 3.328125 3.75 C 3.511719 3.75 3.660156 3.609375 3.660156 3.4375 C 3.660156 3.265625 3.511719 3.125 3.328125 3.125 Z M 9.960938 6.3125 C 9.757812 6.78125 9.113281 6.527344 8.632812 6.289062 C 8.351562 7.640625 7.421875 8.464844 6 8.714844 C 6.007812 8.734375 5.957031 8.710938 6.5 8.734375 C 7.199219 8.761719 7.828125 8.671875 8.527344 8.578125 C 8.117188 8.308594 8.292969 7.851562 8.324219 7.832031 C 8.355469 7.816406 8.632812 7.867188 8.773438 8.058594 C 8.953125 7.8125 9.367188 7.769531 9.402344 7.792969 C 9.4375 7.8125 9.542969 8.199219 9.261719 8.46875 C 9.359375 8.453125 9.429688 8.4375 9.464844 8.425781 C 9.519531 8.410156 9.832031 8.648438 9.527344 8.6875 C 9.230469 8.734375 9.058594 8.789062 8.546875 8.898438 C 7.589844 9.109375 6.757812 9.128906 6.097656 9.148438 L 6.117188 9.375 C 6.195312 9.726562 5.628906 9.851562 5.542969 9.496094 C 5.558594 9.84375 4.976562 9.921875 4.949219 9.476562 L 4.941406 9.578125 C 4.925781 9.9375 4.347656 9.929688 4.351562 9.570312 C 4.195312 9.832031 3.765625 9.703125 3.800781 9.402344 L 3.824219 9.160156 C 3.058594 9.179688 2.582031 9.21875 2.539062 9.21875 C 2.101562 9.21875 2.101562 8.601562 2.539062 8.601562 C 2.585938 8.601562 3.113281 8.628906 3.855469 8.65625 C 2.582031 8.355469 1.695312 7.585938 1.460938 6.351562 C 0.941406 6.601562 0.261719 6.875 0.0390625 6.367188 C -0.179688 5.871094 0.488281 5.53125 1.429688 4.933594 C 1.445312 4.804688 1.464844 4.671875 1.488281 4.546875 C 1.1875 4.164062 1.246094 3.835938 1.152344 3.367188 C 0.800781 3.414062 0.667969 3.1875 0.660156 2.914062 C 0.667969 2.773438 0.703125 2.625 0.710938 2.613281 C 0.734375 2.578125 0.921875 2.574219 0.976562 2.5625 C 1.101562 1.945312 2.027344 1.914062 2.867188 1.890625 C 3.277344 1.464844 3.808594 1.078125 4.554688 0.945312 C 4.234375 0.566406 4.484375 0.164062 4.503906 0.15625 C 4.539062 0.140625 4.945312 0.242188 5.050781 0.609375 C 5.160156 0.4375 5.433594 0.386719 5.460938 0.398438 C 5.484375 0.414062 5.59375 0.695312 5.359375 0.90625 C 6.199219 0.976562 6.863281 1.390625 7.359375 1.898438 C 8.109375 1.925781 8.855469 2.011719 8.964844 2.5625 C 9.019531 2.570312 9.207031 2.578125 9.230469 2.609375 C 9.234375 2.621094 9.273438 2.769531 9.277344 2.914062 C 9.269531 3.183594 9.136719 3.40625 8.789062 3.363281 C 8.722656 3.703125 8.730469 4.007812 8.605469 4.296875 C 8.65625 4.523438 8.691406 4.757812 8.707031 5.003906 C 9.476562 5.5 10.171875 5.835938 9.960938 6.3125 Z M 4.320312 3.125 C 4.339844 2.265625 3.53125 2.296875 2.683594 2.335938 C 2.230469 2.355469 1.871094 2.375 1.734375 2.609375 C 1.496094 3.015625 1.859375 4.421875 2.21875 4.585938 C 2.421875 4.675781 3.746094 4.738281 4.015625 4.445312 C 4.1875 4.261719 4.328125 3.480469 4.320312 3.121094 Z M 5.402344 4.261719 C 5.316406 4.019531 5.277344 3.671875 5.085938 3.625 C 5.042969 3.613281 4.898438 3.613281 4.855469 3.625 C 4.648438 3.679688 4.632812 4.054688 4.503906 4.351562 C 4.824219 4.351562 4.902344 4.539062 4.996094 4.539062 C 5.085938 4.539062 5.128906 4.316406 5.402344 4.261719 Z M 8.230469 2.609375 C 8.09375 2.371094 7.714844 2.355469 7.261719 2.335938 C 6.425781 2.296875 5.632812 2.261719 5.652344 3.121094 C 5.640625 3.480469 5.757812 4.261719 5.925781 4.445312 C 6.199219 4.738281 7.523438 4.679688 7.726562 4.585938 C 8.054688 4.4375 8.484375 3.042969 8.230469 2.609375 Z M 8.230469 2.609375 "/>
</g>
</svg>
