<?xml version="1.0" encoding="UTF-8"?>
<svg xmlns="http://www.w3.org/2000/svg" xmlns:xlink="http://www.w3.org/1999/xlink" width="px" height="11px" viewBox="0 0 11 11" version="1.1">
<g id="surface1">
<path style=" stroke:none;fill-rule:nonzero;fill:rgb(0%,0%,0%);fill-opacity:1;" d="M 1.03125 1.375 C 0.460938 1.375 0 1.835938 0 2.40625 C 0 2.730469 0.152344 3.035156 0.414062 3.230469 L 5.085938 6.738281 C 5.332031 6.921875 5.667969 6.921875 5.914062 6.738281 L 10.585938 3.230469 C 10.847656 3.035156 11 2.730469 11 2.40625 C 11 1.835938 10.539062 1.375 9.96875 1.375 Z M 0 3.78125 L 0 8.25 C 0 9.007812 0.617188 9.625 1.375 9.625 L 9.625 9.625 C 10.382812 9.625 11 9.007812 11 8.25 L 11 3.78125 L 6.324219 7.289062 C 5.835938 7.65625 5.164062 7.65625 4.675781 7.289062 Z M 0 3.78125 "/>
</g>
</svg>
