<?xml version="1.0" encoding="UTF-8"?>
<svg xmlns="http://www.w3.org/2000/svg" xmlns:xlink="http://www.w3.org/1999/xlink" width="px" height="11px" viewBox="0 0 11 11" version="1.1">
<g id="surface1">
<path style=" stroke:none;fill-rule:nonzero;fill:rgb(0%,0%,0%);fill-opacity:1;" d="M 5.984375 4.632812 L 0.492188 10.117188 C 0.292969 10.320312 0.292969 10.648438 0.492188 10.847656 C 0.695312 11.046875 1.023438 11.050781 1.222656 10.847656 L 2.445312 9.621094 L 3.90625 9.621094 C 4.976562 9.621094 6.011719 9.3125 6.894531 8.742188 C 7.132812 8.585938 7.011719 8.246094 6.726562 8.246094 C 6.617188 8.246094 6.527344 8.160156 6.527344 8.050781 C 6.527344 7.960938 6.585938 7.886719 6.667969 7.859375 L 8.410156 7.339844 C 8.460938 7.320312 8.511719 7.292969 8.554688 7.253906 L 9.035156 6.773438 C 9.25 6.554688 9.097656 6.183594 8.792969 6.183594 L 8.097656 6.183594 C 7.988281 6.183594 7.902344 6.097656 7.902344 5.988281 C 7.902344 5.898438 7.960938 5.824219 8.042969 5.796875 L 10.449219 5.078125 C 10.535156 5.050781 10.605469 4.992188 10.648438 4.910156 C 10.878906 4.460938 11 3.957031 11 3.4375 C 11 2.554688 10.648438 1.710938 10.027344 1.089844 L 9.910156 0.972656 C 9.289062 0.351562 8.445312 0 7.5625 0 C 6.679688 0 5.835938 0.351562 5.214844 0.972656 L 2.984375 3.203125 C 1.953125 4.234375 1.375 5.632812 1.375 7.089844 L 1.375 8.277344 L 5.449219 4.207031 C 5.582031 4.074219 5.800781 4.074219 5.933594 4.207031 C 6.050781 4.324219 6.066406 4.5 5.980469 4.632812 Z M 5.984375 4.632812 "/>
</g>
</svg>
