<?xml version="1.0" encoding="UTF-8"?>
<svg xmlns="http://www.w3.org/2000/svg" xmlns:xlink="http://www.w3.org/1999/xlink" width="px" height="11px" viewBox="0 0 11 11" version="1.1">
<g id="surface1">
<path style=" stroke:none;fill-rule:nonzero;fill:rgb(0%,0%,0%);fill-opacity:1;" d="M 0 2.0625 C 0 1.304688 0.617188 0.6875 1.375 0.6875 L 9.625 0.6875 C 10.382812 0.6875 11 1.304688 11 2.0625 L 11 8.9375 C 11 9.695312 10.382812 10.3125 9.625 10.3125 L 1.375 10.3125 C 0.617188 10.3125 0 9.695312 0 8.9375 Z M 1.03125 7.90625 L 1.03125 8.59375 C 1.03125 8.78125 1.1875 8.9375 1.375 8.9375 L 2.0625 8.9375 C 2.25 8.9375 2.40625 8.78125 2.40625 8.59375 L 2.40625 7.90625 C 2.40625 7.71875 2.25 7.5625 2.0625 7.5625 L 1.375 7.5625 C 1.1875 7.5625 1.03125 7.71875 1.03125 7.90625 Z M 8.9375 7.5625 C 8.75 7.5625 8.59375 7.71875 8.59375 7.90625 L 8.59375 8.59375 C 8.59375 8.78125 8.75 8.9375 8.9375 8.9375 L 9.625 8.9375 C 9.8125 8.9375 9.96875 8.78125 9.96875 8.59375 L 9.96875 7.90625 C 9.96875 7.71875 9.8125 7.5625 9.625 7.5625 Z M 1.03125 5.15625 L 1.03125 5.84375 C 1.03125 6.03125 1.1875 6.1875 1.375 6.1875 L 2.0625 6.1875 C 2.25 6.1875 2.40625 6.03125 2.40625 5.84375 L 2.40625 5.15625 C 2.40625 4.96875 2.25 4.8125 2.0625 4.8125 L 1.375 4.8125 C 1.1875 4.8125 1.03125 4.96875 1.03125 5.15625 Z M 8.9375 4.8125 C 8.75 4.8125 8.59375 4.96875 8.59375 5.15625 L 8.59375 5.84375 C 8.59375 6.03125 8.75 6.1875 8.9375 6.1875 L 9.625 6.1875 C 9.8125 6.1875 9.96875 6.03125 9.96875 5.84375 L 9.96875 5.15625 C 9.96875 4.96875 9.8125 4.8125 9.625 4.8125 Z M 1.03125 2.40625 L 1.03125 3.09375 C 1.03125 3.28125 1.1875 3.4375 1.375 3.4375 L 2.0625 3.4375 C 2.25 3.4375 2.40625 3.28125 2.40625 3.09375 L 2.40625 2.40625 C 2.40625 2.21875 2.25 2.0625 2.0625 2.0625 L 1.375 2.0625 C 1.1875 2.0625 1.03125 2.21875 1.03125 2.40625 Z M 8.9375 2.0625 C 8.75 2.0625 8.59375 2.21875 8.59375 2.40625 L 8.59375 3.09375 C 8.59375 3.28125 8.75 3.4375 8.9375 3.4375 L 9.625 3.4375 C 9.8125 3.4375 9.96875 3.28125 9.96875 3.09375 L 9.96875 2.40625 C 9.96875 2.21875 9.8125 2.0625 9.625 2.0625 Z M 3.4375 2.75 L 3.4375 4.125 C 3.4375 4.503906 3.746094 4.8125 4.125 4.8125 L 6.875 4.8125 C 7.253906 4.8125 7.5625 4.503906 7.5625 4.125 L 7.5625 2.75 C 7.5625 2.371094 7.253906 2.0625 6.875 2.0625 L 4.125 2.0625 C 3.746094 2.0625 3.4375 2.371094 3.4375 2.75 Z M 4.125 6.1875 C 3.746094 6.1875 3.4375 6.496094 3.4375 6.875 L 3.4375 8.25 C 3.4375 8.628906 3.746094 8.9375 4.125 8.9375 L 6.875 8.9375 C 7.253906 8.9375 7.5625 8.628906 7.5625 8.25 L 7.5625 6.875 C 7.5625 6.496094 7.253906 6.1875 6.875 6.1875 Z M 4.125 6.1875 "/>
</g>
</svg>
