<?xml version="1.0" encoding="UTF-8"?>
<svg xmlns="http://www.w3.org/2000/svg" xmlns:xlink="http://www.w3.org/1999/xlink" width="px" height="11px" viewBox="0 0 11 11" version="1.1">
<g id="surface1">
<path style=" stroke:none;fill-rule:nonzero;fill:rgb(0%,0%,0%);fill-opacity:1;" d="M 1.03125 5.5 C 1.03125 3.03125 3.03125 1.03125 5.5 1.03125 C 6.855469 1.03125 8.070312 1.636719 8.890625 2.589844 C 9.074219 2.804688 9.402344 2.828125 9.617188 2.644531 C 9.832031 2.460938 9.855469 2.132812 9.671875 1.917969 C 8.664062 0.742188 7.167969 0 5.5 0 C 2.460938 0 0 2.460938 0 5.5 L 0 6.359375 C 0 6.644531 0.230469 6.875 0.515625 6.875 C 0.800781 6.875 1.03125 6.644531 1.03125 6.359375 Z M 10.882812 4.363281 C 10.824219 4.085938 10.546875 3.90625 10.273438 3.964844 C 9.996094 4.027344 9.8125 4.300781 9.875 4.578125 C 9.9375 4.875 9.972656 5.183594 9.972656 5.503906 L 9.972656 6.363281 C 9.972656 6.648438 10.199219 6.878906 10.488281 6.878906 C 10.773438 6.878906 11.003906 6.648438 11.003906 6.363281 L 11.003906 5.503906 C 11.003906 5.113281 10.960938 4.734375 10.882812 4.367188 Z M 5.5 1.71875 C 5.09375 1.71875 4.695312 1.78125 4.328125 1.902344 C 4.003906 2.011719 3.925781 2.414062 4.152344 2.675781 C 4.304688 2.851562 4.554688 2.90625 4.78125 2.84375 C 5.011719 2.78125 5.25 2.75 5.5 2.75 C 7.019531 2.75 8.25 3.980469 8.25 5.5 L 8.25 6.035156 C 8.25 6.578125 8.21875 7.117188 8.15625 7.652344 C 8.117188 7.964844 8.359375 8.25 8.675781 8.25 C 8.929688 8.25 9.144531 8.066406 9.175781 7.8125 C 9.246094 7.226562 9.285156 6.632812 9.285156 6.039062 L 9.285156 5.503906 C 9.285156 3.414062 7.589844 1.722656 5.503906 1.722656 Z M 3.238281 3.195312 C 3.042969 2.96875 2.695312 2.949219 2.507812 3.1875 C 2.011719 3.824219 1.71875 4.628906 1.71875 5.5 L 1.71875 6.035156 C 1.71875 6.554688 1.664062 7.074219 1.550781 7.578125 C 1.476562 7.914062 1.722656 8.25 2.066406 8.25 C 2.289062 8.25 2.492188 8.101562 2.542969 7.878906 C 2.679688 7.273438 2.75 6.65625 2.75 6.035156 L 2.75 5.5 C 2.75 4.914062 2.933594 4.375 3.242188 3.929688 C 3.398438 3.707031 3.414062 3.402344 3.238281 3.195312 Z M 5.5 3.4375 C 4.359375 3.4375 3.4375 4.359375 3.4375 5.5 L 3.4375 6.035156 C 3.4375 6.804688 3.339844 7.570312 3.140625 8.3125 C 3.058594 8.621094 3.285156 8.9375 3.601562 8.9375 C 3.808594 8.9375 3.988281 8.804688 4.042969 8.605469 C 4.265625 7.769531 4.382812 6.90625 4.382812 6.035156 L 4.382812 5.5 C 4.382812 4.882812 4.882812 4.382812 5.5 4.382812 C 6.117188 4.382812 6.617188 4.882812 6.617188 5.5 L 6.617188 6.035156 C 6.617188 6.816406 6.542969 7.589844 6.394531 8.351562 C 6.335938 8.652344 6.558594 8.9375 6.863281 8.9375 C 7.082031 8.9375 7.269531 8.789062 7.3125 8.574219 C 7.480469 7.738281 7.5625 6.890625 7.5625 6.035156 L 7.5625 5.5 C 7.5625 4.363281 6.640625 3.4375 5.5 3.4375 Z M 6.015625 5.5 C 6.015625 5.214844 5.785156 4.984375 5.5 4.984375 C 5.214844 4.984375 4.984375 5.214844 4.984375 5.5 L 4.984375 6.035156 C 4.984375 7.320312 4.75 8.597656 4.285156 9.800781 L 4.160156 10.128906 C 4.054688 10.394531 4.1875 10.691406 4.457031 10.792969 C 4.722656 10.894531 5.019531 10.765625 5.121094 10.496094 L 5.25 10.167969 C 5.753906 8.847656 6.015625 7.449219 6.015625 6.035156 Z M 6.015625 5.5 "/>
</g>
</svg>
