<?xml version="1.0" encoding="UTF-8"?>
<svg xmlns="http://www.w3.org/2000/svg" xmlns:xlink="http://www.w3.org/1999/xlink" width="px" height="11px" viewBox="0 0 11 11" version="1.1">
<g id="surface1">
<path style=" stroke:none;fill-rule:nonzero;fill:rgb(0%,0%,0%);fill-opacity:1;" d="M 9.625 10.3125 L 1.375 10.3125 C 0.617188 10.3125 0 9.695312 0 8.9375 L 0 4.125 L 11 4.125 L 11 8.9375 C 11 9.695312 10.382812 10.3125 9.625 10.3125 Z M 11 3.4375 L 0 3.4375 L 0 2.0625 C 0 1.304688 0.617188 0.6875 1.375 0.6875 L 4.125 0.6875 C 4.558594 0.6875 4.964844 0.890625 5.226562 1.238281 L 5.636719 1.789062 C 5.765625 1.960938 5.96875 2.0625 6.1875 2.0625 L 9.625 2.0625 C 10.382812 2.0625 11 2.679688 11 3.4375 Z M 11 3.4375 "/>
</g>
</svg>
