<?xml version="1.0" encoding="UTF-8"?>
<svg xmlns="http://www.w3.org/2000/svg" xmlns:xlink="http://www.w3.org/1999/xlink" width="px" height="11px" viewBox="0 0 12 11" version="1.1">
<g id="surface1">
<path style=" stroke:none;fill-rule:nonzero;fill:rgb(0%,0%,0%);fill-opacity:1;" d="M 1.332031 0.6875 C 1.332031 0.308594 1.035156 0 0.667969 0 C 0.296875 0 0 0.308594 0 0.6875 L 0 8.25 C 0 9.007812 0.597656 9.625 1.332031 9.625 L 5.332031 9.625 L 5.332031 8.25 L 1.332031 8.25 L 1.332031 3.4375 L 5.332031 3.4375 L 5.332031 2.0625 L 1.332031 2.0625 Z M 6 4.125 C 6 4.503906 6.296875 4.8125 6.667969 4.8125 L 11.332031 4.8125 C 11.703125 4.8125 12 4.503906 12 4.125 L 12 1.375 C 12 0.996094 11.703125 0.6875 11.332031 0.6875 L 9.277344 0.6875 C 9.101562 0.6875 8.929688 0.613281 8.804688 0.484375 L 8.527344 0.203125 C 8.402344 0.0742188 8.234375 0 8.058594 0 L 6.667969 0 C 6.296875 0 6 0.308594 6 0.6875 Z M 6 10.3125 C 6 10.691406 6.296875 11 6.667969 11 L 11.332031 11 C 11.703125 11 12 10.691406 12 10.3125 L 12 7.5625 C 12 7.183594 11.703125 6.875 11.332031 6.875 L 9.277344 6.875 C 9.101562 6.875 8.929688 6.800781 8.804688 6.671875 L 8.527344 6.386719 C 8.402344 6.257812 8.234375 6.183594 8.058594 6.183594 L 6.667969 6.1875 C 6.296875 6.1875 6 6.496094 6 6.875 Z M 6 10.3125 "/>
</g>
</svg>
