<?xml version="1.0" encoding="UTF-8"?>
<svg xmlns="http://www.w3.org/2000/svg" xmlns:xlink="http://www.w3.org/1999/xlink" width="px" height="11px" viewBox="0 0 11 11" version="1.1">
<g id="surface1">
<path style=" stroke:none;fill-rule:nonzero;fill:rgb(0%,0%,0%);fill-opacity:1;" d="M 5.367188 0.71875 L 5.367188 1.28125 C 5.078125 1.722656 4.855469 3.613281 4.84375 5.90625 C 5.09375 5.570312 5.253906 5.191406 5.253906 4.871094 L 5.253906 4.507812 C 5.253906 4.394531 5.269531 4.28125 5.300781 4.171875 C 5.3125 4.125 5.332031 4.082031 5.355469 4.046875 C 5.382812 4.007812 5.429688 3.964844 5.5 3.964844 C 5.570312 3.964844 5.617188 4.007812 5.644531 4.046875 C 5.671875 4.082031 5.6875 4.125 5.699219 4.171875 C 5.730469 4.28125 5.746094 4.394531 5.746094 4.507812 L 5.746094 4.871094 C 5.746094 5.191406 5.90625 5.570312 6.15625 5.90625 C 6.144531 3.613281 5.921875 1.722656 5.632812 1.28125 L 5.632812 0.71875 Z M 4.800781 3.894531 C 4.597656 3.941406 4.402344 4.003906 4.210938 4.089844 C 4.402344 4.433594 4.421875 4.789062 4.25 4.890625 C 4.078125 4.988281 3.78125 4.800781 3.574219 4.464844 C 3.328125 4.652344 3.105469 4.878906 2.917969 5.132812 C 3.234375 5.339844 3.410156 5.625 3.3125 5.792969 C 3.214844 5.957031 2.882812 5.945312 2.550781 5.769531 C 2.425781 6.054688 2.339844 6.363281 2.300781 6.683594 C 2.507812 6.6875 2.699219 6.734375 2.863281 6.8125 C 3.246094 6.804688 3.566406 6.769531 3.730469 6.722656 C 3.851562 6.15625 4.226562 5.683594 4.726562 5.441406 C 4.742188 4.894531 4.769531 4.375 4.800781 3.894531 Z M 6.199219 3.894531 C 6.230469 4.375 6.257812 4.894531 6.273438 5.441406 C 6.773438 5.683594 7.148438 6.15625 7.265625 6.722656 C 7.433594 6.769531 7.753906 6.804688 8.136719 6.8125 C 8.296875 6.734375 8.492188 6.6875 8.699219 6.683594 C 8.660156 6.363281 8.574219 6.054688 8.449219 5.769531 C 8.117188 5.945312 7.785156 5.957031 7.6875 5.792969 C 7.589844 5.625 7.765625 5.339844 8.082031 5.132812 C 7.894531 4.878906 7.671875 4.652344 7.425781 4.464844 C 7.21875 4.800781 6.921875 4.988281 6.75 4.890625 C 6.578125 4.789062 6.597656 4.4375 6.789062 4.089844 C 6.597656 4.003906 6.398438 3.941406 6.199219 3.894531 Z M 5.5 4.078125 C 5.429688 4.078125 5.375 4.269531 5.371094 4.507812 L 5.367188 4.507812 L 5.367188 4.871094 C 5.367188 5.757812 4.316406 6.910156 3.359375 6.910156 C 2.242188 6.910156 0.722656 6.878906 0 7.539062 L 0 7.59375 C 0.203125 7.960938 0.441406 8.304688 0.710938 8.621094 C 0.980469 8.167969 1.820312 7.742188 3.035156 7.734375 C 4.015625 7.757812 4.730469 8.171875 4.984375 8.613281 C 5.148438 8.660156 5.324219 8.683594 5.5 8.683594 C 5.675781 8.683594 5.851562 8.660156 6.015625 8.613281 C 6.269531 8.171875 6.984375 7.757812 7.964844 7.734375 C 9.179688 7.742188 10.019531 8.167969 10.289062 8.621094 C 10.558594 8.304688 10.796875 7.960938 11 7.59375 L 11 7.539062 C 10.277344 6.878906 8.757812 6.910156 7.640625 6.910156 C 6.683594 6.910156 5.632812 5.757812 5.632812 4.871094 L 5.632812 4.507812 L 5.628906 4.507812 C 5.625 4.269531 5.570312 4.078125 5.5 4.078125 Z M 5.5 6.152344 C 5.980469 6.152344 6.371094 6.542969 6.371094 7.027344 C 6.371094 7.507812 5.980469 7.898438 5.5 7.898438 C 5.019531 7.898438 4.628906 7.507812 4.628906 7.027344 C 4.628906 6.542969 5.019531 6.152344 5.5 6.152344 Z M 5.5 6.316406 C 5.109375 6.316406 4.792969 6.636719 4.792969 7.027344 C 4.792969 7.417969 5.109375 7.734375 5.5 7.734375 C 5.890625 7.734375 6.207031 7.417969 6.207031 7.027344 C 6.207031 6.636719 5.890625 6.316406 5.5 6.316406 Z M 5.5 6.449219 C 5.816406 6.449219 6.078125 6.707031 6.078125 7.027344 C 6.078125 7.34375 5.816406 7.601562 5.5 7.601562 C 5.183594 7.601562 4.921875 7.34375 4.921875 7.027344 C 4.921875 6.707031 5.183594 6.449219 5.5 6.449219 Z M 3.035156 7.882812 C 2.816406 7.882812 2.570312 7.890625 2.378906 7.917969 C 2.386719 8.011719 2.410156 8.316406 2.53125 8.558594 C 2.726562 8.503906 2.925781 8.472656 3.125 8.472656 C 4.011719 8.492188 4.660156 9.210938 4.804688 10.074219 L 4.808594 10.175781 C 5.03125 10.214844 5.261719 10.238281 5.5 10.238281 C 5.738281 10.238281 5.96875 10.214844 6.191406 10.175781 L 6.195312 10.074219 C 6.339844 9.210938 6.988281 8.492188 7.875 8.472656 C 8.074219 8.472656 8.273438 8.503906 8.46875 8.558594 C 8.589844 8.316406 8.613281 8.011719 8.621094 7.917969 C 8.429688 7.890625 8.1875 7.882812 7.96875 7.882812 C 7.5625 7.890625 7.210938 7.972656 6.921875 8.089844 C 6.652344 8.433594 6.296875 8.734375 5.855469 8.800781 C 5.855469 8.800781 5.855469 8.800781 5.851562 8.800781 C 5.851562 8.800781 5.847656 8.800781 5.847656 8.804688 C 5.734375 8.824219 5.621094 8.835938 5.5 8.835938 C 5.382812 8.835938 5.265625 8.824219 5.152344 8.804688 C 5.152344 8.800781 5.148438 8.800781 5.148438 8.800781 C 5.148438 8.800781 5.144531 8.800781 5.144531 8.800781 C 4.703125 8.734375 4.347656 8.433594 4.078125 8.089844 C 3.789062 7.972656 3.4375 7.890625 3.035156 7.882812 Z M 3.035156 7.882812 "/>
</g>
</svg>
