<?xml version="1.0" encoding="UTF-8"?>
<svg xmlns="http://www.w3.org/2000/svg" xmlns:xlink="http://www.w3.org/1999/xlink" width="px" height="11px" viewBox="0 0 11 11" version="1.1">
<g id="surface1">
<path style=" stroke:none;fill-rule:nonzero;fill:rgb(0%,0%,0%);fill-opacity:1;" d="M 5.5 10.828125 C 2.46875 10.828125 0 8.4375 0 5.5 C 0 2.5625 2.46875 0.171875 5.5 0.171875 C 8.53125 0.171875 11 2.5625 11 5.5 C 11 8.4375 8.53125 10.828125 5.5 10.828125 Z M 5.5 0.527344 C 2.667969 0.527344 0.367188 2.757812 0.367188 5.5 C 0.367188 8.242188 2.667969 10.472656 5.5 10.472656 C 8.332031 10.472656 10.632812 8.242188 10.632812 5.5 C 10.632812 2.757812 8.332031 0.527344 5.5 0.527344 Z M 6.113281 0.996094 L 6.113281 1.523438 C 6.785156 1.621094 7.421875 1.875 7.964844 2.265625 L 8.351562 1.894531 C 7.714844 1.417969 6.949219 1.101562 6.113281 0.996094 Z M 4.882812 0.996094 C 4.050781 1.101562 3.285156 1.421875 2.648438 1.894531 L 3.03125 2.269531 C 3.566406 1.886719 4.199219 1.625 4.882812 1.523438 Z M 5.15625 2.074219 L 5.15625 3.855469 C 4.933594 3.898438 4.726562 3.984375 4.542969 4.101562 L 3.242188 2.84375 L 2.757812 3.3125 L 4.058594 4.574219 C 3.9375 4.75 3.847656 4.953125 3.804688 5.167969 L 1.964844 5.167969 L 1.964844 5.832031 L 3.804688 5.832031 C 3.847656 6.046875 3.9375 6.246094 4.058594 6.425781 L 2.757812 7.6875 L 3.242188 8.15625 L 4.542969 6.898438 C 4.730469 7.015625 4.9375 7.101562 5.15625 7.144531 L 5.15625 8.925781 L 5.84375 8.925781 L 5.84375 7.144531 C 6.066406 7.101562 6.273438 7.011719 6.457031 6.894531 L 7.757812 8.15625 L 8.242188 7.683594 L 6.941406 6.425781 C 7.0625 6.246094 7.152344 6.046875 7.199219 5.832031 L 9.035156 5.832031 L 9.035156 5.167969 L 7.199219 5.167969 C 7.152344 4.953125 7.0625 4.75 6.941406 4.574219 L 8.242188 3.3125 L 7.757812 2.839844 L 6.457031 4.101562 C 6.273438 3.984375 6.066406 3.898438 5.84375 3.855469 L 5.84375 2.074219 Z M 9.21875 2.734375 L 8.835938 3.109375 C 9.238281 3.636719 9.503906 4.253906 9.605469 4.90625 L 10.148438 4.90625 C 10.039062 4.097656 9.710938 3.351562 9.21875 2.734375 Z M 1.777344 2.738281 C 1.289062 3.355469 0.960938 4.097656 0.851562 4.90625 L 1.398438 4.90625 C 1.5 4.242188 1.769531 3.628906 2.164062 3.113281 Z M 0.851562 6.09375 C 0.960938 6.902344 1.289062 7.644531 1.777344 8.261719 L 2.164062 7.886719 C 1.765625 7.371094 1.5 6.757812 1.398438 6.09375 Z M 9.605469 6.09375 C 9.5 6.761719 9.230469 7.371094 8.835938 7.890625 L 9.21875 8.261719 C 9.710938 7.644531 10.039062 6.902344 10.148438 6.09375 Z M 3.03125 8.730469 L 2.644531 9.105469 C 3.28125 9.578125 4.050781 9.898438 4.886719 10.003906 L 4.886719 9.476562 C 4.199219 9.375 3.566406 9.113281 3.03125 8.730469 Z M 7.964844 8.730469 C 7.433594 9.113281 6.800781 9.378906 6.113281 9.476562 L 6.113281 10.003906 C 6.949219 9.898438 7.714844 9.578125 8.351562 9.105469 L 7.96875 8.730469 Z M 7.964844 8.730469 "/>
</g>
</svg>
