<?xml version="1.0" encoding="UTF-8"?>
<svg xmlns="http://www.w3.org/2000/svg" xmlns:xlink="http://www.w3.org/1999/xlink" width="px" height="11px" viewBox="0 0 11 11" version="1.1">
<g id="surface1">
<path style=" stroke:none;fill-rule:nonzero;fill:rgb(0%,0%,0%);fill-opacity:1;" d="M 10.652344 3.578125 C 10.722656 3.765625 10.664062 3.976562 10.515625 4.109375 L 9.585938 4.953125 C 9.609375 5.132812 9.621094 5.316406 9.621094 5.5 C 9.621094 5.683594 9.609375 5.867188 9.585938 6.046875 L 10.515625 6.890625 C 10.664062 7.023438 10.722656 7.234375 10.652344 7.421875 C 10.558594 7.675781 10.445312 7.921875 10.316406 8.15625 L 10.214844 8.332031 C 10.070312 8.566406 9.914062 8.792969 9.738281 9 C 9.613281 9.15625 9.402344 9.207031 9.210938 9.148438 L 8.015625 8.769531 C 7.726562 8.988281 7.410156 9.171875 7.070312 9.3125 L 6.800781 10.539062 C 6.757812 10.734375 6.609375 10.890625 6.410156 10.921875 C 6.113281 10.972656 5.808594 10.996094 5.496094 10.996094 C 5.1875 10.996094 4.882812 10.972656 4.585938 10.921875 C 4.386719 10.890625 4.238281 10.734375 4.195312 10.539062 L 3.925781 9.3125 C 3.585938 9.171875 3.269531 8.988281 2.980469 8.769531 L 1.785156 9.148438 C 1.597656 9.210938 1.386719 9.15625 1.257812 9.003906 C 1.085938 8.792969 0.925781 8.570312 0.785156 8.332031 L 0.683594 8.160156 C 0.550781 7.921875 0.4375 7.679688 0.34375 7.421875 C 0.273438 7.234375 0.332031 7.027344 0.480469 6.894531 L 1.410156 6.046875 C 1.386719 5.867188 1.375 5.683594 1.375 5.5 C 1.375 5.316406 1.386719 5.132812 1.410156 4.953125 L 0.480469 4.109375 C 0.332031 3.976562 0.273438 3.765625 0.34375 3.578125 C 0.4375 3.324219 0.550781 3.078125 0.683594 2.84375 L 0.785156 2.667969 C 0.925781 2.433594 1.085938 2.207031 1.257812 2 C 1.386719 1.84375 1.597656 1.792969 1.785156 1.851562 L 2.980469 2.230469 C 3.269531 2.011719 3.585938 1.828125 3.925781 1.6875 L 4.195312 0.460938 C 4.238281 0.265625 4.390625 0.109375 4.585938 0.078125 C 4.882812 0.0273438 5.1875 0 5.5 0 C 5.8125 0 6.117188 0.0273438 6.414062 0.0742188 C 6.609375 0.109375 6.761719 0.261719 6.804688 0.457031 L 7.074219 1.683594 C 7.414062 1.824219 7.730469 2.007812 8.019531 2.230469 L 9.214844 1.851562 C 9.402344 1.789062 9.613281 1.84375 9.742188 1.996094 C 9.914062 2.207031 10.074219 2.429688 10.214844 2.667969 L 10.316406 2.839844 C 10.449219 3.078125 10.5625 3.320312 10.65625 3.578125 Z M 5.5 7.21875 C 6.449219 7.21875 7.21875 6.449219 7.21875 5.5 C 7.21875 4.550781 6.449219 3.78125 5.5 3.78125 C 4.550781 3.78125 3.78125 4.550781 3.78125 5.5 C 3.78125 6.449219 4.550781 7.21875 5.5 7.21875 Z M 5.5 7.21875 "/>
</g>
</svg>
