<?xml version="1.0" encoding="UTF-8"?>
<svg xmlns="http://www.w3.org/2000/svg" xmlns:xlink="http://www.w3.org/1999/xlink" width="px" height="11px" viewBox="0 0 11 11" version="1.1">
<g id="surface1">
<path style=" stroke:none;fill-rule:nonzero;fill:rgb(0%,0%,0%);fill-opacity:1;" d="M 3.679688 8.539062 C 3.679688 8.582031 3.628906 8.617188 3.5625 8.617188 C 3.492188 8.621094 3.441406 8.585938 3.441406 8.539062 C 3.441406 8.496094 3.492188 8.460938 3.554688 8.460938 C 3.621094 8.453125 3.679688 8.488281 3.679688 8.539062 Z M 2.988281 8.441406 C 2.972656 8.484375 3.019531 8.535156 3.085938 8.546875 C 3.140625 8.566406 3.210938 8.546875 3.222656 8.503906 C 3.234375 8.460938 3.195312 8.410156 3.128906 8.390625 C 3.070312 8.375 3.003906 8.398438 2.988281 8.441406 Z M 3.96875 8.40625 C 3.90625 8.417969 3.859375 8.460938 3.867188 8.511719 C 3.875 8.554688 3.933594 8.582031 4 8.566406 C 4.0625 8.550781 4.105469 8.511719 4.101562 8.46875 C 4.09375 8.425781 4.035156 8.398438 3.96875 8.40625 Z M 5.429688 0.171875 C 2.351562 0.171875 0 2.433594 0 5.414062 C 0 7.796875 1.546875 9.835938 3.757812 10.554688 C 4.042969 10.601562 4.144531 10.433594 4.144531 10.292969 C 4.144531 10.160156 4.136719 9.425781 4.136719 8.972656 C 4.136719 8.972656 2.582031 9.296875 2.257812 8.332031 C 2.257812 8.332031 2.003906 7.707031 1.640625 7.546875 C 1.640625 7.546875 1.132812 7.210938 1.675781 7.214844 C 1.675781 7.214844 2.230469 7.257812 2.53125 7.769531 C 3.019531 8.601562 3.832031 8.363281 4.148438 8.21875 C 4.199219 7.875 4.34375 7.636719 4.503906 7.496094 C 3.265625 7.363281 2.015625 7.1875 2.015625 5.121094 C 2.015625 4.53125 2.183594 4.234375 2.535156 3.855469 C 2.480469 3.714844 2.289062 3.140625 2.59375 2.398438 C 3.058594 2.257812 4.125 2.976562 4.125 2.976562 C 4.570312 2.855469 5.046875 2.796875 5.519531 2.796875 C 5.988281 2.796875 6.46875 2.855469 6.910156 2.976562 C 6.910156 2.976562 7.976562 2.253906 8.441406 2.398438 C 8.746094 3.144531 8.554688 3.714844 8.5 3.855469 C 8.851562 4.238281 9.070312 4.53125 9.070312 5.121094 C 9.070312 7.195312 7.765625 7.359375 6.523438 7.496094 C 6.730469 7.664062 6.902344 7.988281 6.902344 8.492188 C 6.902344 9.214844 6.894531 10.113281 6.894531 10.289062 C 6.894531 10.429688 6.996094 10.597656 7.277344 10.546875 C 9.496094 9.835938 11 7.796875 11 5.414062 C 11 2.433594 8.503906 0.171875 5.429688 0.171875 Z M 2.15625 7.582031 C 2.125 7.601562 2.132812 7.652344 2.171875 7.695312 C 2.207031 7.726562 2.257812 7.742188 2.285156 7.714844 C 2.316406 7.695312 2.308594 7.644531 2.269531 7.601562 C 2.234375 7.570312 2.183594 7.554688 2.15625 7.582031 Z M 1.917969 7.40625 C 1.902344 7.4375 1.921875 7.46875 1.96875 7.492188 C 2.003906 7.511719 2.046875 7.507812 2.0625 7.476562 C 2.078125 7.449219 2.054688 7.414062 2.011719 7.394531 C 1.96875 7.378906 1.933594 7.386719 1.917969 7.40625 Z M 2.632812 8.171875 C 2.597656 8.199219 2.613281 8.265625 2.664062 8.304688 C 2.714844 8.355469 2.777344 8.363281 2.808594 8.328125 C 2.835938 8.300781 2.824219 8.234375 2.777344 8.195312 C 2.730469 8.144531 2.664062 8.136719 2.632812 8.171875 Z M 2.382812 7.855469 C 2.347656 7.878906 2.347656 7.933594 2.382812 7.984375 C 2.417969 8.03125 2.476562 8.054688 2.507812 8.03125 C 2.542969 8.003906 2.542969 7.949219 2.507812 7.898438 C 2.476562 7.851562 2.417969 7.828125 2.382812 7.855469 Z M 2.382812 7.855469 "/>
</g>
</svg>
