<?xml version="1.0" encoding="UTF-8"?>
<svg xmlns="http://www.w3.org/2000/svg" xmlns:xlink="http://www.w3.org/1999/xlink" width="px" height="11px" viewBox="0 0 10 11" version="1.1">
<g id="surface1">
<path style=" stroke:none;fill-rule:nonzero;fill:rgb(0%,0%,0%);fill-opacity:1;" d="M 4.046875 0.695312 C 4.433594 0.757812 4.699219 1.113281 4.632812 1.488281 L 4.414062 2.75 L 6.539062 2.75 L 6.792969 1.261719 C 6.859375 0.886719 7.226562 0.632812 7.617188 0.695312 C 8.003906 0.757812 8.269531 1.113281 8.203125 1.488281 L 7.988281 2.75 L 9.285156 2.75 C 9.679688 2.75 10 3.058594 10 3.4375 C 10 3.816406 9.679688 4.125 9.285156 4.125 L 7.746094 4.125 L 7.273438 6.875 L 8.570312 6.875 C 8.964844 6.875 9.285156 7.183594 9.285156 7.5625 C 9.285156 7.941406 8.964844 8.25 8.570312 8.25 L 7.035156 8.25 L 6.777344 9.738281 C 6.710938 10.113281 6.34375 10.367188 5.957031 10.304688 C 5.566406 10.242188 5.304688 9.886719 5.367188 9.511719 L 5.585938 8.253906 L 3.464844 8.253906 L 3.207031 9.742188 C 3.144531 10.113281 2.773438 10.367188 2.386719 10.304688 C 1.996094 10.242188 1.734375 9.890625 1.800781 9.515625 L 2.011719 8.25 L 0.714844 8.25 C 0.320312 8.25 0 7.941406 0 7.5625 C 0 7.183594 0.320312 6.875 0.714844 6.875 L 2.253906 6.875 L 2.726562 4.125 L 1.429688 4.125 C 1.035156 4.125 0.714844 3.816406 0.714844 3.4375 C 0.714844 3.058594 1.035156 2.75 1.429688 2.75 L 2.964844 2.75 L 3.222656 1.261719 C 3.289062 0.886719 3.65625 0.632812 4.042969 0.695312 Z M 4.175781 4.125 L 3.699219 6.875 L 5.824219 6.875 L 6.300781 4.125 Z M 4.175781 4.125 "/>
</g>
</svg>
