<?xml version="1.0" encoding="UTF-8"?>
<svg xmlns="http://www.w3.org/2000/svg" xmlns:xlink="http://www.w3.org/1999/xlink" width="px" height="11px" viewBox="0 0 11 11" version="1.1">
<g id="surface1">
<path style=" stroke:none;fill-rule:nonzero;fill:rgb(0%,0%,0%);fill-opacity:1;" d="M 4.90625 10.078125 L 1.023438 6.453125 C 0.933594 6.371094 0.847656 6.28125 0.765625 6.1875 L 2.636719 6.1875 C 3.121094 6.1875 3.558594 5.894531 3.746094 5.445312 L 3.972656 4.90625 L 5.03125 7.257812 C 5.113281 7.441406 5.292969 7.558594 5.492188 7.558594 C 5.691406 7.5625 5.875 7.453125 5.964844 7.273438 L 6.875 5.449219 L 6.910156 5.523438 C 7.117188 5.933594 7.53125 6.191406 7.988281 6.191406 L 10.234375 6.191406 C 10.152344 6.28125 10.066406 6.371094 9.976562 6.457031 L 6.09375 10.078125 C 5.933594 10.230469 5.722656 10.3125 5.5 10.3125 C 5.277344 10.3125 5.066406 10.230469 4.90625 10.078125 Z M 10.820312 5.15625 L 7.984375 5.15625 C 7.921875 5.15625 7.859375 5.121094 7.832031 5.0625 L 7.332031 4.066406 C 7.246094 3.894531 7.066406 3.78125 6.871094 3.78125 C 6.675781 3.78125 6.496094 3.890625 6.410156 4.066406 L 5.519531 5.847656 L 4.421875 3.398438 C 4.339844 3.210938 4.152344 3.089844 3.945312 3.097656 C 3.742188 3.101562 3.558594 3.222656 3.476562 3.414062 L 2.796875 5.054688 C 2.769531 5.117188 2.703125 5.160156 2.636719 5.160156 L 0.34375 5.15625 C 0.289062 5.15625 0.234375 5.164062 0.1875 5.179688 C 0.0625 4.839844 0 4.472656 0 4.101562 L 0 3.976562 C 0 2.476562 1.085938 1.195312 2.566406 0.949219 C 3.546875 0.785156 4.542969 1.105469 5.242188 1.804688 L 5.5 2.0625 L 5.757812 1.804688 C 6.457031 1.105469 7.453125 0.785156 8.433594 0.949219 C 9.914062 1.195312 11 2.476562 11 3.976562 L 11 4.101562 C 11 4.464844 10.941406 4.820312 10.820312 5.15625 Z M 10.820312 5.15625 "/>
</g>
</svg>
