<?xml version="1.0" encoding="UTF-8"?>
<svg xmlns="http://www.w3.org/2000/svg" xmlns:xlink="http://www.w3.org/1999/xlink" width="px" height="11px" viewBox="0 0 12 11" version="1.1">
<g id="surface1">
<path style=" stroke:none;fill-rule:nonzero;fill:rgb(0%,0%,0%);fill-opacity:1;" d="M 11.996094 5.488281 C 11.996094 5.875 11.683594 6.179688 11.328125 6.179688 L 10.664062 6.179688 L 10.675781 9.621094 C 10.675781 9.679688 10.671875 9.738281 10.667969 9.792969 L 10.667969 10.144531 C 10.667969 10.617188 10.292969 11.003906 9.832031 11.003906 L 9.5 11.003906 C 9.476562 11.003906 9.453125 11.003906 9.429688 11 C 9.402344 11.003906 9.371094 11.003906 9.34375 11.003906 L 8.667969 11 L 8.167969 11 C 7.707031 11 7.332031 10.617188 7.332031 10.140625 L 7.332031 8.25 C 7.332031 7.871094 7.035156 7.5625 6.667969 7.5625 L 5.332031 7.5625 C 4.964844 7.5625 4.667969 7.871094 4.667969 8.25 L 4.667969 10.140625 C 4.667969 10.617188 4.292969 11 3.832031 11 L 2.667969 11 C 2.636719 11 2.605469 10.996094 2.574219 10.996094 C 2.550781 10.996094 2.523438 11 2.5 11 L 2.167969 11 C 1.707031 11 1.332031 10.617188 1.332031 10.140625 L 1.332031 7.734375 C 1.332031 7.714844 1.332031 7.695312 1.335938 7.675781 L 1.335938 6.175781 L 0.667969 6.175781 C 0.292969 6.175781 0.00390625 5.875 0.00390625 5.488281 C 0.00390625 5.292969 0.0664062 5.121094 0.210938 4.972656 L 5.550781 0.171875 C 5.695312 0.0234375 5.863281 0 6.007812 0 C 6.152344 0 6.320312 0.0429688 6.445312 0.148438 L 11.765625 4.972656 C 11.933594 5.125 12.015625 5.296875 11.996094 5.488281 Z M 11.996094 5.488281 "/>
</g>
</svg>
