<?xml version="1.0" encoding="UTF-8"?>
<svg xmlns="http://www.w3.org/2000/svg" xmlns:xlink="http://www.w3.org/1999/xlink" width="px" height="11px" viewBox="0 0 12 11" version="1.1">
<g id="surface1">
<path style=" stroke:none;fill-rule:nonzero;fill:rgb(0%,0%,0%);fill-opacity:1;" d="M 11.328125 6.179688 C 11.683594 6.179688 11.996094 5.878906 11.996094 5.488281 C 12.015625 5.296875 11.933594 5.125 11.765625 4.972656 L 10.667969 3.976562 L 10.667969 1.375 C 10.667969 0.996094 10.367188 0.6875 10 0.6875 L 9.332031 0.6875 C 8.964844 0.6875 8.667969 0.996094 8.667969 1.375 L 8.667969 2.164062 L 6.449219 0.148438 C 6.324219 0.0429688 6.15625 0 6.011719 0 C 5.863281 0 5.699219 0.0234375 5.550781 0.171875 L 0.207031 4.972656 C 0.0625 5.125 0 5.296875 0 5.488281 C 0 5.875 0.292969 6.179688 0.667969 6.179688 L 1.332031 6.179688 L 1.332031 7.675781 C 1.332031 7.695312 1.332031 7.714844 1.332031 7.738281 L 1.332031 10.144531 C 1.332031 10.617188 1.703125 11.003906 2.164062 11.003906 L 2.496094 11.003906 C 2.523438 11.003906 2.546875 11 2.574219 10.996094 C 2.605469 11 2.636719 11.003906 2.667969 11.003906 L 3.832031 11.003906 C 4.292969 11.003906 4.664062 10.617188 4.664062 10.144531 L 4.664062 8.253906 C 4.664062 7.871094 4.960938 7.566406 5.332031 7.566406 L 6.664062 7.566406 C 7.035156 7.566406 7.332031 7.871094 7.332031 8.253906 L 7.332031 10.144531 C 7.332031 10.617188 7.703125 11.003906 8.164062 11.003906 L 9.339844 11.003906 C 9.371094 11.003906 9.398438 11.003906 9.429688 11 C 9.453125 11.003906 9.476562 11.003906 9.496094 11.003906 L 9.832031 11.003906 C 10.292969 11.003906 10.664062 10.617188 10.664062 10.144531 L 10.664062 9.792969 C 10.671875 9.738281 10.675781 9.679688 10.675781 9.621094 L 10.660156 6.179688 Z M 11.328125 6.179688 "/>
</g>
</svg>
