<?xml version="1.0" encoding="UTF-8"?>
<svg xmlns="http://www.w3.org/2000/svg" xmlns:xlink="http://www.w3.org/1999/xlink" width="px" height="11px" viewBox="0 0 12 11" version="1.1">
<g id="surface1">
<path style=" stroke:none;fill-rule:nonzero;fill:rgb(0%,0%,0%);fill-opacity:1;" d="M 11.328125 6.179688 C 11.683594 6.179688 11.996094 5.878906 11.996094 5.488281 C 12.015625 5.296875 11.933594 5.125 11.765625 4.972656 L 10.667969 3.976562 L 10.667969 1.375 C 10.667969 0.996094 10.367188 0.6875 10 0.6875 L 9.332031 0.6875 C 8.964844 0.6875 8.667969 0.996094 8.667969 1.375 L 8.667969 2.164062 L 6.449219 0.148438 C 6.324219 0.0429688 6.15625 0 6.011719 0 C 5.863281 0 5.699219 0.0234375 5.550781 0.171875 L 0.207031 4.972656 C 0.0625 5.125 0 5.296875 0 5.488281 C 0 5.875 0.292969 6.179688 0.667969 6.179688 L 1.332031 6.179688 L 1.332031 9.625 C 1.332031 10.382812 1.929688 11 2.667969 11 L 9.339844 11 C 10.082031 11 10.679688 10.382812 10.675781 9.617188 L 10.660156 6.175781 L 11.328125 6.175781 Z M 6 3.4375 C 6.738281 3.4375 7.332031 4.054688 7.332031 4.8125 C 7.332031 5.570312 6.738281 6.1875 6 6.1875 C 5.261719 6.1875 4.667969 5.570312 4.667969 4.8125 C 4.667969 4.054688 5.261719 3.4375 6 3.4375 Z M 3.667969 8.59375 C 3.667969 7.644531 4.414062 6.875 5.332031 6.875 L 6.667969 6.875 C 7.585938 6.875 8.332031 7.644531 8.332031 8.59375 C 8.332031 8.78125 8.183594 8.9375 8 8.9375 L 4 8.9375 C 3.816406 8.9375 3.667969 8.78125 3.667969 8.59375 Z M 3.667969 8.59375 "/>
</g>
</svg>
