<?xml version="1.0" encoding="UTF-8"?>
<svg xmlns="http://www.w3.org/2000/svg" xmlns:xlink="http://www.w3.org/1999/xlink" width="px" height="11px" viewBox="0 0 12 11" version="1.1">
<g id="surface1">
<path style=" stroke:none;fill-rule:nonzero;fill:rgb(0%,0%,0%);fill-opacity:1;" d="M 0 2.0625 L 12 2.0625 C 12 1.304688 11.402344 0.6875 10.667969 0.6875 L 1.332031 0.6875 C 0.597656 0.6875 0 1.304688 0 2.0625 Z M 0 2.75 L 0 8.9375 C 0 9.695312 0.597656 10.3125 1.332031 10.3125 L 10.667969 10.3125 C 11.402344 10.3125 12 9.695312 12 8.9375 L 12 2.75 Z M 1.332031 8.707031 C 1.332031 8.074219 1.832031 7.5625 2.445312 7.5625 L 4.886719 7.5625 C 5.503906 7.5625 5.996094 8.074219 5.996094 8.707031 C 5.996094 8.835938 5.898438 8.9375 5.773438 8.9375 L 1.554688 8.9375 C 1.433594 8.9375 1.332031 8.835938 1.332031 8.707031 Z M 3.667969 4.125 C 4.402344 4.125 5 4.742188 5 5.5 C 5 6.257812 4.402344 6.875 3.667969 6.875 C 2.929688 6.875 2.332031 6.257812 2.332031 5.5 C 2.332031 4.742188 2.929688 4.125 3.667969 4.125 Z M 7.332031 4.46875 C 7.332031 4.28125 7.484375 4.125 7.667969 4.125 L 10.332031 4.125 C 10.515625 4.125 10.667969 4.28125 10.667969 4.46875 C 10.667969 4.65625 10.515625 4.8125 10.332031 4.8125 L 7.667969 4.8125 C 7.484375 4.8125 7.332031 4.65625 7.332031 4.46875 Z M 7.332031 5.84375 C 7.332031 5.65625 7.484375 5.5 7.667969 5.5 L 10.332031 5.5 C 10.515625 5.5 10.667969 5.65625 10.667969 5.84375 C 10.667969 6.03125 10.515625 6.1875 10.332031 6.1875 L 7.667969 6.1875 C 7.484375 6.1875 7.332031 6.03125 7.332031 5.84375 Z M 7.332031 7.21875 C 7.332031 7.03125 7.484375 6.875 7.667969 6.875 L 10.332031 6.875 C 10.515625 6.875 10.667969 7.03125 10.667969 7.21875 C 10.667969 7.40625 10.515625 7.5625 10.332031 7.5625 L 7.667969 7.5625 C 7.484375 7.5625 7.332031 7.40625 7.332031 7.21875 Z M 7.332031 7.21875 "/>
</g>
</svg>
