<?xml version="1.0" encoding="UTF-8"?>
<svg xmlns="http://www.w3.org/2000/svg" xmlns:xlink="http://www.w3.org/1999/xlink" width="px" height="11px" viewBox="0 0 11 11" version="1.1">
<g id="surface1">
<path style=" stroke:none;fill-rule:nonzero;fill:rgb(0%,0%,0%);fill-opacity:1;" d="M 0 2.0625 C 0 1.304688 0.617188 0.6875 1.375 0.6875 L 9.625 0.6875 C 10.382812 0.6875 11 1.304688 11 2.0625 L 11 8.9375 C 11 9.695312 10.382812 10.3125 9.625 10.3125 L 1.375 10.3125 C 0.617188 10.3125 0 9.695312 0 8.9375 Z M 6.957031 4.351562 C 6.859375 4.207031 6.699219 4.125 6.53125 4.125 C 6.363281 4.125 6.199219 4.207031 6.105469 4.351562 L 4.238281 7.09375 L 3.667969 6.382812 C 3.570312 6.257812 3.421875 6.1875 3.265625 6.1875 C 3.109375 6.1875 2.960938 6.257812 2.863281 6.382812 L 1.488281 8.101562 C 1.363281 8.253906 1.339844 8.46875 1.425781 8.644531 C 1.511719 8.824219 1.691406 8.9375 1.890625 8.9375 L 9.109375 8.9375 C 9.300781 8.9375 9.476562 8.832031 9.566406 8.664062 C 9.652344 8.492188 9.640625 8.289062 9.535156 8.132812 Z M 2.40625 4.125 C 2.976562 4.125 3.4375 3.664062 3.4375 3.09375 C 3.4375 2.523438 2.976562 2.0625 2.40625 2.0625 C 1.835938 2.0625 1.375 2.523438 1.375 3.09375 C 1.375 3.664062 1.835938 4.125 2.40625 4.125 Z M 2.40625 4.125 "/>
</g>
</svg>
