<?xml version="1.0" encoding="UTF-8"?>
<svg xmlns="http://www.w3.org/2000/svg" xmlns:xlink="http://www.w3.org/1999/xlink" width="px" height="11px" viewBox="0 0 11 11" version="1.1">
<g id="surface1">
<path style=" stroke:none;fill-rule:nonzero;fill:rgb(0%,0%,0%);fill-opacity:1;" d="M 2.601562 0.6875 C 1.96875 0.6875 1.417969 1.117188 1.265625 1.730469 L 0.0390625 6.625 C 0.0117188 6.734375 0 6.847656 0 6.957031 L 0 8.9375 C 0 9.695312 0.617188 10.3125 1.375 10.3125 L 9.625 10.3125 C 10.382812 10.3125 11 9.695312 11 8.9375 L 11 6.957031 C 11 6.847656 10.988281 6.734375 10.960938 6.625 L 9.734375 1.730469 C 9.582031 1.117188 9.03125 0.6875 8.398438 0.6875 Z M 2.601562 2.0625 L 8.398438 2.0625 L 9.429688 6.1875 L 8.332031 6.1875 C 8.070312 6.1875 7.832031 6.332031 7.71875 6.566406 L 7.410156 7.183594 C 7.292969 7.414062 7.054688 7.5625 6.796875 7.5625 L 4.207031 7.5625 C 3.949219 7.5625 3.710938 7.417969 3.59375 7.183594 L 3.285156 6.566406 C 3.171875 6.335938 2.933594 6.1875 2.671875 6.1875 L 1.570312 6.1875 Z M 2.601562 2.0625 "/>
</g>
</svg>
