<?xml version="1.0" encoding="UTF-8"?>
<svg xmlns="http://www.w3.org/2000/svg" xmlns:xlink="http://www.w3.org/1999/xlink" width="px" height="11px" viewBox="0 0 8 10" version="1.1">
<g id="surface1">
<path style=" stroke:none;fill-rule:nonzero;fill:rgb(0%,0%,0%);fill-opacity:1;" d="M 5.785156 6.109375 C 5.992188 5.980469 6.273438 5.867188 6.273438 5.867188 C 6.273438 5.867188 5.46875 6.003906 4.664062 6.066406 C 3.683594 6.140625 2.628906 6.15625 2.101562 6.09375 C 0.847656 5.9375 2.789062 5.503906 2.789062 5.503906 C 2.789062 5.503906 2.035156 5.457031 1.109375 5.875 C 0.015625 6.371094 3.816406 6.597656 5.785156 6.109375 Z M 4.007812 5.484375 C 3.609375 4.648438 2.277344 3.917969 4.007812 2.636719 C 6.167969 1.039062 5.058594 0 5.058594 0 C 5.507812 1.648438 3.484375 2.148438 2.753906 3.175781 C 2.253906 3.875 2.996094 4.628906 4.007812 5.484375 Z M 6.394531 2.042969 C 6.398438 2.042969 2.746094 2.898438 4.488281 4.78125 C 5.003906 5.335938 4.351562 5.835938 4.351562 5.835938 C 4.351562 5.835938 5.660156 5.203125 5.058594 4.410156 C 4.5 3.671875 4.070312 3.304688 6.394531 2.042969 Z M 6.265625 7.324219 C 6.257812 7.34375 6.242188 7.363281 6.226562 7.375 C 8.898438 6.71875 7.914062 5.054688 6.636719 5.476562 C 6.570312 5.5 6.507812 5.542969 6.46875 5.601562 C 6.542969 5.574219 6.617188 5.554688 6.695312 5.539062 C 7.34375 5.414062 8.269531 6.351562 6.265625 7.328125 Z M 7.25 8.542969 C 7.25 8.542969 7.550781 8.773438 6.917969 8.957031 C 5.710938 9.296875 1.902344 9.402344 0.84375 8.96875 C 0.460938 8.816406 1.175781 8.601562 1.402344 8.554688 C 1.636719 8.507812 1.769531 8.515625 1.769531 8.515625 C 1.347656 8.234375 -0.964844 9.0625 0.597656 9.300781 C 4.851562 9.949219 8.355469 9.007812 7.25 8.542969 Z M 2.59375 7.734375 C 0.953125 8.164062 3.589844 9.050781 5.679688 8.210938 C 5.472656 8.140625 5.277344 8.046875 5.089844 7.945312 C 4.160156 8.109375 3.726562 8.121094 2.882812 8.03125 C 2.183594 7.957031 2.59375 7.734375 2.59375 7.734375 Z M 6.339844 9.632812 C 4.699219 9.921875 2.675781 9.890625 1.476562 9.703125 C 1.476562 9.703125 1.722656 9.890625 2.984375 9.96875 C 4.90625 10.085938 7.855469 9.90625 7.925781 9.054688 C 7.925781 9.054688 7.792969 9.375 6.339844 9.632812 Z M 5.429688 6.894531 C 4.195312 7.117188 3.480469 7.109375 2.578125 7.023438 C 1.882812 6.953125 2.339844 6.640625 2.339844 6.640625 C 0.53125 7.203125 3.34375 7.835938 5.871094 7.144531 C 5.707031 7.089844 5.554688 7.003906 5.429688 6.894531 Z M 5.429688 6.894531 "/>
</g>
</svg>
