<?xml version="1.0" encoding="UTF-8"?>
<svg xmlns="http://www.w3.org/2000/svg" xmlns:xlink="http://www.w3.org/1999/xlink" width="px" height="11px" viewBox="0 0 10 11" version="1.1">
<g id="surface1">
<path style=" stroke:none;fill-rule:nonzero;fill:rgb(0%,0%,0%);fill-opacity:1;" d="M 8.894531 8.027344 C 11.035156 5.402344 9.277344 3.019531 9.277344 3.019531 C 10.292969 4.863281 8.355469 6.679688 8.355469 6.679688 C 10.699219 2.996094 7.003906 0.847656 7.003906 0.847656 C 9.167969 2.410156 6.777344 4.945312 6.777344 4.945312 C 8.695312 8.347656 5.246094 9.890625 5.246094 9.890625 C 5.246094 9.890625 5.238281 9.527344 5.199219 8.046875 C 5.292969 8.144531 5.96875 8.824219 5.96875 8.824219 L 5.429688 7.808594 L 6.824219 7.613281 L 5.429688 7.417969 L 5.878906 6.222656 L 5.179688 7.210938 C 5.128906 5.324219 5.003906 0.65625 5.003906 0.617188 L 5.003906 0.566406 L 5.003906 0.585938 L 5.003906 0.566406 L 5.003906 0.617188 C 5.003906 0.636719 4.878906 5.320312 4.824219 7.210938 L 4.125 6.222656 L 4.574219 7.417969 L 3.179688 7.613281 L 4.574219 7.808594 L 4.035156 8.824219 L 4.804688 8.046875 C 4.765625 9.527344 4.757812 9.890625 4.757812 9.890625 C 4.757812 9.890625 1.308594 8.347656 3.226562 4.945312 C 3.226562 4.945312 0.835938 2.410156 3 0.847656 C 3 0.847656 -0.695312 2.996094 1.648438 6.679688 C 1.648438 6.679688 -0.289062 4.859375 0.726562 3.019531 C 0.726562 3.019531 -1.03125 5.402344 1.109375 8.027344 C 1.109375 8.027344 0.523438 7.679688 0.0078125 6.355469 C 0.0078125 6.355469 0.382812 10.296875 4.960938 10.347656 L 5.054688 10.347656 C 9.628906 10.296875 10.007812 6.355469 10.007812 6.355469 C 9.480469 7.679688 8.894531 8.027344 8.894531 8.027344 Z M 8.894531 8.027344 "/>
</g>
</svg>
