<?xml version="1.0" encoding="UTF-8"?>
<svg xmlns="http://www.w3.org/2000/svg" xmlns:xlink="http://www.w3.org/1999/xlink" width="px" height="11px" viewBox="0 0 10 11" version="1.1">
<g id="surface1">
<path style=" stroke:none;fill-rule:nonzero;fill:rgb(0%,0%,0%);fill-opacity:1;" d="M 0 0.6875 L 0 10.3125 L 10 10.3125 L 10 0.6875 Z M 5.441406 8.195312 C 5.441406 9.132812 4.871094 9.558594 4.039062 9.558594 C 3.285156 9.558594 2.851562 9.183594 2.628906 8.730469 L 3.394531 8.285156 C 3.539062 8.539062 3.675781 8.75 3.996094 8.75 C 4.304688 8.75 4.503906 8.632812 4.503906 8.179688 L 4.503906 5.105469 L 5.441406 5.105469 Z M 7.664062 9.558594 C 6.792969 9.558594 6.226562 9.160156 5.953125 8.632812 L 6.71875 8.210938 C 6.917969 8.523438 7.183594 8.757812 7.644531 8.757812 C 8.035156 8.757812 8.285156 8.570312 8.285156 8.3125 C 8.285156 8.003906 8.027344 7.894531 7.597656 7.710938 L 7.363281 7.613281 C 6.683594 7.335938 6.238281 6.988281 6.238281 6.25 C 6.238281 5.570312 6.773438 5.054688 7.613281 5.054688 C 8.210938 5.054688 8.636719 5.253906 8.945312 5.78125 L 8.214844 6.230469 C 8.054688 5.953125 7.878906 5.84375 7.609375 5.84375 C 7.335938 5.84375 7.160156 6.011719 7.160156 6.230469 C 7.160156 6.5 7.335938 6.609375 7.738281 6.78125 L 7.972656 6.878906 C 8.773438 7.207031 9.222656 7.542969 9.222656 8.300781 C 9.222656 9.113281 8.554688 9.558594 7.664062 9.558594 Z M 7.664062 9.558594 "/>
</g>
</svg>
