<?xml version="1.0" encoding="UTF-8"?>
<svg xmlns="http://www.w3.org/2000/svg" xmlns:xlink="http://www.w3.org/1999/xlink" width="px" height="11px" viewBox="0 0 11 11" version="1.1">
<g id="surface1">
<path style=" stroke:none;fill-rule:nonzero;fill:rgb(0%,0%,0%);fill-opacity:1;" d="M 5.84375 2.0625 C 4.15625 2.0625 2.726562 3.167969 2.242188 4.695312 C 2.960938 4.328125 3.777344 4.125 4.640625 4.125 L 6.53125 4.125 C 6.71875 4.125 6.875 4.28125 6.875 4.46875 C 6.875 4.65625 6.71875 4.8125 6.53125 4.8125 L 4.640625 4.8125 C 4.285156 4.8125 3.9375 4.851562 3.601562 4.929688 C 3.046875 5.054688 2.53125 5.28125 2.070312 5.589844 C 0.824219 6.417969 0 7.839844 0 9.453125 L 0 9.796875 C 0 10.082031 0.230469 10.3125 0.515625 10.3125 C 0.800781 10.3125 1.03125 10.082031 1.03125 9.796875 L 1.03125 9.453125 C 1.03125 8.40625 1.476562 7.464844 2.1875 6.804688 C 2.613281 8.429688 4.089844 9.625 5.84375 9.625 L 5.867188 9.625 C 8.703125 9.609375 11 6.8125 11 3.363281 C 11 2.449219 10.839844 1.578125 10.546875 0.796875 C 10.492188 0.648438 10.273438 0.652344 10.199219 0.792969 C 9.792969 1.550781 8.996094 2.0625 8.078125 2.0625 Z M 5.84375 2.0625 "/>
</g>
</svg>
