<?xml version="1.0" encoding="UTF-8"?>
<svg xmlns="http://www.w3.org/2000/svg" xmlns:xlink="http://www.w3.org/1999/xlink" width="13px" height="10px" viewBox="0 0 12 10" version="1.1">
<g id="surface1">
<path style=" stroke:none;fill-rule:nonzero;fill:rgb(0%,0%,0%);fill-opacity:1;" d="M 10.871094 5.226562 C 11.929688 4.125 11.929688 2.335938 10.871094 1.234375 C 9.933594 0.257812 8.457031 0.128906 7.378906 0.933594 L 7.347656 0.953125 C 7.078125 1.15625 7.015625 1.546875 7.210938 1.828125 C 7.402344 2.105469 7.777344 2.171875 8.046875 1.96875 L 8.074219 1.949219 C 8.675781 1.5 9.5 1.574219 10.023438 2.117188 C 10.613281 2.734375 10.613281 3.726562 10.023438 4.34375 L 7.917969 6.539062 C 7.328125 7.15625 6.371094 7.15625 5.78125 6.539062 C 5.257812 5.996094 5.191406 5.136719 5.621094 4.511719 L 5.640625 4.480469 C 5.832031 4.199219 5.769531 3.808594 5.5 3.609375 C 5.234375 3.410156 4.855469 3.476562 4.664062 3.753906 L 4.644531 3.785156 C 3.871094 4.90625 3.992188 6.445312 4.929688 7.421875 C 5.992188 8.523438 7.707031 8.523438 8.765625 7.421875 Z M 1.128906 4.773438 C 0.0703125 5.875 0.0703125 7.664062 1.128906 8.765625 C 2.066406 9.742188 3.542969 9.867188 4.621094 9.066406 L 4.652344 9.046875 C 4.921875 8.84375 4.984375 8.453125 4.789062 8.171875 C 4.597656 7.894531 4.222656 7.828125 3.953125 8.03125 L 3.925781 8.050781 C 3.324219 8.5 2.5 8.429688 1.976562 7.882812 C 1.386719 7.265625 1.386719 6.269531 1.976562 5.65625 L 4.082031 3.460938 C 4.671875 2.84375 5.628906 2.84375 6.21875 3.460938 C 6.742188 4.007812 6.808594 4.863281 6.378906 5.492188 L 6.359375 5.523438 C 6.167969 5.804688 6.230469 6.195312 6.5 6.394531 C 6.765625 6.59375 7.144531 6.527344 7.335938 6.25 L 7.355469 6.21875 C 8.128906 5.09375 8.007812 3.554688 7.070312 2.578125 C 6.007812 1.476562 4.292969 1.476562 3.234375 2.578125 Z M 1.128906 4.773438 "/>
</g>
</svg>
