<?xml version="1.0" encoding="UTF-8"?>
<svg xmlns="http://www.w3.org/2000/svg" xmlns:xlink="http://www.w3.org/1999/xlink" width="px" height="11px" viewBox="0 0 10 11" version="1.1">
<g id="surface1">
<path style=" stroke:none;fill-rule:nonzero;fill:rgb(0%,0%,0%);fill-opacity:1;" d="M 4.929688 2.648438 C 4.949219 2.660156 4.96875 2.6875 4.996094 2.6875 C 5.019531 2.6875 5.058594 2.675781 5.058594 2.652344 C 5.066406 2.625 5.019531 2.605469 4.988281 2.589844 C 4.949219 2.574219 4.902344 2.570312 4.867188 2.589844 C 4.855469 2.59375 4.847656 2.605469 4.851562 2.613281 C 4.859375 2.640625 4.902344 2.636719 4.929688 2.648438 Z M 4.441406 2.6875 C 4.464844 2.6875 4.484375 2.660156 4.507812 2.648438 C 4.53125 2.636719 4.574219 2.640625 4.585938 2.613281 C 4.589844 2.605469 4.582031 2.59375 4.570312 2.589844 C 4.535156 2.570312 4.488281 2.578125 4.449219 2.59375 C 4.417969 2.605469 4.371094 2.625 4.378906 2.65625 C 4.378906 2.675781 4.417969 2.6875 4.441406 2.6875 Z M 9.375 8.675781 C 9.292969 8.589844 9.257812 8.425781 9.214844 8.253906 C 9.175781 8.078125 9.128906 7.890625 8.980469 7.769531 C 8.949219 7.746094 8.921875 7.726562 8.890625 7.707031 C 8.863281 7.691406 8.832031 7.675781 8.800781 7.664062 C 9.003906 7.078125 8.925781 6.496094 8.714844 5.964844 C 8.460938 5.320312 8.019531 4.753906 7.679688 4.367188 C 7.296875 3.90625 6.925781 3.46875 6.933594 2.820312 C 6.945312 1.835938 7.046875 0.00390625 5.242188 0 C 2.957031 -0.00390625 3.527344 2.222656 3.503906 2.90625 C 3.464844 3.40625 3.359375 3.804688 3 4.292969 C 2.578125 4.777344 1.984375 5.558594 1.703125 6.371094 C 1.570312 6.757812 1.507812 7.148438 1.566406 7.515625 C 1.417969 7.640625 1.308594 7.832031 1.195312 7.953125 C 1.101562 8.042969 0.964844 8.078125 0.816406 8.128906 C 0.664062 8.179688 0.503906 8.257812 0.402344 8.441406 C 0.355469 8.523438 0.339844 8.617188 0.339844 8.707031 C 0.339844 8.792969 0.351562 8.878906 0.367188 8.960938 C 0.394531 9.136719 0.421875 9.296875 0.382812 9.40625 C 0.269531 9.71875 0.253906 9.933594 0.335938 10.089844 C 0.417969 10.246094 0.589844 10.316406 0.785156 10.351562 C 1.167969 10.429688 1.695312 10.410156 2.105469 10.621094 C 2.550781 10.84375 2.996094 10.925781 3.355469 10.84375 C 3.613281 10.789062 3.824219 10.640625 3.933594 10.410156 C 4.210938 10.410156 4.519531 10.296875 5.011719 10.269531 C 5.34375 10.242188 5.761719 10.382812 6.242188 10.359375 C 6.253906 10.40625 6.273438 10.457031 6.296875 10.5 L 6.296875 10.503906 C 6.480469 10.863281 6.828125 11.027344 7.195312 10.996094 C 7.566406 10.96875 7.957031 10.761719 8.273438 10.398438 C 8.578125 10.046875 9.078125 9.898438 9.410156 9.707031 C 9.574219 9.609375 9.710938 9.488281 9.722656 9.3125 C 9.730469 9.136719 9.621094 8.941406 9.375 8.675781 Z M 4.992188 1.875 C 5.210938 1.398438 5.757812 1.40625 5.976562 1.867188 C 6.121094 2.171875 6.054688 2.53125 5.878906 2.734375 C 5.84375 2.71875 5.746094 2.679688 5.597656 2.628906 C 5.621094 2.605469 5.667969 2.570312 5.683594 2.53125 C 5.792969 2.277344 5.679688 1.949219 5.480469 1.945312 C 5.320312 1.933594 5.171875 2.175781 5.21875 2.4375 C 5.128906 2.394531 5.007812 2.363281 4.929688 2.34375 C 4.90625 2.195312 4.921875 2.03125 4.992188 1.875 Z M 4.085938 1.628906 C 4.308594 1.628906 4.550781 1.933594 4.511719 2.347656 C 4.433594 2.371094 4.351562 2.402344 4.285156 2.445312 C 4.308594 2.253906 4.210938 2.015625 4.070312 2.027344 C 3.882812 2.039062 3.851562 2.480469 4.027344 2.628906 C 4.050781 2.648438 4.070312 2.625 3.898438 2.746094 C 3.550781 2.433594 3.664062 1.628906 4.085938 1.628906 Z M 3.78125 2.933594 C 3.917969 2.832031 4.085938 2.71875 4.097656 2.707031 C 4.199219 2.613281 4.398438 2.402344 4.71875 2.402344 C 4.878906 2.402344 5.066406 2.453125 5.296875 2.59375 C 5.4375 2.679688 5.550781 2.6875 5.800781 2.792969 C 5.988281 2.867188 6.105469 3 6.035156 3.183594 C 5.976562 3.335938 5.789062 3.492188 5.527344 3.574219 C 5.28125 3.648438 5.085938 3.917969 4.675781 3.894531 C 4.589844 3.890625 4.519531 3.871094 4.460938 3.847656 C 4.285156 3.773438 4.191406 3.625 4.015625 3.527344 C 3.824219 3.421875 3.722656 3.300781 3.6875 3.195312 C 3.65625 3.089844 3.6875 3.003906 3.78125 2.933594 Z M 3.855469 10.109375 C 3.792969 10.863281 2.875 10.847656 2.175781 10.496094 C 1.507812 10.15625 0.644531 10.355469 0.464844 10.023438 C 0.414062 9.921875 0.414062 9.75 0.523438 9.457031 L 0.523438 9.453125 C 0.578125 9.289062 0.539062 9.109375 0.511719 8.941406 C 0.484375 8.773438 0.472656 8.617188 0.53125 8.511719 C 0.609375 8.367188 0.722656 8.316406 0.863281 8.265625 C 1.089844 8.1875 1.125 8.195312 1.300781 8.054688 C 1.421875 7.933594 1.511719 7.777344 1.617188 7.667969 C 1.730469 7.550781 1.839844 7.492188 2.011719 7.519531 C 2.195312 7.546875 2.351562 7.664062 2.503906 7.863281 L 2.941406 8.628906 C 3.152344 9.054688 3.902344 9.667969 3.855469 10.109375 Z M 3.824219 9.550781 C 3.730469 9.410156 3.609375 9.257812 3.503906 9.132812 C 3.660156 9.132812 3.820312 9.082031 3.875 8.941406 C 3.925781 8.804688 3.875 8.621094 3.710938 8.40625 C 3.410156 8.015625 2.855469 7.707031 2.855469 7.707031 C 2.554688 7.527344 2.382812 7.304688 2.304688 7.0625 C 2.226562 6.824219 2.238281 6.5625 2.300781 6.308594 C 2.414062 5.816406 2.714844 5.335938 2.90625 5.035156 C 2.957031 5 2.925781 5.105469 2.710938 5.484375 C 2.523438 5.828125 2.167969 6.628906 2.652344 7.253906 C 2.667969 6.808594 2.777344 6.355469 2.960938 5.933594 C 3.230469 5.34375 3.792969 4.324219 3.839844 3.511719 C 3.863281 3.527344 3.941406 3.578125 3.976562 3.597656 C 4.082031 3.65625 4.160156 3.742188 4.257812 3.820312 C 4.535156 4.035156 4.894531 4.019531 5.207031 3.847656 C 5.34375 3.769531 5.457031 3.683594 5.558594 3.652344 C 5.78125 3.585938 5.957031 3.46875 6.058594 3.332031 C 6.230469 3.984375 6.632812 4.925781 6.886719 5.386719 C 7.023438 5.632812 7.296875 6.148438 7.414062 6.773438 C 7.488281 6.773438 7.570312 6.78125 7.660156 6.804688 C 7.964844 6.039062 7.398438 5.210938 7.136719 4.980469 C 7.035156 4.882812 7.027344 4.839844 7.082031 4.839844 C 7.363281 5.082031 7.730469 5.566406 7.867188 6.109375 C 7.929688 6.355469 7.941406 6.617188 7.875 6.875 C 8.242188 7.019531 8.675781 7.257812 8.558594 7.621094 C 8.511719 7.621094 8.488281 7.621094 8.464844 7.621094 C 8.539062 7.40625 8.378906 7.246094 7.957031 7.0625 C 7.519531 6.878906 7.152344 6.878906 7.101562 7.332031 C 6.832031 7.421875 6.695312 7.644531 6.625 7.917969 C 6.5625 8.15625 6.542969 8.449219 6.527344 8.773438 C 6.515625 8.941406 6.445312 9.160156 6.375 9.398438 C 5.660156 9.890625 4.664062 10.105469 3.824219 9.550781 Z M 9.570312 9.304688 C 9.550781 9.664062 8.648438 9.734375 8.160156 10.304688 C 7.863281 10.640625 7.503906 10.828125 7.183594 10.851562 C 6.867188 10.875 6.59375 10.75 6.433594 10.4375 C 6.328125 10.199219 6.378906 9.941406 6.457031 9.65625 C 6.539062 9.351562 6.664062 9.039062 6.679688 8.785156 C 6.695312 8.457031 6.714844 8.171875 6.773438 7.953125 C 6.832031 7.730469 6.917969 7.585938 7.078125 7.5 C 7.085938 7.496094 7.09375 7.492188 7.101562 7.488281 C 7.117188 7.773438 7.261719 8.0625 7.519531 8.125 C 7.800781 8.195312 8.207031 7.960938 8.378906 7.773438 C 8.578125 7.765625 8.726562 7.753906 8.882812 7.882812 C 9.101562 8.066406 9.039062 8.535156 9.261719 8.777344 C 9.5 9.027344 9.574219 9.195312 9.570312 9.304688 Z M 3.867188 3.195312 C 3.914062 3.234375 3.972656 3.292969 4.046875 3.347656 C 4.195312 3.457031 4.398438 3.574219 4.65625 3.574219 C 4.914062 3.574219 5.160156 3.449219 5.367188 3.34375 C 5.476562 3.285156 5.609375 3.191406 5.695312 3.121094 C 5.785156 3.046875 5.828125 2.984375 5.765625 2.976562 C 5.703125 2.972656 5.707031 3.035156 5.632812 3.085938 C 5.535156 3.15625 5.414062 3.246094 5.320312 3.296875 C 5.15625 3.386719 4.886719 3.515625 4.652344 3.515625 C 4.421875 3.515625 4.238281 3.414062 4.097656 3.308594 C 4.027344 3.253906 3.972656 3.199219 3.925781 3.160156 C 3.894531 3.128906 3.882812 3.0625 3.832031 3.054688 C 3.800781 3.054688 3.789062 3.132812 3.867188 3.195312 Z M 3.867188 3.195312 "/>
</g>
</svg>
