<?xml version="1.0" encoding="UTF-8"?>
<svg xmlns="http://www.w3.org/2000/svg" xmlns:xlink="http://www.w3.org/1999/xlink" width="px" height="11px" viewBox="0 0 12 11" version="1.1">
<g id="surface1">
<path style=" stroke:none;fill-rule:nonzero;fill:rgb(0%,0%,0%);fill-opacity:1;" d="M 6.308594 6.703125 C 6.976562 5.839844 8.5 3.75 8.5 2.578125 C 8.5 1.152344 7.382812 0 6 0 C 4.617188 0 3.5 1.152344 3.5 2.578125 C 3.5 3.75 5.023438 5.839844 5.691406 6.703125 C 5.851562 6.910156 6.148438 6.910156 6.308594 6.703125 Z M 8.667969 10.804688 L 11.683594 9.5625 C 11.875 9.484375 12 9.292969 12 9.082031 L 12 3.265625 C 12 2.898438 11.644531 2.652344 11.316406 2.785156 L 8.898438 3.785156 C 8.886719 3.808594 8.878906 3.835938 8.867188 3.863281 C 8.804688 4.007812 8.738281 4.15625 8.667969 4.304688 Z M 0.316406 4.023438 C 0.125 4.101562 0 4.292969 0 4.503906 L 0 10.320312 C 0 10.6875 0.355469 10.9375 0.683594 10.800781 L 3.332031 9.707031 L 3.332031 4.304688 C 3.261719 4.15625 3.195312 4.007812 3.132812 3.863281 C 3.015625 3.578125 2.917969 3.273438 2.867188 2.972656 L 0.3125 4.023438 Z M 8 5.476562 C 7.574219 6.152344 7.117188 6.757812 6.828125 7.132812 C 6.402344 7.683594 5.597656 7.683594 5.171875 7.132812 C 4.882812 6.757812 4.425781 6.152344 4 5.476562 L 4 9.65625 L 8 10.835938 Z M 8 5.476562 "/>
</g>
</svg>
