<?xml version="1.0" encoding="UTF-8"?>
<svg xmlns="http://www.w3.org/2000/svg" xmlns:xlink="http://www.w3.org/1999/xlink" width="px" height="11px" viewBox="0 0 10 11" version="1.1">
<g id="surface1">
<path style=" stroke:none;fill-rule:nonzero;fill:rgb(0%,0%,0%);fill-opacity:1;" d="M 9.664062 3.847656 C 9.664062 1.761719 8.242188 1.148438 8.242188 1.148438 C 6.847656 0.53125 3.140625 0.539062 1.757812 1.148438 C 1.757812 1.148438 0.335938 1.761719 0.335938 3.847656 C 0.335938 6.332031 0.191406 9.421875 2.695312 10.058594 C 3.597656 10.289062 4.375 10.339844 5 10.304688 C 6.136719 10.242188 6.773438 9.914062 6.773438 9.914062 L 6.734375 9.121094 C 6.734375 9.121094 5.921875 9.367188 5.011719 9.339844 C 4.109375 9.308594 3.160156 9.246094 3.011719 8.179688 C 2.996094 8.082031 2.992188 7.980469 2.992188 7.878906 C 4.902344 8.328125 6.53125 8.078125 6.980469 8.023438 C 8.234375 7.878906 9.324219 7.136719 9.464844 6.457031 C 9.683594 5.386719 9.664062 3.847656 9.664062 3.847656 Z M 7.988281 6.539062 L 6.949219 6.539062 L 6.949219 4.085938 C 6.949219 3.015625 5.519531 2.976562 5.519531 4.234375 L 5.519531 5.574219 L 4.484375 5.574219 L 4.484375 4.234375 C 4.484375 2.976562 3.054688 3.015625 3.054688 4.085938 L 3.054688 6.539062 L 2.011719 6.539062 C 2.011719 3.914062 1.898438 3.359375 2.425781 2.777344 C 3.003906 2.15625 4.207031 2.117188 4.742188 2.910156 L 5 3.328125 L 5.257812 2.910156 C 5.796875 2.113281 7.003906 2.160156 7.578125 2.777344 C 8.105469 3.363281 7.988281 3.917969 7.988281 6.539062 Z M 7.988281 6.539062 "/>
</g>
</svg>
