<?xml version="1.0" encoding="UTF-8"?>
<svg xmlns="http://www.w3.org/2000/svg" xmlns:xlink="http://www.w3.org/1999/xlink" width="px" height="11px" viewBox="0 0 13 11" version="1.1">
<g id="surface1">
<path style=" stroke:none;fill-rule:nonzero;fill:rgb(0%,0%,0%);fill-opacity:1;" d="M 3.667969 1.59375 C 1.640625 1.59375 0 3.34375 0 5.5 C 0 7.65625 1.640625 9.40625 3.667969 9.40625 C 5.691406 9.40625 7.332031 7.65625 7.332031 5.5 C 7.332031 3.34375 5.691406 1.59375 3.667969 1.59375 Z M 9.523438 1.824219 C 8.507812 1.824219 7.6875 3.46875 7.6875 5.5 C 7.6875 7.53125 8.507812 9.175781 9.523438 9.175781 C 10.535156 9.175781 11.355469 7.53125 11.355469 5.5 C 11.355469 3.46875 10.535156 1.824219 9.523438 1.824219 Z M 12.355469 2.207031 C 12 2.207031 11.710938 3.679688 11.710938 5.5 C 11.710938 7.320312 12 8.792969 12.355469 8.792969 C 12.710938 8.792969 13 7.316406 13 5.5 C 13 3.679688 12.710938 2.207031 12.355469 2.207031 Z M 12.355469 2.207031 "/>
</g>
</svg>
