<?xml version="1.0" encoding="UTF-8"?>
<svg xmlns="http://www.w3.org/2000/svg" xmlns:xlink="http://www.w3.org/1999/xlink" width="px" height="11px" viewBox="0 0 8 10" version="1.1">
<g id="surface1">
<path style=" stroke:none;fill-rule:nonzero;fill:rgb(0%,0%,0%);fill-opacity:1;" d="M 1.667969 0 C 0.929688 0 0.332031 0.5625 0.332031 1.25 L 0.332031 8.75 C 0.332031 9.4375 0.929688 10 1.667969 10 L 6.332031 10 C 7.070312 10 7.667969 9.4375 7.667969 8.75 L 7.667969 1.25 C 7.667969 0.5625 7.070312 0 6.332031 0 Z M 3.332031 8.4375 L 4.667969 8.4375 C 4.851562 8.4375 5 8.578125 5 8.75 C 5 8.921875 4.851562 9.0625 4.667969 9.0625 L 3.332031 9.0625 C 3.148438 9.0625 3 8.921875 3 8.75 C 3 8.578125 3.148438 8.4375 3.332031 8.4375 Z M 3.332031 8.4375 "/>
</g>
</svg>
