<?xml version="1.0" encoding="UTF-8"?>
<svg xmlns="http://www.w3.org/2000/svg" xmlns:xlink="http://www.w3.org/1999/xlink" width="8px" height="11px" viewBox="0 0 8 10" version="1.1">
<g id="surface1">
<path style=" stroke:none;fill-rule:nonzero;fill:rgb(0%,0%,0%);fill-opacity:1;" d="M 8 6.109375 C 6.851562 8.777344 4.101562 7.164062 4.101562 7.164062 C 3.257812 8.757812 1.863281 9.789062 0.257812 9.792969 C -0.078125 9.792969 -0.0898438 9.316406 0.257812 9.316406 C 1.597656 9.3125 2.765625 8.484375 3.53125 7.164062 C 2.675781 7.476562 1.058594 7.710938 0.164062 5.5625 C 2.433594 4.683594 3.480469 5.78125 3.878906 6.449219 C 4.085938 5.972656 4.234375 5.453125 4.328125 4.890625 C 4.328125 4.890625 1.417969 5.320312 1.214844 2.976562 C 3.695312 2.039062 4.394531 4.476562 4.394531 4.476562 C 4.425781 4.148438 4.460938 3.449219 4.460938 3.433594 C 4.460938 3.433594 2.246094 1.992188 3.667969 0.207031 C 6.265625 1.046875 4.949219 3.378906 4.949219 3.378906 C 4.957031 3.410156 4.957031 3.84375 4.949219 4.03125 C 4.949219 4.03125 5.890625 2.292969 7.789062 2.90625 C 7.703125 5.523438 4.832031 4.984375 4.832031 4.984375 C 4.742188 5.519531 4.601562 6.027344 4.417969 6.5 C 4.417969 6.5 6.144531 4.707031 8 6.109375 Z M 8 6.109375 "/>
</g>
</svg>
