<?xml version="1.0" encoding="UTF-8"?>
<svg xmlns="http://www.w3.org/2000/svg" xmlns:xlink="http://www.w3.org/1999/xlink" width="px" height="11px" viewBox="0 0 11 11" version="1.1">
<g id="surface1">
<path style=" stroke:none;fill-rule:nonzero;fill:rgb(0%,0%,0%);fill-opacity:1;" d="M 11 5.5 C 11 5.519531 11 5.539062 11 5.558594 C 10.992188 6.34375 10.277344 6.875 9.492188 6.875 L 7.390625 6.875 C 6.820312 6.875 6.359375 7.335938 6.359375 7.90625 C 6.359375 7.980469 6.367188 8.050781 6.382812 8.117188 C 6.425781 8.339844 6.519531 8.546875 6.613281 8.761719 C 6.742188 9.058594 6.871094 9.351562 6.871094 9.664062 C 6.871094 10.347656 6.410156 10.96875 5.726562 10.996094 C 5.652344 10.996094 5.574219 11 5.496094 11 C 2.460938 11 0 8.539062 0 5.5 C 0 2.460938 2.460938 0 5.5 0 C 8.539062 0 11 2.460938 11 5.5 Z M 2.75 6.1875 C 2.75 5.808594 2.441406 5.5 2.0625 5.5 C 1.683594 5.5 1.375 5.808594 1.375 6.1875 C 1.375 6.566406 1.683594 6.875 2.0625 6.875 C 2.441406 6.875 2.75 6.566406 2.75 6.1875 Z M 2.75 4.125 C 3.128906 4.125 3.4375 3.816406 3.4375 3.4375 C 3.4375 3.058594 3.128906 2.75 2.75 2.75 C 2.371094 2.75 2.0625 3.058594 2.0625 3.4375 C 2.0625 3.816406 2.371094 4.125 2.75 4.125 Z M 6.1875 2.0625 C 6.1875 1.683594 5.878906 1.375 5.5 1.375 C 5.121094 1.375 4.8125 1.683594 4.8125 2.0625 C 4.8125 2.441406 5.121094 2.75 5.5 2.75 C 5.878906 2.75 6.1875 2.441406 6.1875 2.0625 Z M 8.25 4.125 C 8.628906 4.125 8.9375 3.816406 8.9375 3.4375 C 8.9375 3.058594 8.628906 2.75 8.25 2.75 C 7.871094 2.75 7.5625 3.058594 7.5625 3.4375 C 7.5625 3.816406 7.871094 4.125 8.25 4.125 Z M 8.25 4.125 "/>
</g>
</svg>
