<?xml version="1.0" encoding="UTF-8"?>
<svg xmlns="http://www.w3.org/2000/svg" xmlns:xlink="http://www.w3.org/1999/xlink" width="px" height="11px" viewBox="0 0 10 11" version="1.1">
<g id="surface1">
<path style=" stroke:none;fill-rule:nonzero;fill:rgb(0%,0%,0%);fill-opacity:1;" d="M 8.128906 1.800781 C 7.585938 1.277344 6.699219 1.277344 6.15625 1.800781 L 2.050781 5.753906 C 1.109375 6.65625 1.109375 8.125 2.050781 9.027344 C 2.988281 9.933594 4.511719 9.933594 5.449219 9.027344 L 8.84375 5.761719 C 9.085938 5.527344 9.484375 5.527344 9.726562 5.761719 C 9.972656 5.996094 9.972656 6.378906 9.726562 6.613281 L 6.335938 9.878906 C 4.90625 11.253906 2.59375 11.253906 1.164062 9.878906 C -0.261719 8.503906 -0.261719 6.277344 1.164062 4.902344 L 5.273438 0.949219 C 6.304688 -0.046875 7.980469 -0.046875 9.011719 0.949219 C 10.046875 1.945312 10.046875 3.554688 9.011719 4.550781 L 5.085938 8.332031 C 4.445312 8.945312 3.410156 8.945312 2.773438 8.332031 C 2.132812 7.71875 2.132812 6.71875 2.773438 6.105469 L 5.988281 3.011719 C 6.230469 2.777344 6.628906 2.777344 6.871094 3.011719 C 7.113281 3.246094 7.113281 3.628906 6.871094 3.863281 L 3.65625 6.957031 C 3.507812 7.101562 3.507812 7.335938 3.65625 7.480469 C 3.804688 7.625 4.050781 7.625 4.199219 7.480469 L 8.128906 3.699219 C 8.675781 3.175781 8.675781 2.324219 8.128906 1.800781 Z M 8.128906 1.800781 "/>
</g>
</svg>
