<?xml version="1.0" encoding="UTF-8"?>
<svg xmlns="http://www.w3.org/2000/svg" xmlns:xlink="http://www.w3.org/1999/xlink" width="px" height="11px" viewBox="0 0 11 11" version="1.1">
<g id="surface1">
<path style=" stroke:none;fill-rule:nonzero;fill:rgb(0%,0%,0%);fill-opacity:1;" d="M 0.347656 5.589844 C -0.140625 5.867188 -0.09375 6.605469 0.421875 6.820312 L 3.4375 8.078125 L 3.4375 10.296875 C 3.4375 10.6875 3.75 11 4.140625 11 C 4.347656 11 4.546875 10.90625 4.679688 10.746094 L 6.011719 9.148438 L 8.671875 10.257812 C 9.078125 10.429688 9.550781 10.164062 9.617188 9.726562 L 10.992188 0.789062 C 11.03125 0.53125 10.917969 0.269531 10.703125 0.121094 C 10.484375 -0.0273438 10.199219 -0.0390625 9.972656 0.0898438 Z M 1.464844 6.136719 L 8.800781 1.945312 L 4.085938 7.21875 L 4.109375 7.242188 Z M 8.664062 9.140625 L 5.085938 7.644531 L 9.683594 2.503906 Z M 8.664062 9.140625 "/>
</g>
</svg>
