<?xml version="1.0" encoding="UTF-8"?>
<svg xmlns="http://www.w3.org/2000/svg" xmlns:xlink="http://www.w3.org/1999/xlink" width="px" height="11px" viewBox="0 0 11 11" version="1.1">
<g id="surface1">
<path style=" stroke:none;fill-rule:nonzero;fill:rgb(0%,0%,0%);fill-opacity:1;" d="M 10.132812 0.464844 C 9.660156 -0.00390625 8.902344 -0.00390625 8.429688 0.464844 L 7.785156 1.109375 L 9.886719 3.214844 L 10.535156 2.566406 C 11.003906 2.097656 11.003906 1.335938 10.535156 0.867188 Z M 3.703125 5.191406 C 3.574219 5.324219 3.472656 5.484375 3.414062 5.664062 L 2.777344 7.570312 C 2.714844 7.757812 2.765625 7.960938 2.902344 8.101562 C 3.039062 8.238281 3.246094 8.285156 3.429688 8.222656 L 5.339844 7.589844 C 5.515625 7.53125 5.675781 7.429688 5.808594 7.296875 L 9.402344 3.703125 L 7.296875 1.597656 Z M 2.0625 1.375 C 0.921875 1.375 0 2.296875 0 3.4375 L 0 8.9375 C 0 10.078125 0.921875 11 2.0625 11 L 7.5625 11 C 8.703125 11 9.625 10.078125 9.625 8.9375 L 9.625 6.875 C 9.625 6.496094 9.316406 6.1875 8.9375 6.1875 C 8.558594 6.1875 8.25 6.496094 8.25 6.875 L 8.25 8.9375 C 8.25 9.316406 7.941406 9.625 7.5625 9.625 L 2.0625 9.625 C 1.683594 9.625 1.375 9.316406 1.375 8.9375 L 1.375 3.4375 C 1.375 3.058594 1.683594 2.75 2.0625 2.75 L 4.125 2.75 C 4.503906 2.75 4.8125 2.441406 4.8125 2.0625 C 4.8125 1.683594 4.503906 1.375 4.125 1.375 Z M 2.0625 1.375 "/>
</g>
</svg>
