<?xml version="1.0" encoding="UTF-8"?>
<svg xmlns="http://www.w3.org/2000/svg" xmlns:xlink="http://www.w3.org/1999/xlink" width="px" height="11px" viewBox="0 0 13 11" version="1.1">
<g id="surface1">
<path style=" stroke:none;fill-rule:nonzero;fill:rgb(0%,0%,0%);fill-opacity:1;" d="M 4.324219 7.398438 C 4.402344 7.394531 4.789062 7.367188 4.84375 7.351562 C 4.796875 7.292969 3.957031 7.328125 3.464844 6.285156 C 3.375 6.097656 3.3125 5.90625 3.332031 5.691406 C 3.390625 5.144531 4 5.046875 4.390625 5.292969 C 5.121094 5.757812 5.675781 7.253906 6.699219 7.386719 C 7.449219 7.484375 8.417969 7.023438 8.898438 6.414062 C 8.882812 6.410156 8.878906 6.410156 8.875 6.410156 C 8.867188 6.414062 8.859375 6.414062 8.855469 6.417969 C 8.179688 6.675781 6.9375 6.625 6.117188 6.097656 C 5.355469 5.609375 5.039062 4.839844 5.066406 4.496094 C 5.101562 4.039062 5.53125 4 5.796875 4.074219 C 6.085938 4.160156 6.289062 4.453125 6.585938 4.664062 C 6.902344 4.886719 7.253906 4.957031 7.628906 4.886719 C 7.929688 4.828125 8.324219 4.621094 8.367188 4.574219 C 8.347656 4.570312 8.332031 4.570312 8.316406 4.570312 C 8.191406 4.558594 8.066406 4.550781 7.941406 4.535156 C 5.683594 4.179688 5.324219 1.019531 2.8125 0.8125 C 1.914062 0.742188 0.792969 0.988281 0.0429688 1.566406 C 0.0273438 1.578125 0.015625 1.59375 0 1.605469 C 0.00390625 1.609375 0.00390625 1.609375 0.00390625 1.617188 C 0.0195312 1.617188 0.0351562 1.613281 0.0546875 1.609375 C 0.179688 1.589844 0.308594 1.59375 0.433594 1.617188 C 0.917969 1.710938 1.402344 2.113281 1.566406 3.261719 C 1.675781 4 1.554688 4.351562 1.730469 5.109375 C 2.117188 6.765625 3.578125 7.421875 4.324219 7.398438 Z M 1.53125 1.394531 C 1.511719 1.371094 1.511719 1.367188 1.503906 1.351562 C 1.75 1.296875 1.996094 1.261719 2.246094 1.25 C 2.222656 1.5625 1.796875 1.707031 1.53125 1.394531 Z M 5.527344 8.925781 C 4.660156 8.949219 3.660156 8.351562 3.019531 7.605469 C 2.925781 7.5 2.679688 7.171875 2.644531 7.101562 L 2.652344 7.09375 C 2.785156 7.183594 3.171875 7.492188 3.765625 7.675781 C 4.253906 7.824219 4.742188 7.808594 5.21875 7.601562 C 5.679688 7.402344 6.050781 7.59375 6.09375 7.664062 C 5.71875 7.746094 5.683594 7.761719 5.605469 7.835938 C 5.503906 7.929688 5.511719 8.085938 5.75 8.203125 C 6.28125 8.472656 7.027344 8.144531 7.722656 8.75 C 7.773438 8.792969 7.886719 8.917969 7.929688 8.980469 C 7.925781 8.984375 7.921875 8.988281 7.917969 8.992188 C 7.824219 8.957031 7.585938 8.828125 7.101562 8.792969 C 6.601562 8.75 6.164062 8.90625 5.527344 8.925781 Z M 9.078125 3.511719 C 9.414062 3.398438 9.917969 3.222656 10.429688 3.441406 C 10.757812 3.578125 10.960938 3.839844 11.082031 4.183594 C 11.152344 4.386719 11.1875 4.605469 11.1875 4.800781 C 11.183594 4.800781 11.179688 4.800781 11.175781 4.800781 C 11.167969 4.792969 11.164062 4.78125 11.164062 4.773438 C 11.0625 4.300781 10.554688 3.832031 9.789062 4.132812 C 8.769531 4.53125 7.140625 4.339844 6.199219 3.101562 C 6.183594 3.082031 6.148438 3.0625 6.171875 3.03125 C 6.171875 3.027344 6.214844 3.042969 6.230469 3.058594 C 6.597656 3.347656 7.011719 3.53125 7.457031 3.621094 C 8.078125 3.753906 8.566406 3.683594 9.078125 3.511719 Z M 11.164062 6.035156 C 10.507812 6.039062 10.480469 7.109375 9.0625 7.417969 C 8.691406 7.496094 8.273438 7.515625 8.148438 7.507812 L 8.148438 7.5 C 8.207031 7.46875 8.449219 7.445312 8.753906 7.144531 C 8.914062 6.988281 9.0625 6.820312 9.214844 6.652344 C 9.613281 6.21875 10.058594 5.746094 10.878906 5.8125 C 11.347656 5.851562 11.472656 5.988281 11.613281 6.085938 C 11.617188 6.089844 11.621094 6.097656 11.625 6.105469 C 11.617188 6.105469 11.613281 6.109375 11.609375 6.105469 C 11.464844 6.046875 11.316406 6.035156 11.164062 6.035156 Z M 10.914062 5.515625 C 10.914062 5.519531 10.914062 5.527344 10.910156 5.53125 C 10.324219 5.433594 9.9375 5.359375 9.519531 5.617188 C 9.175781 5.828125 8.882812 6.054688 8.261719 6.140625 C 7.710938 6.214844 7.34375 6.191406 6.917969 5.96875 C 6.914062 5.964844 6.90625 5.960938 6.898438 5.957031 C 6.898438 5.949219 6.898438 5.949219 6.898438 5.945312 C 7.40625 6.027344 7.640625 6.054688 8.027344 5.820312 C 8.480469 5.542969 8.84375 5.25 9.476562 5.152344 C 10.078125 5.066406 10.519531 5.207031 10.914062 5.515625 Z M 5.457031 2.089844 C 5.445312 2.078125 5.433594 2.066406 5.414062 2.039062 C 5.566406 2.039062 6.015625 2.015625 6.496094 2.222656 C 6.898438 2.394531 7.152344 2.671875 7.519531 2.929688 C 7.742188 3.085938 7.992188 3.128906 8.257812 3.101562 C 8.34375 3.09375 8.429688 3.078125 8.515625 3.066406 C 8.523438 3.0625 8.535156 3.066406 8.546875 3.074219 C 8.535156 3.082031 8.523438 3.089844 8.511719 3.097656 C 8.347656 3.183594 8.171875 3.234375 7.992188 3.25 C 7.460938 3.304688 6.96875 3.171875 6.5 2.917969 C 6.109375 2.707031 5.761719 2.429688 5.457031 2.089844 Z M 13 7.210938 C 12.929688 7.277344 12.539062 7.460938 12.132812 7.328125 C 11.882812 7.242188 11.738281 7.007812 11.492188 6.808594 C 11.289062 6.644531 11.066406 6.640625 10.921875 6.628906 C 10.933594 6.609375 10.9375 6.601562 10.945312 6.597656 C 11.246094 6.398438 11.5625 6.335938 11.90625 6.457031 C 12.160156 6.546875 12.296875 6.75 12.523438 6.976562 C 12.742188 7.203125 12.949219 7.191406 12.992188 7.203125 C 12.992188 7.203125 12.996094 7.203125 13 7.210938 Z M 8.683594 10.15625 C 8.726562 10.179688 8.714844 10.1875 8.714844 10.199219 C 8.339844 10.167969 8.027344 10.035156 7.761719 9.722656 C 7.320312 9.191406 6.917969 9.121094 6.777344 9.082031 C 6.785156 9.078125 6.792969 9.074219 6.796875 9.074219 C 7.066406 9.078125 7.328125 9.089844 7.589844 9.160156 C 8.101562 9.296875 8.300781 9.703125 8.433594 9.917969 C 8.5 10.019531 8.582031 10.09375 8.683594 10.15625 Z M 8.683594 10.15625 "/>
</g>
</svg>
