<?xml version="1.0" encoding="UTF-8"?>
<svg xmlns="http://www.w3.org/2000/svg" xmlns:xlink="http://www.w3.org/1999/xlink" width="px" height="11px" viewBox="0 0 11 11" version="1.1">
<g id="surface1">
<path style=" stroke:none;fill-rule:nonzero;fill:rgb(0%,0%,0%);fill-opacity:1;" d="M 2.0625 1.363281 C 3.0625 0.585938 4.332031 0.15625 5.597656 0.1875 C 6.230469 0.179688 6.867188 0.304688 7.464844 0.519531 C 6.945312 0.417969 6.410156 0.382812 5.886719 0.464844 C 4.964844 0.578125 4.101562 1.050781 3.484375 1.738281 C 3.605469 1.714844 3.714844 1.660156 3.828125 1.613281 C 4.21875 1.441406 4.632812 1.328125 5.058594 1.292969 C 5.480469 1.246094 5.910156 1.285156 6.332031 1.335938 C 6.023438 1.394531 5.707031 1.433594 5.40625 1.539062 C 4.667969 1.777344 4.003906 2.253906 3.554688 2.886719 C 3.257812 3.308594 3.046875 3.804688 3.023438 4.328125 C 3.015625 4.683594 3.136719 5.074219 3.449219 5.273438 C 3.691406 5.417969 3.980469 5.472656 4.257812 5.417969 C 4.589844 5.367188 4.902344 5.234375 5.191406 5.066406 C 5.441406 4.921875 5.679688 4.753906 5.878906 4.546875 C 5.960938 4.476562 5.933594 4.363281 5.9375 4.273438 C 5.890625 4.265625 5.84375 4.246094 5.800781 4.277344 C 5.554688 4.414062 5.296875 4.523438 5.03125 4.609375 C 4.601562 4.742188 4.125 4.789062 3.699219 4.625 C 3.972656 4.664062 4.257812 4.632812 4.507812 4.507812 C 4.941406 4.300781 5.300781 3.964844 5.679688 3.675781 C 6.273438 3.214844 6.914062 2.820312 7.585938 2.488281 C 8.140625 2.230469 8.726562 1.996094 9.339844 1.96875 C 9.003906 2.261719 8.648438 2.539062 8.335938 2.859375 C 8.023438 3.160156 7.746094 3.492188 7.472656 3.828125 C 7.398438 3.925781 7.28125 3.976562 7.183594 4.046875 C 6.703125 4.371094 6.316406 4.816406 6.066406 5.335938 C 5.867188 5.761719 5.753906 6.238281 5.8125 6.707031 C 5.855469 7 6 7.296875 6.261719 7.457031 C 6.539062 7.628906 6.886719 7.628906 7.199219 7.566406 C 7.902344 7.40625 8.515625 6.945312 8.9375 6.363281 C 9.375 5.773438 9.59375 5.027344 9.5625 4.296875 C 9.554688 4.132812 9.53125 3.972656 9.527344 3.8125 C 9.699219 4.230469 9.847656 4.664062 9.886719 5.117188 C 9.929688 5.425781 9.902344 5.738281 9.851562 6.039062 C 9.808594 6.277344 9.730469 6.503906 9.683594 6.738281 C 10.121094 6.246094 10.414062 5.644531 10.527344 4.996094 C 10.648438 4.234375 10.542969 3.449219 10.222656 2.746094 C 10.671875 3.433594 10.917969 4.242188 10.992188 5.054688 C 11 5.328125 11 5.605469 10.992188 5.878906 C 10.929688 6.613281 10.714844 7.332031 10.355469 7.976562 C 9.792969 8.996094 8.894531 9.816406 7.835938 10.296875 C 6.15625 11.078125 4.085938 10.972656 2.507812 9.984375 C 1.671875 9.46875 0.992188 8.738281 0.542969 7.863281 C 0.230469 7.242188 0.0429688 6.5625 0 5.867188 L 0 5.195312 C 0.0859375 3.695312 0.878906 2.273438 2.0625 1.363281 M 6.832031 3.085938 C 6.949219 3.066406 7.066406 3.035156 7.175781 2.992188 C 7.28125 2.953125 7.375 2.863281 7.398438 2.75 C 7.203125 2.859375 7.011719 2.964844 6.832031 3.085938 Z M 6.832031 3.085938 "/>
</g>
</svg>
