<?xml version="1.0" encoding="UTF-8"?>
<svg xmlns="http://www.w3.org/2000/svg" xmlns:xlink="http://www.w3.org/1999/xlink" width="px" height="11px" viewBox="0 0 10 11" version="1.1">
<g id="surface1">
<path style=" stroke:none;fill-rule:nonzero;fill:rgb(0%,0%,0%);fill-opacity:1;" d="M 9.816406 4.308594 C 9.644531 3.644531 9.320312 3.144531 8.625 3.144531 L 7.730469 3.144531 L 7.730469 4.160156 C 7.730469 4.953125 7.035156 5.617188 6.238281 5.617188 L 3.855469 5.617188 C 3.203125 5.617188 2.664062 6.15625 2.664062 6.785156 L 2.664062 8.972656 C 2.664062 9.59375 3.226562 9.960938 3.855469 10.136719 C 4.609375 10.351562 5.335938 10.390625 6.238281 10.136719 C 6.839844 9.972656 7.429688 9.632812 7.429688 8.972656 L 7.429688 8.097656 L 5.050781 8.097656 L 5.050781 7.804688 L 8.625 7.804688 C 9.320312 7.804688 9.574219 7.339844 9.816406 6.640625 C 10.066406 5.921875 10.054688 5.230469 9.816406 4.308594 Z M 6.386719 8.679688 C 6.636719 8.679688 6.835938 8.875 6.835938 9.117188 C 6.835938 9.359375 6.636719 9.554688 6.386719 9.554688 C 6.144531 9.554688 5.941406 9.355469 5.941406 9.117188 C 5.941406 8.875 6.144531 8.679688 6.386719 8.679688 Z M 3.746094 5.332031 L 6.128906 5.332031 C 6.792969 5.332031 7.320312 4.804688 7.320312 4.164062 L 7.320312 1.972656 C 7.320312 1.351562 6.777344 0.886719 6.128906 0.78125 C 5.332031 0.652344 4.460938 0.660156 3.746094 0.78125 C 2.738281 0.953125 2.554688 1.3125 2.554688 1.976562 L 2.554688 2.851562 L 4.941406 2.851562 L 4.941406 3.144531 L 1.660156 3.144531 C 0.964844 3.144531 0.355469 3.542969 0.167969 4.308594 C -0.0507812 5.183594 -0.0585938 5.726562 0.167969 6.640625 C 0.335938 7.320312 0.742188 7.804688 1.433594 7.804688 L 2.253906 7.804688 L 2.253906 6.757812 C 2.253906 6 2.933594 5.332031 3.746094 5.332031 Z M 3.597656 2.265625 C 3.347656 2.265625 3.148438 2.070312 3.148438 1.832031 C 3.148438 1.585938 3.347656 1.390625 3.597656 1.390625 C 3.839844 1.390625 4.042969 1.589844 4.042969 1.832031 C 4.042969 2.070312 3.84375 2.265625 3.597656 2.265625 Z M 3.597656 2.265625 "/>
</g>
</svg>
