<?xml version="1.0" encoding="UTF-8"?>
<svg xmlns="http://www.w3.org/2000/svg" xmlns:xlink="http://www.w3.org/1999/xlink" width="px" height="11px" viewBox="0 0 11 11" version="1.1">
<g id="surface1">
<path style=" stroke:none;fill-rule:nonzero;fill:rgb(0%,0%,0%);fill-opacity:1;" d="M 10.628906 1.007812 C 10.902344 0.929688 11.058594 0.640625 10.980469 0.371094 C 10.902344 0.0976562 10.613281 -0.0585938 10.339844 0.0234375 L 1.109375 2.726562 C 0.910156 2.785156 0.726562 2.882812 0.570312 3.011719 C 0.226562 3.257812 0 3.664062 0 4.125 L 0 9.625 C 0 10.382812 0.617188 11 1.375 11 L 9.625 11 C 10.382812 11 11 10.382812 11 9.625 L 11 4.125 C 11 3.367188 10.382812 2.75 9.625 2.75 L 4.695312 2.75 Z M 7.90625 5.15625 C 8.855469 5.15625 9.625 5.925781 9.625 6.875 C 9.625 7.824219 8.855469 8.59375 7.90625 8.59375 C 6.957031 8.59375 6.1875 7.824219 6.1875 6.875 C 6.1875 5.925781 6.957031 5.15625 7.90625 5.15625 Z M 1.71875 5.5 C 1.71875 5.3125 1.875 5.15625 2.0625 5.15625 L 4.125 5.15625 C 4.3125 5.15625 4.46875 5.3125 4.46875 5.5 C 4.46875 5.6875 4.3125 5.84375 4.125 5.84375 L 2.0625 5.84375 C 1.875 5.84375 1.71875 5.6875 1.71875 5.5 Z M 1.375 6.875 C 1.375 6.6875 1.53125 6.53125 1.71875 6.53125 L 4.46875 6.53125 C 4.65625 6.53125 4.8125 6.6875 4.8125 6.875 C 4.8125 7.0625 4.65625 7.21875 4.46875 7.21875 L 1.71875 7.21875 C 1.53125 7.21875 1.375 7.0625 1.375 6.875 Z M 1.71875 8.25 C 1.71875 8.0625 1.875 7.90625 2.0625 7.90625 L 4.125 7.90625 C 4.3125 7.90625 4.46875 8.0625 4.46875 8.25 C 4.46875 8.4375 4.3125 8.59375 4.125 8.59375 L 2.0625 8.59375 C 1.875 8.59375 1.71875 8.4375 1.71875 8.25 Z M 1.71875 8.25 "/>
</g>
</svg>
