<?xml version="1.0" encoding="UTF-8"?>
<svg xmlns="http://www.w3.org/2000/svg" xmlns:xlink="http://www.w3.org/1999/xlink" width="px" height="11px" viewBox="0 0 12 11" version="1.1">
<g id="surface1">
<path style=" stroke:none;fill-rule:nonzero;fill:rgb(0%,0%,0%);fill-opacity:1;" d="M 11.007812 1 L 8.09375 1 C 7.089844 1 6.222656 1.714844 6.003906 2.722656 C 5.78125 1.714844 4.914062 1 3.910156 1 L 1 1 C 0.449219 1 0 1.460938 0 2.03125 L 0 7.3125 C 0 7.878906 0.449219 8.34375 1 8.34375 L 2.867188 8.34375 C 4.996094 8.34375 5.632812 8.867188 5.9375 9.953125 C 5.953125 10.015625 6.046875 10.015625 6.0625 9.953125 C 6.367188 8.867188 7.003906 8.34375 9.132812 8.34375 L 11 8.34375 C 11.550781 8.34375 12 7.878906 12 7.3125 L 12 2.03125 C 12 1.464844 11.554688 1.003906 11.007812 1 Z M 5.042969 6.699219 C 5.042969 6.742188 5.011719 6.777344 4.96875 6.777344 L 1.628906 6.777344 C 1.589844 6.777344 1.554688 6.742188 1.554688 6.699219 L 1.554688 6.210938 C 1.554688 6.167969 1.585938 6.132812 1.628906 6.132812 L 4.972656 6.132812 C 5.011719 6.132812 5.042969 6.164062 5.042969 6.210938 Z M 5.042969 5.390625 C 5.042969 5.433594 5.011719 5.46875 4.96875 5.46875 L 1.628906 5.46875 C 1.589844 5.46875 1.554688 5.433594 1.554688 5.390625 L 1.554688 4.902344 C 1.554688 4.859375 1.585938 4.824219 1.628906 4.824219 L 4.972656 4.824219 C 5.011719 4.824219 5.042969 4.859375 5.042969 4.902344 Z M 5.042969 4.085938 C 5.042969 4.125 5.011719 4.160156 4.96875 4.160156 L 1.628906 4.160156 C 1.589844 4.160156 1.554688 4.128906 1.554688 4.085938 L 1.554688 3.59375 C 1.554688 3.550781 1.585938 3.515625 1.628906 3.515625 L 4.972656 3.515625 C 5.011719 3.515625 5.042969 3.550781 5.042969 3.59375 Z M 10.445312 6.699219 C 10.445312 6.738281 10.414062 6.773438 10.371094 6.773438 L 7.03125 6.773438 C 6.992188 6.773438 6.957031 6.742188 6.957031 6.699219 L 6.957031 6.207031 C 6.957031 6.164062 6.988281 6.132812 7.03125 6.132812 L 10.371094 6.132812 C 10.414062 6.132812 10.445312 6.164062 10.445312 6.207031 Z M 10.445312 5.390625 C 10.445312 5.429688 10.414062 5.464844 10.371094 5.464844 L 7.03125 5.464844 C 6.992188 5.464844 6.957031 5.433594 6.957031 5.390625 L 6.957031 4.898438 C 6.957031 4.859375 6.988281 4.824219 7.03125 4.824219 L 10.371094 4.824219 C 10.414062 4.824219 10.445312 4.855469 10.445312 4.898438 Z M 10.445312 4.082031 C 10.445312 4.121094 10.414062 4.15625 10.371094 4.15625 L 7.03125 4.15625 C 6.992188 4.15625 6.957031 4.125 6.957031 4.082031 L 6.957031 3.59375 C 6.957031 3.550781 6.988281 3.515625 7.03125 3.515625 L 10.371094 3.515625 C 10.414062 3.515625 10.445312 3.550781 10.445312 3.59375 Z M 10.445312 4.082031 "/>
</g>
</svg>
