<?xml version="1.0" encoding="UTF-8"?>
<svg xmlns="http://www.w3.org/2000/svg" xmlns:xlink="http://www.w3.org/1999/xlink" width="px" height="11px" viewBox="0 0 11 11" version="1.1">
<g id="surface1">
<path style=" stroke:none;fill-rule:nonzero;fill:rgb(0%,0%,0%);fill-opacity:1;" d="M 8.015625 2.976562 C 7.472656 2.976562 7.019531 2.601562 6.898438 2.097656 C 6.242188 2.1875 5.734375 2.757812 5.734375 3.4375 L 5.734375 3.441406 C 6.753906 3.480469 7.679688 3.765625 8.417969 4.222656 C 8.6875 4.011719 9.027344 3.890625 9.394531 3.890625 C 10.28125 3.890625 11 4.605469 11 5.492188 C 11 6.132812 10.625 6.6875 10.082031 6.945312 C 10.03125 8.808594 8 10.308594 5.503906 10.308594 C 3.003906 10.308594 0.976562 8.8125 0.921875 6.949219 C 0.378906 6.691406 0 6.136719 0 5.492188 C 0 4.605469 0.71875 3.890625 1.605469 3.890625 C 1.972656 3.890625 2.3125 4.011719 2.585938 4.222656 C 3.316406 3.769531 4.238281 3.484375 5.246094 3.441406 L 5.246094 3.433594 C 5.246094 2.484375 5.96875 1.695312 6.894531 1.597656 C 7 1.078125 7.460938 0.6875 8.015625 0.6875 C 8.644531 0.6875 9.160156 1.199219 9.160156 1.832031 C 9.160156 2.464844 8.644531 2.976562 8.015625 2.976562 Z M 3.382812 5.484375 C 2.933594 5.484375 2.546875 5.933594 2.519531 6.515625 C 2.492188 7.097656 2.886719 7.332031 3.335938 7.332031 C 3.785156 7.332031 4.121094 7.121094 4.148438 6.539062 C 4.175781 5.957031 3.832031 5.484375 3.382812 5.484375 Z M 8.484375 6.511719 C 8.460938 5.929688 8.074219 5.484375 7.621094 5.484375 C 7.171875 5.484375 6.828125 5.957031 6.855469 6.539062 C 6.882812 7.121094 7.21875 7.332031 7.667969 7.332031 C 8.117188 7.332031 8.511719 7.09375 8.484375 6.511719 Z M 7.195312 8.03125 C 7.226562 7.957031 7.171875 7.867188 7.089844 7.859375 C 6.59375 7.808594 6.0625 7.78125 5.503906 7.78125 C 4.949219 7.78125 4.414062 7.808594 3.917969 7.859375 C 3.835938 7.867188 3.78125 7.957031 3.8125 8.03125 C 4.089844 8.695312 4.742188 9.160156 5.503906 9.160156 C 6.265625 9.160156 6.917969 8.695312 7.195312 8.03125 Z M 7.195312 8.03125 "/>
</g>
</svg>
