<?xml version="1.0" encoding="UTF-8"?>
<svg xmlns="http://www.w3.org/2000/svg" xmlns:xlink="http://www.w3.org/1999/xlink" width="px" height="11px" viewBox="0 0 10 11" version="1.1">
<g id="surface1">
<path style=" stroke:none;fill-rule:nonzero;fill:rgb(0%,0%,0%);fill-opacity:1;" d="M 0 1.375 C 0 0.996094 0.320312 0.6875 0.714844 0.6875 C 5.84375 0.6875 10 4.6875 10 9.625 C 10 10.003906 9.679688 10.3125 9.285156 10.3125 C 8.890625 10.3125 8.570312 10.003906 8.570312 9.625 C 8.570312 5.449219 5.054688 2.0625 0.714844 2.0625 C 0.320312 2.0625 0 1.753906 0 1.375 Z M 0 8.9375 C 0 8.179688 0.640625 7.5625 1.429688 7.5625 C 2.21875 7.5625 2.855469 8.179688 2.855469 8.9375 C 2.855469 9.695312 2.21875 10.3125 1.429688 10.3125 C 0.640625 10.3125 0 9.695312 0 8.9375 Z M 0.714844 3.4375 C 4.265625 3.4375 7.144531 6.207031 7.144531 9.625 C 7.144531 10.003906 6.824219 10.3125 6.429688 10.3125 C 6.035156 10.3125 5.714844 10.003906 5.714844 9.625 C 5.714844 6.96875 3.476562 4.8125 0.714844 4.8125 C 0.320312 4.8125 0 4.503906 0 4.125 C 0 3.746094 0.320312 3.4375 0.714844 3.4375 Z M 0.714844 3.4375 "/>
</g>
</svg>
