<?xml version="1.0" encoding="UTF-8"?>
<svg xmlns="http://www.w3.org/2000/svg" xmlns:xlink="http://www.w3.org/1999/xlink" width="px" height="11px" viewBox="0 0 11 11" version="1.1">
<g id="surface1">
<path style=" stroke:none;fill-rule:nonzero;fill:rgb(0%,0%,0%);fill-opacity:1;" d="M 5.902344 5.902344 L 5.097656 5.097656 L 3.566406 7.433594 Z M 5.5 0.171875 C 2.554688 0.171875 0.171875 2.554688 0.171875 5.5 C 0.171875 8.445312 2.554688 10.828125 5.5 10.828125 C 8.445312 10.828125 10.828125 8.445312 10.828125 5.5 C 10.828125 2.554688 8.445312 0.171875 5.5 0.171875 Z M 8.847656 3.925781 L 9.164062 3.796875 C 9.253906 3.757812 9.355469 3.800781 9.390625 3.890625 C 9.40625 3.929688 9.40625 3.976562 9.390625 4.019531 C 9.371094 4.0625 9.339844 4.097656 9.296875 4.113281 L 8.980469 4.246094 C 8.894531 4.28125 8.792969 4.238281 8.757812 4.152344 C 8.71875 4.0625 8.761719 3.964844 8.847656 3.925781 Z M 6.753906 2.019531 L 6.886719 1.703125 C 6.921875 1.613281 7.023438 1.574219 7.109375 1.609375 C 7.199219 1.644531 7.242188 1.746094 7.203125 1.835938 L 7.074219 2.152344 C 7.035156 2.238281 6.9375 2.28125 6.847656 2.246094 C 6.804688 2.226562 6.773438 2.195312 6.753906 2.152344 C 6.738281 2.109375 6.738281 2.0625 6.753906 2.019531 Z M 5.5 1.289062 C 5.59375 1.289062 5.671875 1.367188 5.671875 1.460938 L 5.671875 1.804688 C 5.671875 1.898438 5.59375 1.976562 5.5 1.976562 C 5.40625 1.976562 5.328125 1.898438 5.328125 1.804688 L 5.328125 1.460938 C 5.328125 1.367188 5.40625 1.289062 5.5 1.289062 Z M 3.890625 1.609375 C 3.929688 1.59375 3.976562 1.59375 4.019531 1.609375 C 4.0625 1.628906 4.097656 1.660156 4.113281 1.703125 L 4.246094 2.019531 C 4.269531 2.078125 4.261719 2.140625 4.222656 2.191406 C 4.1875 2.242188 4.125 2.265625 4.0625 2.257812 C 4.003906 2.25 3.949219 2.207031 3.925781 2.152344 L 3.796875 1.832031 C 3.757812 1.746094 3.800781 1.644531 3.886719 1.609375 Z M 2.523438 2.523438 C 2.589844 2.457031 2.699219 2.457031 2.765625 2.523438 L 3.007812 2.765625 C 3.074219 2.832031 3.074219 2.941406 3.007812 3.007812 C 2.941406 3.074219 2.832031 3.074219 2.765625 3.007812 L 2.523438 2.765625 C 2.457031 2.699219 2.457031 2.589844 2.523438 2.523438 Z M 1.289062 5.5 C 1.289062 5.40625 1.367188 5.328125 1.460938 5.328125 L 1.804688 5.328125 C 1.898438 5.328125 1.976562 5.40625 1.976562 5.5 C 1.976562 5.59375 1.898438 5.671875 1.804688 5.671875 L 1.460938 5.671875 C 1.367188 5.671875 1.289062 5.59375 1.289062 5.5 Z M 2.152344 7.074219 L 1.835938 7.203125 C 1.746094 7.242188 1.644531 7.199219 1.609375 7.109375 C 1.59375 7.070312 1.59375 7.023438 1.609375 6.980469 C 1.628906 6.9375 1.660156 6.902344 1.703125 6.886719 L 2.019531 6.753906 C 2.105469 6.71875 2.207031 6.761719 2.242188 6.847656 C 2.28125 6.9375 2.238281 7.035156 2.152344 7.074219 Z M 2.246094 4.152344 C 2.226562 4.195312 2.195312 4.226562 2.152344 4.246094 C 2.109375 4.261719 2.0625 4.261719 2.019531 4.246094 L 1.703125 4.113281 C 1.613281 4.078125 1.574219 3.976562 1.609375 3.890625 C 1.644531 3.800781 1.746094 3.757812 1.835938 3.796875 L 2.152344 3.925781 C 2.238281 3.964844 2.28125 4.0625 2.246094 4.152344 Z M 4.246094 8.980469 L 4.113281 9.296875 C 4.078125 9.386719 3.976562 9.425781 3.886719 9.390625 C 3.800781 9.355469 3.757812 9.253906 3.796875 9.167969 L 3.925781 8.847656 C 3.949219 8.792969 4.003906 8.75 4.0625 8.742188 C 4.125 8.734375 4.1875 8.757812 4.222656 8.808594 C 4.261719 8.859375 4.269531 8.921875 4.246094 8.980469 Z M 5.671875 9.539062 C 5.671875 9.632812 5.59375 9.710938 5.5 9.710938 C 5.40625 9.710938 5.328125 9.632812 5.328125 9.539062 L 5.328125 9.195312 C 5.328125 9.101562 5.40625 9.023438 5.5 9.023438 C 5.59375 9.023438 5.671875 9.101562 5.671875 9.195312 Z M 7.109375 9.390625 C 7.070312 9.40625 7.023438 9.40625 6.980469 9.390625 C 6.9375 9.371094 6.902344 9.339844 6.886719 9.296875 L 6.753906 8.980469 C 6.71875 8.894531 6.761719 8.792969 6.847656 8.757812 C 6.9375 8.71875 7.035156 8.761719 7.074219 8.847656 L 7.203125 9.167969 C 7.242188 9.253906 7.199219 9.355469 7.109375 9.390625 Z M 8.476562 8.476562 C 8.410156 8.542969 8.300781 8.542969 8.234375 8.476562 L 7.992188 8.234375 C 7.925781 8.167969 7.925781 8.058594 7.992188 7.992188 C 8.058594 7.925781 8.167969 7.925781 8.234375 7.992188 L 8.476562 8.234375 C 8.542969 8.300781 8.542969 8.410156 8.476562 8.476562 Z M 6.148438 6.148438 L 2.371094 8.628906 L 4.851562 4.851562 L 8.628906 2.371094 Z M 9.390625 7.109375 C 9.355469 7.199219 9.253906 7.242188 9.164062 7.203125 L 8.847656 7.074219 C 8.761719 7.035156 8.71875 6.9375 8.753906 6.847656 C 8.773438 6.804688 8.804688 6.773438 8.847656 6.753906 C 8.890625 6.738281 8.9375 6.738281 8.980469 6.753906 L 9.296875 6.886719 C 9.386719 6.921875 9.425781 7.023438 9.390625 7.109375 Z M 9.539062 5.671875 L 9.195312 5.671875 C 9.101562 5.671875 9.023438 5.59375 9.023438 5.5 C 9.023438 5.40625 9.101562 5.328125 9.195312 5.328125 L 9.539062 5.328125 C 9.632812 5.328125 9.710938 5.40625 9.710938 5.5 C 9.710938 5.59375 9.632812 5.671875 9.539062 5.671875 Z M 9.539062 5.671875 "/>
</g>
</svg>
