<?xml version="1.0" encoding="UTF-8"?>
<svg xmlns="http://www.w3.org/2000/svg" xmlns:xlink="http://www.w3.org/1999/xlink" width="px" height="11px" viewBox="0 0 11 11" version="1.1">
<g id="surface1">
<path style=" stroke:none;fill-rule:nonzero;fill:rgb(0%,0%,0%);fill-opacity:1;" d="M 4.179688 0.160156 L 4.304688 0.660156 C 3.816406 0.78125 3.351562 0.972656 2.921875 1.234375 L 2.65625 0.789062 C 3.128906 0.503906 3.644531 0.292969 4.179688 0.160156 Z M 6.820312 0.160156 L 6.695312 0.660156 C 7.183594 0.78125 7.648438 0.972656 8.078125 1.234375 L 8.34375 0.789062 C 7.871094 0.503906 7.355469 0.292969 6.820312 0.160156 Z M 0.789062 2.65625 C 0.503906 3.128906 0.292969 3.644531 0.160156 4.179688 L 0.660156 4.304688 C 0.78125 3.816406 0.972656 3.351562 1.234375 2.921875 Z M 0.515625 5.5 C 0.515625 5.25 0.535156 5 0.570312 4.753906 L 0.0625 4.675781 C -0.0195312 5.21875 -0.0195312 5.777344 0.0625 6.324219 L 0.570312 6.246094 C 0.535156 6 0.515625 5.75 0.515625 5.5 Z M 8.34375 10.210938 L 8.078125 9.765625 C 7.648438 10.027344 7.183594 10.21875 6.699219 10.339844 L 6.824219 10.839844 C 7.359375 10.707031 7.871094 10.496094 8.34375 10.210938 Z M 10.484375 5.5 C 10.484375 5.75 10.464844 6 10.429688 6.246094 L 10.9375 6.324219 C 11.019531 5.78125 11.019531 5.222656 10.9375 4.675781 L 10.429688 4.753906 C 10.464844 5 10.484375 5.25 10.484375 5.503906 Z M 10.839844 6.820312 L 10.339844 6.695312 C 10.21875 7.183594 10.027344 7.644531 9.765625 8.074219 L 10.210938 8.34375 C 10.496094 7.871094 10.707031 7.355469 10.839844 6.816406 Z M 6.246094 10.429688 C 5.75 10.503906 5.246094 10.503906 4.753906 10.429688 L 4.675781 10.9375 C 5.21875 11.019531 5.777344 11.019531 6.324219 10.9375 Z M 9.511719 8.457031 C 9.214844 8.859375 8.859375 9.214844 8.453125 9.511719 L 8.757812 9.925781 C 9.203125 9.597656 9.597656 9.207031 9.921875 8.761719 L 9.507812 8.453125 Z M 8.457031 1.488281 C 8.859375 1.78125 9.214844 2.140625 9.511719 2.542969 L 9.929688 2.234375 C 9.601562 1.792969 9.207031 1.398438 8.765625 1.070312 Z M 1.488281 2.542969 C 1.78125 2.140625 2.140625 1.785156 2.542969 1.488281 L 2.234375 1.070312 C 1.792969 1.398438 1.398438 1.792969 1.070312 2.234375 Z M 10.210938 2.65625 L 9.765625 2.921875 C 10.027344 3.351562 10.21875 3.816406 10.339844 4.300781 L 10.839844 4.175781 C 10.707031 3.640625 10.496094 3.128906 10.210938 2.65625 Z M 4.753906 0.570312 C 5.246094 0.496094 5.75 0.496094 6.246094 0.570312 L 6.324219 0.0625 C 5.777344 -0.0234375 5.222656 -0.0234375 4.675781 0.0625 Z M 1.753906 10.0625 L 0.6875 10.3125 L 0.9375 9.246094 L 0.433594 9.132812 L 0.183594 10.195312 C 0.164062 10.28125 0.167969 10.367188 0.191406 10.453125 C 0.214844 10.539062 0.261719 10.617188 0.320312 10.679688 C 0.382812 10.738281 0.460938 10.785156 0.546875 10.808594 C 0.628906 10.832031 0.71875 10.835938 0.804688 10.816406 L 1.867188 10.570312 Z M 0.542969 8.671875 L 1.042969 8.789062 L 1.214844 8.046875 C 0.964844 7.625 0.777344 7.171875 0.660156 6.695312 L 0.160156 6.820312 C 0.273438 7.273438 0.445312 7.714844 0.667969 8.125 L 0.542969 8.667969 Z M 2.949219 9.789062 L 2.207031 9.960938 L 2.324219 10.460938 L 2.867188 10.335938 C 3.28125 10.558594 3.71875 10.730469 4.175781 10.84375 L 4.300781 10.34375 C 3.824219 10.222656 3.367188 10.035156 2.949219 9.785156 L 2.945312 9.789062 Z M 5.5 1.03125 C 4.699219 1.03125 3.917969 1.246094 3.230469 1.652344 C 2.542969 2.058594 1.976562 2.640625 1.59375 3.339844 C 1.207031 4.042969 1.015625 4.828125 1.039062 5.625 C 1.0625 6.421875 1.296875 7.203125 1.722656 7.878906 L 1.289062 9.710938 L 3.121094 9.28125 C 3.707031 9.652344 4.371094 9.878906 5.0625 9.945312 C 5.75 10.015625 6.449219 9.921875 7.09375 9.675781 C 7.742188 9.429688 8.324219 9.035156 8.792969 8.523438 C 9.261719 8.011719 9.605469 7.402344 9.796875 6.738281 C 9.992188 6.070312 10.023438 5.371094 9.898438 4.691406 C 9.773438 4.007812 9.488281 3.367188 9.074219 2.8125 C 8.65625 2.257812 8.117188 1.808594 7.496094 1.5 C 6.875 1.195312 6.195312 1.03125 5.5 1.03125 Z M 5.5 1.03125 "/>
</g>
</svg>
