<?xml version="1.0" encoding="UTF-8"?>
<svg xmlns="http://www.w3.org/2000/svg" xmlns:xlink="http://www.w3.org/1999/xlink" width="px" height="11px" viewBox="0 0 13 11" version="1.1">
<g id="surface1">
<path style=" stroke:none;fill-rule:nonzero;fill:rgb(0%,0%,0%);fill-opacity:1;" d="M 11.699219 0 C 12.058594 0 12.351562 0.308594 12.351562 0.6875 L 12.351562 10.3125 C 12.351562 10.691406 12.058594 11 11.699219 11 C 11.339844 11 11.050781 10.691406 11.050781 10.3125 L 11.050781 0.6875 C 11.050781 0.308594 11.339844 0 11.699219 0 Z M 9.101562 2.0625 C 9.460938 2.0625 9.75 2.371094 9.75 2.75 L 9.75 10.3125 C 9.75 10.691406 9.460938 11 9.101562 11 C 8.742188 11 8.449219 10.691406 8.449219 10.3125 L 8.449219 2.75 C 8.449219 2.371094 8.742188 2.0625 9.101562 2.0625 Z M 7.148438 4.8125 L 7.148438 10.3125 C 7.148438 10.691406 6.859375 11 6.5 11 C 6.140625 11 5.851562 10.691406 5.851562 10.3125 L 5.851562 4.8125 C 5.851562 4.433594 6.140625 4.125 6.5 4.125 C 6.859375 4.125 7.148438 4.433594 7.148438 4.8125 Z M 3.898438 6.1875 C 4.257812 6.1875 4.550781 6.496094 4.550781 6.875 L 4.550781 10.3125 C 4.550781 10.691406 4.257812 11 3.898438 11 C 3.539062 11 3.25 10.691406 3.25 10.3125 L 3.25 6.875 C 3.25 6.496094 3.539062 6.1875 3.898438 6.1875 Z M 1.949219 8.9375 L 1.949219 10.3125 C 1.949219 10.691406 1.660156 11 1.300781 11 C 0.941406 11 0.648438 10.691406 0.648438 10.3125 L 0.648438 8.9375 C 0.648438 8.558594 0.941406 8.25 1.300781 8.25 C 1.660156 8.25 1.949219 8.558594 1.949219 8.9375 Z M 1.949219 8.9375 "/>
</g>
</svg>
