<?xml version="1.0" encoding="UTF-8"?>
<svg xmlns="http://www.w3.org/2000/svg" xmlns:xlink="http://www.w3.org/1999/xlink" width="px" height="11px" viewBox="0 0 10 11" version="1.1">
<g id="surface1">
<path style=" stroke:none;fill-rule:nonzero;fill:rgb(0%,0%,0%);fill-opacity:1;" d="M 0 0.6875 L 1.554688 3.238281 L 0.242188 2.992188 L 1.800781 4.945312 C 1.734375 5.3125 1.734375 5.6875 1.800781 6.050781 L 0.242188 8.007812 L 1.554688 7.761719 L 0 10.3125 L 2.652344 8.816406 L 2.394531 10.078125 L 4.425781 8.578125 C 4.804688 8.644531 5.195312 8.644531 5.574219 8.578125 L 7.605469 10.078125 L 7.347656 8.816406 L 10 10.3125 L 8.445312 7.761719 L 9.757812 8.007812 L 8.199219 6.050781 C 8.265625 5.6875 8.265625 5.3125 8.199219 4.945312 L 9.757812 2.992188 L 8.445312 3.238281 L 10 0.6875 L 7.347656 2.183594 L 7.605469 0.917969 L 5.574219 2.421875 C 5.382812 2.386719 5.191406 2.371094 5 2.371094 C 4.808594 2.371094 4.617188 2.386719 4.425781 2.421875 L 2.394531 0.917969 L 2.652344 2.183594 Z M 5 2.832031 C 5.710938 2.832031 6.417969 3.089844 6.960938 3.613281 C 8.042969 4.65625 8.042969 6.34375 6.960938 7.386719 C 5.878906 8.429688 4.121094 8.429688 3.039062 7.386719 C 1.957031 6.34375 1.957031 4.652344 3.039062 3.613281 C 3.582031 3.089844 4.289062 2.832031 5 2.832031 Z M 5 3.617188 C 4.5 3.617188 4 3.800781 3.617188 4.167969 C 2.855469 4.902344 2.855469 6.097656 3.617188 6.832031 C 4.382812 7.566406 5.617188 7.566406 6.382812 6.832031 C 7.144531 6.097656 7.144531 4.902344 6.382812 4.167969 C 6 3.800781 5.5 3.617188 5 3.617188 Z M 5 3.617188 "/>
</g>
</svg>
