<?xml version="1.0" encoding="UTF-8"?>
<svg xmlns="http://www.w3.org/2000/svg" xmlns:xlink="http://www.w3.org/1999/xlink" width="px" height="11px" viewBox="0 0 10 11" version="1.1">
<g id="surface1">
<path style=" stroke:none;fill-rule:nonzero;fill:rgb(0%,0%,0%);fill-opacity:1;" d="M 0.394531 7.140625 L 9.605469 7.140625 L 9.605469 7.613281 C 9.605469 8.421875 8.953125 9.074219 8.148438 9.074219 L 7.726562 9.074219 L 5.789062 11 L 5.789062 9.074219 L 1.851562 9.074219 C 1.050781 9.074219 0.394531 8.421875 0.394531 7.613281 Z M 0.394531 6.632812 L 9.605469 6.632812 L 9.605469 4.804688 L 0.394531 4.804688 Z M 0.394531 4.28125 L 9.605469 4.28125 L 9.605469 2.457031 L 0.394531 2.457031 Z M 8.148438 0 L 1.851562 0 C 1.050781 0 0.394531 0.652344 0.394531 1.453125 L 0.394531 1.933594 L 9.605469 1.933594 L 9.605469 1.453125 C 9.605469 0.652344 8.949219 0 8.148438 0 Z M 8.148438 0 "/>
</g>
</svg>
