<?xml version="1.0" encoding="UTF-8"?>
<svg xmlns="http://www.w3.org/2000/svg" xmlns:xlink="http://www.w3.org/1999/xlink" width="px" height="11px" viewBox="0 0 11 11" version="1.1">
<g id="surface1">
<path style=" stroke:none;fill-rule:nonzero;fill:rgb(0%,0%,0%);fill-opacity:1;" d="M 5.5 0.171875 C 2.460938 0.171875 0 2.558594 0 5.5 C 0 8.441406 2.460938 10.828125 5.5 10.828125 C 8.539062 10.828125 11 8.441406 11 5.5 C 11 2.558594 8.539062 0.171875 5.5 0.171875 Z M 8.050781 3.796875 C 7.964844 4.636719 7.609375 6.683594 7.425781 7.625 C 7.347656 8.023438 7.195312 8.160156 7.050781 8.171875 C 6.730469 8.199219 6.488281 7.96875 6.179688 7.769531 C 5.695312 7.464844 5.421875 7.273438 4.953125 6.972656 C 4.410156 6.625 4.761719 6.4375 5.070312 6.125 C 5.152344 6.042969 6.558594 4.800781 6.585938 4.691406 C 6.589844 4.675781 6.59375 4.625 6.558594 4.597656 C 6.527344 4.566406 6.480469 4.578125 6.445312 4.585938 C 6.398438 4.597656 5.625 5.089844 4.125 6.070312 C 3.90625 6.214844 3.707031 6.289062 3.53125 6.285156 C 3.332031 6.28125 2.957031 6.175781 2.675781 6.089844 C 2.332031 5.980469 2.054688 5.921875 2.082031 5.738281 C 2.09375 5.640625 2.230469 5.542969 2.488281 5.445312 C 4.09375 4.765625 5.160156 4.320312 5.695312 4.105469 C 7.222656 3.488281 7.542969 3.382812 7.75 3.378906 C 7.792969 3.378906 7.894531 3.390625 7.960938 3.441406 C 8.003906 3.476562 8.035156 3.53125 8.039062 3.585938 C 8.050781 3.65625 8.054688 3.726562 8.050781 3.796875 Z M 8.050781 3.796875 "/>
</g>
</svg>
