<?xml version="1.0" encoding="UTF-8"?>
<svg xmlns="http://www.w3.org/2000/svg" xmlns:xlink="http://www.w3.org/1999/xlink" width="px" height="11px" viewBox="0 0 7 11" version="1.1">
<g id="surface1">
<path style=" stroke:none;fill-rule:nonzero;fill:rgb(0%,0%,0%);fill-opacity:1;" d="M 6.777344 10.320312 C 6.480469 10.628906 5.683594 11 4.644531 11 C 2.003906 11 1.429688 9.09375 1.429688 7.980469 L 1.429688 4.886719 L 0.390625 4.886719 C 0.269531 4.886719 0.171875 4.789062 0.171875 4.671875 L 0.171875 3.210938 C 0.171875 3.054688 0.269531 2.917969 0.421875 2.867188 C 1.777344 2.398438 2.203125 1.234375 2.265625 0.351562 C 2.28125 0.113281 2.40625 0 2.617188 0 L 4.167969 0 C 4.289062 0 4.386719 0.0976562 4.386719 0.214844 L 4.386719 2.691406 L 6.203125 2.691406 C 6.320312 2.691406 6.421875 2.785156 6.421875 2.902344 L 6.421875 4.65625 C 6.421875 4.777344 6.320312 4.871094 6.203125 4.871094 L 4.378906 4.871094 L 4.378906 7.734375 C 4.378906 8.46875 4.894531 8.886719 5.863281 8.503906 C 5.96875 8.460938 6.0625 8.433594 6.140625 8.457031 C 6.21875 8.476562 6.269531 8.53125 6.304688 8.625 L 6.785156 10.007812 C 6.824219 10.113281 6.859375 10.234375 6.777344 10.320312 Z M 6.777344 10.320312 "/>
</g>
</svg>
