<?xml version="1.0" encoding="UTF-8"?>
<svg xmlns="http://www.w3.org/2000/svg" xmlns:xlink="http://www.w3.org/1999/xlink" width="px" height="11px" viewBox="0 0 11 11" version="1.1">
<g id="surface1">
<path style=" stroke:none;fill-rule:nonzero;fill:rgb(0%,0%,0%);fill-opacity:1;" d="M 9.871094 3.257812 C 9.875 3.355469 9.875 3.453125 9.875 3.550781 C 9.875 6.53125 7.609375 9.96875 3.460938 9.96875 C 2.183594 9.96875 1 9.597656 0 8.953125 C 0.179688 8.976562 0.355469 8.984375 0.542969 8.984375 C 1.597656 8.984375 2.570312 8.625 3.34375 8.019531 C 2.351562 8 1.523438 7.351562 1.234375 6.457031 C 1.375 6.476562 1.515625 6.492188 1.660156 6.492188 C 1.863281 6.492188 2.066406 6.464844 2.253906 6.414062 C 1.222656 6.203125 0.445312 5.296875 0.445312 4.203125 L 0.445312 4.175781 C 0.746094 4.339844 1.097656 4.445312 1.464844 4.460938 C 0.859375 4.054688 0.460938 3.363281 0.460938 2.582031 C 0.460938 2.164062 0.574219 1.78125 0.769531 1.445312 C 1.878906 2.8125 3.546875 3.707031 5.417969 3.804688 C 5.382812 3.636719 5.359375 3.460938 5.359375 3.289062 C 5.359375 2.046875 6.367188 1.03125 7.613281 1.03125 C 8.265625 1.03125 8.851562 1.304688 9.261719 1.746094 C 9.773438 1.648438 10.261719 1.457031 10.691406 1.199219 C 10.523438 1.722656 10.167969 2.164062 9.703125 2.441406 C 10.15625 2.394531 10.59375 2.269531 11 2.09375 C 10.691406 2.539062 10.308594 2.9375 9.871094 3.257812 Z M 9.871094 3.257812 "/>
</g>
</svg>
