<?xml version="1.0" encoding="UTF-8"?>
<svg xmlns="http://www.w3.org/2000/svg" xmlns:xlink="http://www.w3.org/1999/xlink" width="px" height="11px" viewBox="0 0 12 11" version="1.1">
<g id="surface1">
<path style=" stroke:none;fill-rule:nonzero;fill:rgb(0%,0%,0%);fill-opacity:1;" d="M 9.773438 1.609375 C 9.773438 0.714844 9.070312 -0.015625 8.199219 -0.015625 C 7.328125 -0.015625 6.621094 0.714844 6.621094 1.609375 C 6.621094 2.507812 7.328125 3.234375 8.199219 3.234375 C 9.066406 3.234375 9.773438 2.507812 9.773438 1.609375 Z M 3.210938 5.171875 C 3.210938 4.273438 2.507812 3.546875 1.636719 3.546875 C 0.769531 3.546875 0.0625 4.273438 0.0625 5.171875 C 0.0625 6.066406 0.769531 6.796875 1.636719 6.796875 C 2.507812 6.796875 3.210938 6.066406 3.210938 5.171875 Z M 1.1875 7.433594 C 1.574219 8.441406 2.25 9.304688 3.125 9.90625 C 4 10.511719 5.03125 10.820312 6.082031 10.800781 C 5.777344 10.402344 5.605469 9.910156 5.601562 9.402344 C 5.457031 9.382812 5.324219 9.355469 5.195312 9.328125 C 4.636719 9.207031 4.113281 8.957031 3.660156 8.597656 C 3.207031 8.238281 2.839844 7.78125 2.582031 7.253906 C 2.148438 7.46875 1.65625 7.53125 1.183594 7.429688 Z M 9.417969 9.363281 C 9.417969 8.464844 8.714844 7.738281 7.84375 7.738281 C 6.972656 7.738281 6.269531 8.464844 6.269531 9.363281 C 6.269531 10.261719 6.972656 10.988281 7.84375 10.988281 C 8.714844 10.988281 9.417969 10.261719 9.417969 9.363281 Z M 9.25 7.554688 C 9.636719 7.871094 9.910156 8.308594 10.023438 8.804688 C 10.71875 7.917969 11.121094 6.824219 11.167969 5.683594 C 11.210938 4.546875 10.90625 3.421875 10.289062 2.476562 C 10.109375 2.9375 9.789062 3.324219 9.375 3.582031 C 9.695312 4.199219 9.851562 4.890625 9.832031 5.585938 C 9.808594 6.28125 9.609375 6.960938 9.246094 7.554688 Z M 2.105469 2.910156 C 2.363281 2.96875 2.613281 3.070312 2.835938 3.214844 C 3.183594 2.695312 3.648438 2.269531 4.1875 1.96875 C 4.726562 1.671875 5.328125 1.511719 5.941406 1.503906 C 5.945312 1.378906 5.960938 1.25 5.984375 1.125 C 6.058594 0.765625 6.214844 0.429688 6.4375 0.144531 C 5.445312 0.0625 4.449219 0.273438 3.570312 0.757812 C 2.691406 1.242188 1.964844 1.96875 1.476562 2.867188 C 1.53125 2.863281 1.585938 2.859375 1.640625 2.859375 C 1.796875 2.859375 1.953125 2.875 2.109375 2.910156 Z M 2.105469 2.910156 "/>
</g>
</svg>
