<?xml version="1.0" encoding="UTF-8"?>
<svg xmlns="http://www.w3.org/2000/svg" xmlns:xlink="http://www.w3.org/1999/xlink" width="px" height="11px" viewBox="0 0 11 11" version="1.1">
<g id="surface1">
<path style=" stroke:none;fill-rule:nonzero;fill:rgb(0%,0%,0%);fill-opacity:1;" d="M 7.5625 6.875 C 9.460938 6.875 11 5.335938 11 3.4375 C 11 3.109375 10.953125 2.789062 10.867188 2.488281 C 10.800781 2.257812 10.515625 2.203125 10.34375 2.375 L 8.695312 4.023438 C 8.628906 4.089844 8.542969 4.125 8.453125 4.125 L 7.21875 4.125 C 7.03125 4.125 6.875 3.96875 6.875 3.78125 L 6.875 2.546875 C 6.875 2.457031 6.910156 2.371094 6.976562 2.304688 L 8.625 0.65625 C 8.796875 0.484375 8.742188 0.199219 8.511719 0.132812 C 8.210938 0.046875 7.890625 0 7.5625 0 C 5.664062 0 4.125 1.539062 4.125 3.4375 C 4.125 3.847656 4.199219 4.242188 4.328125 4.609375 L 0.425781 8.511719 C 0.15625 8.78125 0 9.15625 0 9.542969 C 0 10.347656 0.652344 11 1.457031 11 C 1.84375 11 2.21875 10.84375 2.488281 10.574219 L 6.390625 6.671875 C 6.757812 6.804688 7.152344 6.875 7.5625 6.875 Z M 1.71875 8.765625 C 2.003906 8.765625 2.234375 8.996094 2.234375 9.28125 C 2.234375 9.566406 2.003906 9.796875 1.71875 9.796875 C 1.433594 9.796875 1.203125 9.566406 1.203125 9.28125 C 1.203125 8.996094 1.433594 8.765625 1.71875 8.765625 Z M 1.71875 8.765625 "/>
</g>
</svg>
