<?xml version="1.0" encoding="UTF-8"?>
<svg xmlns="http://www.w3.org/2000/svg" xmlns:xlink="http://www.w3.org/1999/xlink" width="px" height="11px" viewBox="0 0 12 11" version="1.1">
<g id="surface1">
<path style=" stroke:none;fill-rule:nonzero;fill:rgb(0%,0%,0%);fill-opacity:1;" d="M 11.449219 2.664062 C 11.320312 2.15625 10.933594 1.757812 10.445312 1.621094 C 9.558594 1.375 6 1.375 6 1.375 C 6 1.375 2.441406 1.375 1.554688 1.621094 C 1.066406 1.757812 0.679688 2.15625 0.550781 2.664062 C 0.3125 3.585938 0.3125 5.507812 0.3125 5.507812 C 0.3125 5.507812 0.3125 7.429688 0.550781 8.351562 C 0.679688 8.859375 1.066406 9.242188 1.554688 9.378906 C 2.441406 9.625 6 9.625 6 9.625 C 6 9.625 9.558594 9.625 10.445312 9.378906 C 10.933594 9.242188 11.320312 8.859375 11.449219 8.351562 C 11.6875 7.429688 11.6875 5.507812 11.6875 5.507812 C 11.6875 5.507812 11.6875 3.585938 11.449219 2.664062 Z M 4.835938 7.253906 L 4.835938 3.765625 L 7.808594 5.507812 Z M 4.835938 7.253906 "/>
</g>
</svg>
